{
.appVersion = "1352";
DisplayStrings = (
"AVWXYKZODQCG/Schwa SUHIJEÆ/OE FLTMN/Eng BRPÞ/Germandbls \012\012aoeæ/oe cbpþqd/dcroat ðgun/eng h/hbar ml/idotless/jdotless fk/kgreenlandic rsßt/tbar vywxz\012\012/f_f/f_f_i/f_f_l/fi/fl/f_b.liga/f_f_b.liga/f_f_h.liga/f_f_k.liga/f_h.liga/f_k.liga/f_t.liga/t_t.liga/space ªº\012\012012345678/zero.dnom/one.dnom/two.dnom/three.dnom/four.dnom/five.dnom/six.dnom/seven.dnom/eight.dnom/nine.dnom/fraction ½¼¾\012\012.,:;/ellipsis !?·/bullet *#///periodcentered.loclCAT ({[/parenleft.case/braceleft.case/bracketleft.case -/endash/emdash _/hyphen.case/endash.case/emdash.case »/guilsinglright/leftanglebracket-math \012\012/cedi ¢/colonsign ¤$/euro/florin/franc/guarani/kip/lira/liraTurkish/manat/naira/peseta/peso/ruble/rupeeIndian £/won ¥\012\012/commercialMinusSign +/minus ×÷=/notequal >/greaterequal ±/approxequal ~¬^µ%/perthousand \012\012@&¶§©®/trademark °/minute/second |¦/dagger/daggerdbl/numero \012\012/dieresiscomb/dotaccentcomb/gravecomb/acutecomb/hungarumlautcomb/circumflexcomb/caroncomb/brevecomb/ringcomb/tildecomb/macroncomb/hookabovecomb/dblgravecomb/breveinvertedcomb/commaturnedabovecomb/horncomb/dotbelowcomb/dieresisbelowcomb/commaaccentcomb/cedillacomb/ogonekcomb/brevebelowcomb/macronbelowcomb/strokeshortcomb/strokelongcomb/slashshortcomb/slashlongcomb/hookabovecomb.alt/slashlongcomb.case/caroncomb.alt/gravecomb.alt/acutecomb.alt \012\012/_corner.Serif/space/_U.horn/_U/_zero.slash"
);
classes = (
{
automatic = 1;

glyphs = (
{
color = 8;
glyphname = A;
lastChange = "2021-06-30 11:41:41 +0000";
layers = (
{
anchors = (
{
name = bottom;
position = "{381, 0}";
},
{
name = ogonek;
position = "{706, 0}";
},
{
name = top;
position = "{381, 682}";
}
);
hints = (
{
origin = "{0, 7}";
scale = "{0.76, 1}";
type = Corner;
name = _corner.Serif;
},
{
origin = "{0, 0}";
scale = "{-1.3, 1}";
type = Corner;
name = _corner.Serif;
options = 1;
},
{
origin = "{0, 3}";
scale = "{1.3, 1}";
type = Corner;
name = _corner.Serif;
},
{
origin = "{0, 4}";
scale = "{-0.76, 1}";
type = Corner;
name = _corner.Serif;
options = 1;
}
);
layerId = "1E61A082-F045-49A7-AB52-DD1B03FD9B54";
paths = (
{
closed = 1;
nodes = (
"114 0 LINE",
"383 667 LINE",
"375 667 LINE",
"643 0 LINE",
"667 0 LINE",
"389 688 LINE",
"373 688 LINE",
"95 0 LINE"
);
},
{
closed = 1;
nodes = (
"556 236 LINE",
"556 253 LINE",
"204 253 LINE",
"204 236 LINE"
);
}
);
width = 762;
},
{
anchors = (
{
name = bottom;
position = "{424, 0}";
},
{
name = ogonek;
position = "{755, 0}";
},
{
name = top;
position = "{424, 682}";
}
);
hints = (
{
origin = "{0, 0}";
scale = "{-1.7, 1}";
type = Corner;
name = _corner.Serif;
options = 1;
},
{
origin = "{0, 3}";
scale = "{1.7, 1}";
type = Corner;
name = _corner.Serif;
},
{
origin = "{0, 4}";
scale = "{-0.6, 1}";
type = Corner;
name = _corner.Serif;
options = 1;
},
{
origin = "{0, 7}";
scale = "{0.6, 1}";
type = Corner;
name = _corner.Serif;
}
);
layerId = "219068EA-2B9B-40DC-949E-B60449C01B8A";
paths = (
{
closed = 1;
nodes = (
"175 0 LINE",
"416 577 LINE",
"356 577 LINE",
"591 0 LINE",
"801 0 LINE",
"512 682 LINE",
"335 682 LINE",
"46 0 LINE"
);
},
{
closed = 1;
nodes = (
"547 193 LINE",
"547 295 LINE",
"230 295 LINE",
"230 193 LINE"
);
}
);
width = 847;
},
{
anchors = (
{
name = bottom;
position = "{410, 0}";
},
{
name = ogonek;
position = "{735, 0}";
},
{
name = top;
position = "{410, 682}";
}
);
hints = (
{
origin = "{0, 7}";
scale = "{0.6, 1}";
type = Corner;
name = _corner.Serif;
},
{
origin = "{0, 0}";
scale = "{-1.7, 1}";
type = Corner;
name = _corner.Serif;
options = 1;
},
{
origin = "{0, 3}";
scale = "{1.7, 1}";
type = Corner;
name = _corner.Serif;
},
{
origin = "{0, 4}";
scale = "{-0.6, 1}";
type = Corner;
name = _corner.Serif;
options = 1;
}
);
layerId = "0C29AA02-E021-4BD1-A2C4-87F681D64C35";
paths = (
{
closed = 1;
nodes = (
"160 0 LINE",
"395 580 LINE",
"337 580 LINE",
"561 0 LINE",
"770 0 LINE",
"490 685 LINE",
"330 685 LINE",
"50 0 LINE"
);
},
{
closed = 1;
nodes = (
"524 197 LINE",
"524 288 LINE",
"207 288 LINE",
"207 197 LINE"
);
}
);
width = 820;
},
{
anchors = (
{
name = bottom;
position = "{394, 0}";
},
{
name = ogonek;
position = "{733, 0}";
},
{
name = top;
position = "{394, 682}";
}
);
hints = (
{
origin = "{0, 0}";
scale = "{-1.32, 1}";
type = Corner;
name = _corner.Serif;
options = 1;
},
{
origin = "{0, 3}";
scale = "{1.32, 1}";
type = Corner;
name = _corner.Serif;
},
{
origin = "{0, 4}";
scale = "{-0.75, 1}";
type = Corner;
name = _corner.Serif;
options = 1;
},
{
origin = "{0, 7}";
scale = "{0.75, 1}";
type = Corner;
name = _corner.Serif;
}
);
layerId = "2B88661E-23DD-4EDA-82FC-C2AEA983F097";
paths = (
{
closed = 1;
nodes = (
"118 0 LINE",
"399 665 LINE",
"386 665 LINE",
"667 0 LINE",
"697 0 LINE",
"405 690 LINE",
"383 690 LINE",
"91 0 LINE"
);
},
{
closed = 1;
nodes = (
"577 233 LINE",
"577 256 LINE",
"208 256 LINE",
"208 233 LINE"
);
}
);
width = 788;
}
);
leftKerningGroup = A;
rightKerningGroup = A;
unicode = 0041;
},
{
color = 8;
glyphname = AE;
lastChange = "2021-06-30 11:50:25 +0000";
layers = (
{
anchors = (
{
name = top;
position = "{569, 682}";
}
);
hints = (
{
origin = "{0, 0}";
scale = "{-1.3, 1}";
type = Corner;
name = _corner.Serif;
options = 1;
},
{
origin = "{0, 3}";
scale = "{0.76, 1}";
type = Corner;
name = _corner.Serif;
},
{
origin = "{1, 2}";
scale = "{-1.28, 1}";
type = Corner;
name = _corner.Serif;
},
{
origin = "{1, 3}";
scale = "{1.1, 1}";
type = Corner;
name = _corner.Serif;
options = 1;
}
);
layerId = "1E61A082-F045-49A7-AB52-DD1B03FD9B54";
paths = (
{
closed = 1;
nodes = (
"115 0 LINE",
"558 682 LINE",
"538 682 LINE",
"93 0 LINE"
);
},
{
closed = 1;
nodes = (
"569 0 LINE",
"569 682 LINE",
"547 682 LINE",
"547 0 LINE"
);
},
{
closed = 1;
nodes = (
"547 236 LINE",
"547 253 LINE",
"263 253 LINE",
"263 236 LINE"
);
},
{
closed = 1;
nodes = (
"998 0 LINE",
"998 17 LINE",
"569 17 LINE",
"569 0 LINE"
);
},
{
closed = 1;
nodes = (
"815 140 LINE",
"815 351 LINE",
"744 351 LINE",
"786 351 OFFCURVE",
"797 340 OFFCURVE",
"797 295 CURVE SMOOTH",
"797 140 LINE"
);
},
{
closed = 1;
nodes = (
"815 351 LINE",
"815 368 LINE",
"569 368 LINE",
"569 351 LINE"
);
},
{
closed = 1;
nodes = (
"998 17 LINE",
"998 264 LINE",
"980 264 LINE",
"980 76 LINE SMOOTH",
"980 29 OFFCURVE",
"968 17 OFFCURVE",
"923 17 CURVE"
);
},
{
closed = 1;
nodes = (
"815 368 LINE",
"815 546 LINE",
"797 546 LINE",
"797 424 LINE SMOOTH",
"797 379 OFFCURVE",
"786 368 OFFCURVE",
"744 368 CURVE"
);
},
{
closed = 1;
nodes = (
"990 665 LINE",
"990 682 LINE",
"569 682 LINE",
"569 665 LINE"
);
},
{
closed = 1;
nodes = (
"990 427 LINE",
"990 665 LINE",
"915 665 LINE",
"960 665 OFFCURVE",
"972 653 OFFCURVE",
"972 605 CURVE SMOOTH",
"972 427 LINE"
);
}
);
width = 1067;
},
{
anchors = (
{
name = top;
position = "{612, 682}";
}
);
hints = (
{
origin = "{1, 2}";
scale = "{-2.9, 1}";
type = Corner;
name = _corner.Serif;
},
{
origin = "{1, 3}";
scale = "{1.1, 1}";
type = Corner;
name = _corner.Serif;
options = 1;
},
{
origin = "{0, 0}";
scale = "{-1.7, 1}";
type = Corner;
name = _corner.Serif;
options = 1;
},
{
origin = "{0, 3}";
scale = "{0.6, 1}";
type = Corner;
name = _corner.Serif;
}
);
layerId = "219068EA-2B9B-40DC-949E-B60449C01B8A";
paths = (
{
closed = 1;
nodes = (
"176 0 LINE",
"594 682 LINE",
"458 682 LINE",
"37 0 LINE"
);
},
{
closed = 1;
nodes = (
"708 0 LINE",
"708 682 LINE",
"517 682 LINE",
"517 0 LINE"
);
},
{
closed = 1;
nodes = (
"517 193 LINE",
"517 295 LINE",
"259 295 LINE",
"259 193 LINE"
);
},
{
closed = 1;
nodes = (
"1082 0 LINE",
"1082 102 LINE",
"708 102 LINE",
"708 0 LINE"
);
},
{
closed = 1;
nodes = (
"892 165 LINE",
"892 301 LINE",
"712 301 LINE",
"765 301 OFFCURVE",
"790 269 OFFCURVE",
"790 196 CURVE SMOOTH",
"790 165 LINE"
);
},
{
closed = 1;
nodes = (
"892 301 LINE",
"892 401 LINE",
"708 401 LINE",
"708 301 LINE"
);
},
{
closed = 1;
nodes = (
"1082 102 LINE",
"1082 255 LINE",
"977 255 LINE",
"977 211 LINE SMOOTH",
"977 134 OFFCURVE",
"949 102 OFFCURVE",
"877 102 CURVE"
);
},
{
closed = 1;
nodes = (
"892 401 LINE",
"892 516 LINE",
"790 516 LINE",
"790 505 LINE SMOOTH",
"790 433 OFFCURVE",
"765 401 OFFCURVE",
"712 401 CURVE"
);
},
{
closed = 1;
nodes = (
"1074 580 LINE",
"1074 682 LINE",
"708 682 LINE",
"708 580 LINE"
);
},
{
closed = 1;
nodes = (
"1074 436 LINE",
"1074 580 LINE",
"869 580 LINE",
"941 580 OFFCURVE",
"969 548 OFFCURVE",
"969 471 CURVE SMOOTH",
"969 436 LINE"
);
}
);
width = 1148;
},
{
anchors = (
{
name = top;
position = "{552, 682}";
}
);
hints = (
{
origin = "{0, 0}";
scale = "{-1.7, 1}";
type = Corner;
name = _corner.Serif;
options = 1;
},
{
origin = "{0, 3}";
scale = "{0.58, 1}";
type = Corner;
name = _corner.Serif;
},
{
origin = "{1, 2}";
scale = "{-2.52, 0.98}";
type = Corner;
name = _corner.Serif;
},
{
origin = "{1, 3}";
scale = "{1.18, 1}";
type = Corner;
name = _corner.Serif;
options = 1;
}
);
layerId = "0C29AA02-E021-4BD1-A2C4-87F681D64C35";
leftMetricsKey = "=A-12";
paths = (
{
closed = 1;
nodes = (
"148 0 LINE",
"528 682 LINE",
"413 682 LINE",
"31 0 LINE"
);
},
{
closed = 1;
nodes = (
"648 0 LINE",
"648 682 LINE",
"466 682 LINE",
"466 0 LINE"
);
},
{
closed = 1;
nodes = (
"466 197 LINE",
"466 288 LINE",
"232 288 LINE",
"232 197 LINE"
);
},
{
closed = 1;
nodes = (
"988 0 LINE",
"988 93 LINE",
"648 93 LINE",
"648 0 LINE"
);
},
{
closed = 1;
nodes = (
"826 155 LINE",
"826 307 LINE",
"651 307 LINE",
"718 307 OFFCURVE",
"744 275 OFFCURVE",
"744 203 CURVE SMOOTH",
"744 155 LINE"
);
},
{
closed = 1;
nodes = (
"826 307 LINE",
"826 395 LINE",
"648 395 LINE",
"648 307 LINE"
);
},
{
closed = 1;
nodes = (
"988 93 LINE",
"988 264 LINE",
"898 264 LINE",
"898 202 LINE SMOOTH",
"898 125 OFFCURVE",
"871 93 OFFCURVE",
"798 93 CURVE"
);
},
{
closed = 1;
nodes = (
"826 395 LINE",
"826 532 LINE",
"744 532 LINE",
"744 499 LINE SMOOTH",
"744 426 OFFCURVE",
"718 395 OFFCURVE",
"651 395 CURVE"
);
},
{
closed = 1;
nodes = (
"982 591 LINE",
"982 682 LINE",
"648 682 LINE",
"648 591 LINE"
);
},
{
closed = 1;
nodes = (
"982 427 LINE",
"982 591 LINE",
"792 591 LINE",
"865 591 OFFCURVE",
"892 559 OFFCURVE",
"892 482 CURVE SMOOTH",
"892 427 LINE"
);
}
);
width = 1045;
},
{
anchors = (
{
name = top;
position = "{583, 682}";
}
);
hints = (
{
origin = "{1, 2}";
scale = "{-1.34635, 1}";
type = Corner;
name = _corner.Serif;
},
{
origin = "{1, 3}";
scale = "{1.1, 1}";
type = Corner;
name = _corner.Serif;
options = 1;
},
{
origin = "{0, 0}";
scale = "{-1.314, 1}";
type = Corner;
name = _corner.Serif;
options = 1;
},
{
origin = "{0, 3}";
scale = "{0.7544, 1}";
type = Corner;
name = _corner.Serif;
}
);
layerId = "2B88661E-23DD-4EDA-82FC-C2AEA983F097";
paths = (
{
closed = 1;
nodes = (
"118 0 LINE",
"578 682 LINE",
"549 682 LINE",
"88 0 LINE"
);
},
{
closed = 1;
nodes = (
"587 0 LINE",
"587 682 LINE",
"559 682 LINE",
"559 0 LINE"
);
},
{
closed = 1;
nodes = (
"559 233 LINE",
"559 256 LINE",
"266 256 LINE",
"266 233 LINE"
);
},
{
closed = 1;
nodes = (
"1041 0 LINE",
"1041 23 LINE",
"587 23 LINE",
"587 0 LINE"
);
},
{
closed = 1;
nodes = (
"831 165 LINE",
"831 348 LINE",
"754 348 LINE",
"798 348 OFFCURVE",
"809 337 OFFCURVE",
"809 291 CURVE SMOOTH",
"809 165 LINE"
);
},
{
closed = 1;
nodes = (
"831 348 LINE",
"831 371 LINE",
"587 371 LINE",
"587 348 LINE"
);
},
{
closed = 1;
nodes = (
"1041 23 LINE",
"1041 237 LINE",
"1018 237 LINE",
"1018 84 LINE SMOOTH",
"1018 35 OFFCURVE",
"1005 23 OFFCURVE",
"959 23 CURVE"
);
},
{
closed = 1;
nodes = (
"831 371 LINE",
"831 521 LINE",
"809 521 LINE",
"809 428 LINE SMOOTH",
"809 383 OFFCURVE",
"798 371 OFFCURVE",
"754 371 CURVE"
);
},
{
closed = 1;
nodes = (
"1033 659 LINE",
"1033 682 LINE",
"587 682 LINE",
"587 659 LINE"
);
},
{
closed = 1;
nodes = (
"1033 454 LINE",
"1033 659 LINE",
"950 659 LINE",
"996 659 OFFCURVE",
"1009 646 OFFCURVE",
"1009 598 CURVE SMOOTH",
"1009 454 LINE"
);
}
);
width = 1113;
}
);
leftKerningGroup = AE;
leftMetricsKey = A;
rightKerningGroup = E;
rightMetricsKey = E;
unicode = 00C6;
},
{
color = 8;
glyphname = B;
lastChange = "2021-06-30 11:49:35 +0000";
layers = (
{
anchors = (
{
name = bottom;
position = "{333, 0}";
},
{
name = top;
position = "{333, 682}";
}
);
hints = (
{
origin = "{0, 2}";
scale = "{-1.08, 1}";
type = Corner;
name = _corner.Serif;
},
{
origin = "{0, 3}";
scale = "{1.1, 1}";
type = Corner;
name = _corner.Serif;
options = 1;
}
);
layerId = "1E61A082-F045-49A7-AB52-DD1B03FD9B54";
paths = (
{
closed = 1;
nodes = (
"159 0 LINE",
"159 682 LINE",
"137 682 LINE",
"137 0 LINE"
);
},
{
closed = 1;
nodes = (
"414 0 LINE SMOOTH",
"538 0 OFFCURVE",
"620 60 OFFCURVE",
"620 178 CURVE SMOOTH",
"620 292 OFFCURVE",
"542 350 OFFCURVE",
"414 350 CURVE SMOOTH",
"159 350 LINE",
"159 338 LINE",
"409 338 LINE SMOOTH",
"525 338 OFFCURVE",
"598 283 OFFCURVE",
"598 177 CURVE SMOOTH",
"598 71 OFFCURVE",
"525 17 OFFCURVE",
"409 17 CURVE SMOOTH",
"159 17 LINE",
"159 0 LINE"
);
},
{
closed = 1;
nodes = (
"394 345 LINE SMOOTH",
"519 345 OFFCURVE",
"594 400 OFFCURVE",
"594 510 CURVE SMOOTH",
"594 623 OFFCURVE",
"514 682 OFFCURVE",
"394 682 CURVE SMOOTH",
"159 682 LINE",
"159 665 LINE",
"389 665 LINE SMOOTH",
"501 665 OFFCURVE",
"572 612 OFFCURVE",
"572 510 CURVE SMOOTH",
"572 408 OFFCURVE",
"501 355 OFFCURVE",
"389 355 CURVE SMOOTH",
"159 355 LINE",
"159 345 LINE"
);
}
);
width = 664;
},
{
anchors = (
{
name = bottom;
position = "{381, 0}";
},
{
name = top;
position = "{381, 682}";
}
);
hints = (
{
origin = "{0, 2}";
scale = "{-1.08, 1}";
type = Corner;
name = _corner.Serif;
},
{
origin = "{0, 3}";
scale = "{1.1, 1}";
type = Corner;
name = _corner.Serif;
options = 1;
}
);
layerId = "219068EA-2B9B-40DC-949E-B60449C01B8A";
paths = (
{
closed = 1;
nodes = (
"299 0 LINE",
"299 682 LINE",
"108 682 LINE",
"108 0 LINE"
);
},
{
closed = 1;
nodes = (
"494 0 LINE SMOOTH",
"640 0 OFFCURVE",
"735 58 OFFCURVE",
"735 185 CURVE SMOOTH",
"735 309 OFFCURVE",
"640 360 OFFCURVE",
"494 360 CURVE SMOOTH",
"299 360 LINE",
"299 297 LINE",
"431 297 LINE SMOOTH",
"498 297 OFFCURVE",
"540 263 OFFCURVE",
"540 200 CURVE SMOOTH",
"540 136 OFFCURVE",
"498 102 OFFCURVE",
"431 102 CURVE SMOOTH",
"299 102 LINE",
"299 0 LINE"
);
},
{
closed = 1;
nodes = (
"459 343 LINE SMOOTH",
"601 343 OFFCURVE",
"697 393 OFFCURVE",
"697 508 CURVE SMOOTH",
"697 627 OFFCURVE",
"601 682 OFFCURVE",
"459 682 CURVE SMOOTH",
"299 682 LINE",
"299 580 LINE",
"400 580 LINE SMOOTH",
"464 580 OFFCURVE",
"502 550 OFFCURVE",
"502 489 CURVE SMOOTH",
"502 429 OFFCURVE",
"464 399 OFFCURVE",
"400 399 CURVE SMOOTH",
"299 399 LINE",
"299 343 LINE"
);
}
);
width = 771;
},
{
anchors = (
{
name = bottom;
position = "{362, 0}";
},
{
name = top;
position = "{362, 682}";
}
);
hints = (
{
origin = "{0, 2}";
scale = "{-1.08, 0.98}";
type = Corner;
name = _corner.Serif;
},
{
origin = "{0, 3}";
scale = "{1.1, 1}";
type = Corner;
name = _corner.Serif;
options = 1;
}
);
layerId = "0C29AA02-E021-4BD1-A2C4-87F681D64C35";
paths = (
{
closed = 1;
nodes = (
"295 0 LINE",
"295 682 LINE",
"105 682 LINE",
"105 0 LINE"
);
},
{
closed = 1;
nodes = (
"472 0 LINE SMOOTH",
"619 0 OFFCURVE",
"714 64 OFFCURVE",
"714 191 CURVE SMOOTH",
"714 310 OFFCURVE",
"620 359 OFFCURVE",
"468 359 CURVE SMOOTH",
"295 359 LINE",
"295 303 LINE",
"405 303 LINE SMOOTH",
"475 303 OFFCURVE",
"519 265 OFFCURVE",
"519 198 CURVE SMOOTH",
"519 130 OFFCURVE",
"475 93 OFFCURVE",
"405 93 CURVE SMOOTH",
"295 93 LINE",
"295 0 LINE"
);
},
{
closed = 1;
nodes = (
"456 353 LINE SMOOTH",
"587 353 OFFCURVE",
"676 404 OFFCURVE",
"676 517 CURVE SMOOTH",
"676 630 OFFCURVE",
"581 682 OFFCURVE",
"442 682 CURVE SMOOTH",
"295 682 LINE",
"295 591 LINE",
"380 591 LINE SMOOTH",
"447 591 OFFCURVE",
"488 557 OFFCURVE",
"488 492 CURVE SMOOTH",
"488 428 OFFCURVE",
"447 394 OFFCURVE",
"380 394 CURVE SMOOTH",
"295 394 LINE",
"295 353 LINE"
);
}
);
width = 739;
},
{
anchors = (
{
name = bottom;
position = "{351, 0}";
},
{
name = top;
position = "{351, 682}";
}
);
hints = (
{
origin = "{0, 2}";
scale = "{-1.08, 1}";
type = Corner;
name = _corner.Serif;
},
{
origin = "{0, 3}";
scale = "{1.1, 1}";
type = Corner;
name = _corner.Serif;
options = 1;
}
);
layerId = "2B88661E-23DD-4EDA-82FC-C2AEA983F097";
paths = (
{
closed = 1;
nodes = (
"168 0 LINE",
"168 682 LINE",
"140 682 LINE",
"140 0 LINE"
);
},
{
closed = 1;
nodes = (
"439 0 LINE SMOOTH",
"563 0 OFFCURVE",
"645 60 OFFCURVE",
"645 178 CURVE SMOOTH",
"645 294 OFFCURVE",
"567 353 OFFCURVE",
"439 353 CURVE SMOOTH",
"168 353 LINE",
"168 335 LINE",
"431 335 LINE SMOOTH",
"546 335 OFFCURVE",
"617 282 OFFCURVE",
"617 179 CURVE SMOOTH",
"617 76 OFFCURVE",
"546 23 OFFCURVE",
"431 23 CURVE SMOOTH",
"168 23 LINE",
"168 0 LINE"
);
},
{
closed = 1;
nodes = (
"418 343 LINE SMOOTH",
"544 343 OFFCURVE",
"619 400 OFFCURVE",
"619 510 CURVE SMOOTH",
"619 623 OFFCURVE",
"539 682 OFFCURVE",
"418 682 CURVE SMOOTH",
"168 682 LINE",
"168 659 LINE",
"411 659 LINE SMOOTH",
"522 659 OFFCURVE",
"591 608 OFFCURVE",
"591 509 CURVE SMOOTH",
"591 410 OFFCURVE",
"522 358 OFFCURVE",
"411 358 CURVE SMOOTH",
"168 358 LINE",
"168 343 LINE"
);
}
);
width = 703;
}
);
leftKerningGroup = I;
leftMetricsKey = H;
rightKerningGroup = B;
unicode = 0042;
},
{
color = 8;
glyphname = C;
lastChange = "2021-06-30 11:45:32 +0000";
layers = (
{
anchors = (
{
name = bottom;
position = "{360, 0}";
},
{
name = top;
position = "{379, 682}";
}
);
layerId = "1E61A082-F045-49A7-AB52-DD1B03FD9B54";
paths = (
{
closed = 1;
nodes = (
"556 -14 OFFCURVE",
"654 118 OFFCURVE",
"657 267 CURVE",
"639 267 LINE",
"634 125 OFFCURVE",
"544 4 OFFCURVE",
"373 4 CURVE SMOOTH",
"205 4 OFFCURVE",
"76 135 OFFCURVE",
"76 341 CURVE SMOOTH",
"76 545 OFFCURVE",
"203 677 OFFCURVE",
"368 677 CURVE SMOOTH",
"544 677 OFFCURVE",
"623 556 OFFCURVE",
"633 427 CURVE",
"645 427 LINE",
"640 585 OFFCURVE",
"539 694 OFFCURVE",
"368 694 CURVE SMOOTH",
"191 694 OFFCURVE",
"54 564 OFFCURVE",
"54 341 CURVE SMOOTH",
"54 117 OFFCURVE",
"193 -14 OFFCURVE",
"373 -14 CURVE SMOOTH"
);
},
{
closed = 1;
nodes = (
"653 427 LINE",
"653 682 LINE",
"635 682 LINE",
"635 452 LINE",
"645 427 LINE"
);
}
);
width = 725;
},
{
anchors = (
{
name = bottom;
position = "{389, 0}";
},
{
name = top;
position = "{403, 682}";
}
);
layerId = "219068EA-2B9B-40DC-949E-B60449C01B8A";
paths = (
{
closed = 1;
nodes = (
"634 -17 OFFCURVE",
"730 120 OFFCURVE",
"738 274 CURVE",
"628 274 LINE",
"616 190 OFFCURVE",
"561 125 OFFCURVE",
"449 125 CURVE SMOOTH",
"325 125 OFFCURVE",
"245 215 OFFCURVE",
"245 358 CURVE SMOOTH",
"245 497 OFFCURVE",
"317 588 OFFCURVE",
"443 588 CURVE SMOOTH",
"558 588 OFFCURVE",
"606 511 OFFCURVE",
"616 447 CURVE",
"680 447 LINE",
"676 601 OFFCURVE",
"568 699 OFFCURVE",
"391 699 CURVE SMOOTH",
"180 699 OFFCURVE",
"37 566 OFFCURVE",
"37 341 CURVE SMOOTH",
"37 115 OFFCURVE",
"180 -17 OFFCURVE",
"406 -17 CURVE SMOOTH"
);
},
{
closed = 1;
nodes = (
"730 447 LINE",
"730 682 LINE",
"619 682 LINE",
"619 529 LINE",
"680 447 LINE"
);
}
);
width = 780;
},
{
anchors = (
{
name = bottom;
position = "{371, 0}";
},
{
name = top;
position = "{380, 682}";
}
);
layerId = "0C29AA02-E021-4BD1-A2C4-87F681D64C35";
paths = (
{
closed = 1;
nodes = (
"593 -15 OFFCURVE",
"693 125 OFFCURVE",
"699 301 CURVE",
"613 301 LINE",
"601 196 OFFCURVE",
"547 115 OFFCURVE",
"432 115 CURVE SMOOTH",
"314 115 OFFCURVE",
"238 212 OFFCURVE",
"238 355 CURVE SMOOTH",
"238 505 OFFCURVE",
"312 604 OFFCURVE",
"432 604 CURVE SMOOTH",
"550 604 OFFCURVE",
"599 516 OFFCURVE",
"605 416 CURVE",
"649 416 LINE",
"648 590 OFFCURVE",
"561 696 OFFCURVE",
"370 696 CURVE SMOOTH",
"171 696 OFFCURVE",
"34 565 OFFCURVE",
"34 341 CURVE SMOOTH",
"34 116 OFFCURVE",
"171 -15 OFFCURVE",
"384 -15 CURVE SMOOTH"
);
},
{
closed = 1;
nodes = (
"693 416 LINE",
"693 682 LINE",
"595 682 LINE",
"595 529 LINE",
"649 416 LINE"
);
}
);
width = 741;
},
{
anchors = (
{
name = bottom;
position = "{392, 0}";
},
{
name = top;
position = "{409, 682}";
}
);
layerId = "2B88661E-23DD-4EDA-82FC-C2AEA983F097";
paths = (
{
closed = 1;
nodes = (
"606 -15 OFFCURVE",
"708 105 OFFCURVE",
"713 250 CURVE",
"690 250 LINE",
"684 120 OFFCURVE",
"588 10 OFFCURVE",
"406 10 CURVE SMOOTH",
"228 10 OFFCURVE",
"90 135 OFFCURVE",
"90 341 CURVE SMOOTH",
"90 546 OFFCURVE",
"227 674 OFFCURVE",
"404 674 CURVE SMOOTH",
"590 674 OFFCURVE",
"675 563 OFFCURVE",
"685 445 CURVE",
"700 445 LINE",
"696 595 OFFCURVE",
"590 697 OFFCURVE",
"402 697 CURVE SMOOTH",
"211 697 OFFCURVE",
"62 565 OFFCURVE",
"62 341 CURVE SMOOTH",
"62 115 OFFCURVE",
"211 -15 OFFCURVE",
"405 -15 CURVE SMOOTH"
);
},
{
closed = 1;
nodes = (
"708 445 LINE",
"708 682 LINE",
"685 682 LINE",
"685 481 LINE",
"700 445 LINE"
);
}
);
width = 784;
}
);
leftKerningGroup = O;
leftMetricsKey = O;
rightKerningGroup = C;
unicode = 0043;
},
{
color = 8;
glyphname = D;
lastChange = "2021-06-30 11:45:11 +0000";
layers = (
{
anchors = (
{
name = bottom;
position = "{340, 0}";
},
{
name = stroke;
position = "{137, 341}";
},
{
name = top;
position = "{340, 682}";
}
);
hints = (
{
origin = "{1, 2}";
scale = "{-1.08, 1}";
type = Corner;
name = _corner.Serif;
},
{
origin = "{1, 3}";
scale = "{1.1, 1}";
type = Corner;
name = _corner.Serif;
options = 1;
}
);
layerId = "1E61A082-F045-49A7-AB52-DD1B03FD9B54";
paths = (
{
closed = 1;
nodes = (
"317 0 LINE SMOOTH",
"527 0 OFFCURVE",
"665 125 OFFCURVE",
"665 341 CURVE SMOOTH",
"665 557 OFFCURVE",
"527 682 OFFCURVE",
"317 682 CURVE SMOOTH",
"159 682 LINE",
"159 665 LINE",
"317 665 LINE SMOOTH",
"514 665 OFFCURVE",
"643 539 OFFCURVE",
"643 341 CURVE SMOOTH",
"643 143 OFFCURVE",
"514 17 OFFCURVE",
"317 17 CURVE SMOOTH",
"159 17 LINE",
"159 0 LINE"
);
},
{
closed = 1;
nodes = (
"159 0 LINE",
"159 682 LINE",
"137 682 LINE",
"137 0 LINE"
);
}
);
width = 719;
},
{
anchors = (
{
name = bottom;
position = "{384, 0}";
},
{
name = stroke;
position = "{108, 341}";
},
{
name = top;
position = "{384, 682}";
}
);
hints = (
{
origin = "{1, 2}";
scale = "{-1.08, 1}";
type = Corner;
name = _corner.Serif;
},
{
origin = "{1, 3}";
scale = "{1.1, 1}";
type = Corner;
name = _corner.Serif;
options = 1;
}
);
layerId = "219068EA-2B9B-40DC-949E-B60449C01B8A";
paths = (
{
closed = 1;
nodes = (
"397 0 LINE SMOOTH",
"630 0 OFFCURVE",
"786 123 OFFCURVE",
"786 341 CURVE SMOOTH",
"786 559 OFFCURVE",
"630 682 OFFCURVE",
"397 682 CURVE SMOOTH",
"299 682 LINE",
"299 582 LINE",
"378 582 LINE SMOOTH",
"497 582 OFFCURVE",
"579 489 OFFCURVE",
"579 341 CURVE SMOOTH",
"579 194 OFFCURVE",
"497 102 OFFCURVE",
"378 102 CURVE SMOOTH",
"299 102 LINE",
"299 0 LINE"
);
},
{
closed = 1;
nodes = (
"299 0 LINE",
"299 682 LINE",
"108 682 LINE",
"108 0 LINE"
);
}
);
width = 823;
},
{
anchors = (
{
name = bottom;
position = "{360, 0}";
},
{
name = stroke;
position = "{105, 341}";
},
{
name = top;
position = "{360, 682}";
}
);
hints = (
{
origin = "{1, 2}";
scale = "{-1.08, 0.98}";
type = Corner;
name = _corner.Serif;
},
{
origin = "{1, 3}";
scale = "{1.1, 1}";
type = Corner;
name = _corner.Serif;
options = 1;
}
);
layerId = "0C29AA02-E021-4BD1-A2C4-87F681D64C35";
paths = (
{
closed = 1;
nodes = (
"375 0 LINE SMOOTH",
"598 0 OFFCURVE",
"746 123 OFFCURVE",
"746 341 CURVE SMOOTH",
"746 559 OFFCURVE",
"598 682 OFFCURVE",
"375 682 CURVE SMOOTH",
"295 682 LINE",
"295 591 LINE",
"356 591 LINE SMOOTH",
"465 591 OFFCURVE",
"540 495 OFFCURVE",
"540 341 CURVE SMOOTH",
"540 188 OFFCURVE",
"465 93 OFFCURVE",
"356 93 CURVE SMOOTH",
"295 93 LINE",
"295 0 LINE"
);
},
{
closed = 1;
nodes = (
"295 0 LINE",
"295 682 LINE",
"105 682 LINE",
"105 0 LINE"
);
}
);
width = 780;
},
{
anchors = (
{
name = bottom;
position = "{360, 0}";
},
{
name = stroke;
position = "{140, 341}";
},
{
name = top;
position = "{360, 682}";
}
);
hints = (
{
origin = "{1, 2}";
scale = "{-1.08, 1}";
type = Corner;
name = _corner.Serif;
},
{
origin = "{1, 3}";
scale = "{1.1, 1}";
type = Corner;
name = _corner.Serif;
options = 1;
}
);
layerId = "2B88661E-23DD-4EDA-82FC-C2AEA983F097";
paths = (
{
closed = 1;
nodes = (
"346 0 LINE SMOOTH",
"562 0 OFFCURVE",
"705 125 OFFCURVE",
"705 341 CURVE SMOOTH",
"705 557 OFFCURVE",
"562 682 OFFCURVE",
"346 682 CURVE SMOOTH",
"168 682 LINE",
"168 659 LINE",
"345 659 LINE SMOOTH",
"545 659 OFFCURVE",
"677 535 OFFCURVE",
"677 341 CURVE SMOOTH",
"677 147 OFFCURVE",
"545 23 OFFCURVE",
"345 23 CURVE SMOOTH",
"168 23 LINE",
"168 0 LINE"
);
},
{
closed = 1;
nodes = (
"168 0 LINE",
"168 682 LINE",
"140 682 LINE",
"140 0 LINE"
);
}
);
width = 766;
}
);
leftKerningGroup = I;
leftMetricsKey = H;
rightKerningGroup = O;
rightMetricsKey = O;
unicode = 0044;
},
{
color = 8;
glyphname = E;
lastChange = "2021-06-30 11:47:04 +0000";
layers = (
{
anchors = (
{
name = bottom;
position = "{340, 0}";
},
{
name = ogonek;
position = "{606, 0}";
},
{
name = top;
position = "{349, 682}";
}
);
hints = (
{
origin = "{0, 2}";
scale = "{-1.08, 1}";
type = Corner;
name = _corner.Serif;
},
{
origin = "{0, 3}";
scale = "{1.1, 1}";
type = Corner;
name = _corner.Serif;
options = 1;
}
);
layerId = "1E61A082-F045-49A7-AB52-DD1B03FD9B54";
paths = (
{
closed = 1;
nodes = (
"159 0 LINE",
"159 682 LINE",
"137 682 LINE",
"137 0 LINE"
);
},
{
closed = 1;
nodes = (
"606 0 LINE",
"606 17 LINE",
"159 17 LINE",
"159 0 LINE"
);
},
{
closed = 1;
nodes = (
"418 140 LINE",
"418 351 LINE",
"347 351 LINE",
"390 351 OFFCURVE",
"400 340 OFFCURVE",
"400 295 CURVE SMOOTH",
"400 140 LINE"
);
},
{
closed = 1;
nodes = (
"418 351 LINE",
"418 368 LINE",
"159 368 LINE",
"159 351 LINE"
);
},
{
closed = 1;
nodes = (
"606 17 LINE",
"606 264 LINE",
"588 264 LINE",
"588 76 LINE SMOOTH",
"588 29 OFFCURVE",
"576 17 OFFCURVE",
"530 17 CURVE"
);
},
{
closed = 1;
nodes = (
"418 368 LINE",
"418 546 LINE",
"400 546 LINE",
"400 424 LINE SMOOTH",
"400 379 OFFCURVE",
"390 368 OFFCURVE",
"347 368 CURVE"
);
},
{
closed = 1;
nodes = (
"598 665 LINE",
"598 682 LINE",
"159 682 LINE",
"159 665 LINE"
);
},
{
closed = 1;
nodes = (
"598 427 LINE",
"598 665 LINE",
"522 665 LINE",
"568 665 OFFCURVE",
"580 653 OFFCURVE",
"580 605 CURVE SMOOTH",
"580 427 LINE"
);
}
);
width = 675;
},
{
anchors = (
{
name = bottom;
position = "{370, 0}";
},
{
name = ogonek;
position = "{691, 0}";
},
{
name = top;
position = "{380, 682}";
}
);
hints = (
{
origin = "{0, 2}";
scale = "{-1.08, 1}";
type = Corner;
name = _corner.Serif;
},
{
origin = "{0, 3}";
scale = "{1.1, 1}";
type = Corner;
name = _corner.Serif;
options = 1;
}
);
layerId = "219068EA-2B9B-40DC-949E-B60449C01B8A";
paths = (
{
closed = 1;
nodes = (
"299 0 LINE",
"299 682 LINE",
"108 682 LINE",
"108 0 LINE"
);
},
{
closed = 1;
nodes = (
"691 0 LINE",
"691 102 LINE",
"299 102 LINE",
"299 0 LINE"
);
},
{
closed = 1;
nodes = (
"501 165 LINE",
"501 303 LINE",
"312 303 LINE",
"375 303 OFFCURVE",
"403 270 OFFCURVE",
"403 196 CURVE SMOOTH",
"403 165 LINE"
);
},
{
closed = 1;
nodes = (
"501 303 LINE",
"501 399 LINE",
"299 399 LINE",
"299 303 LINE"
);
},
{
closed = 1;
nodes = (
"691 102 LINE",
"691 255 LINE",
"586 255 LINE",
"586 211 LINE SMOOTH",
"586 134 OFFCURVE",
"559 102 OFFCURVE",
"486 102 CURVE"
);
},
{
closed = 1;
nodes = (
"501 399 LINE",
"501 516 LINE",
"403 516 LINE",
"403 505 LINE SMOOTH",
"403 431 OFFCURVE",
"375 399 OFFCURVE",
"312 399 CURVE"
);
},
{
closed = 1;
nodes = (
"683 583 LINE",
"683 682 LINE",
"299 682 LINE",
"299 583 LINE"
);
},
{
closed = 1;
nodes = (
"683 436 LINE",
"683 583 LINE",
"478 583 LINE",
"550 583 OFFCURVE",
"578 550 OFFCURVE",
"578 471 CURVE SMOOTH",
"578 436 LINE"
);
}
);
width = 757;
},
{
anchors = (
{
name = bottom;
position = "{345, 0}";
},
{
name = ogonek;
position = "{650, 0}";
},
{
name = top;
position = "{358, 682}";
}
);
hints = (
{
origin = "{0, 2}";
scale = "{-1.08, 0.98}";
type = Corner;
name = _corner.Serif;
},
{
origin = "{0, 3}";
scale = "{1.1, 1}";
type = Corner;
name = _corner.Serif;
options = 1;
}
);
layerId = "0C29AA02-E021-4BD1-A2C4-87F681D64C35";
paths = (
{
closed = 1;
nodes = (
"295 0 LINE",
"295 682 LINE",
"105 682 LINE",
"105 0 LINE"
);
},
{
closed = 1;
nodes = (
"650 0 LINE",
"650 93 LINE",
"295 93 LINE",
"295 0 LINE"
);
},
{
closed = 1;
nodes = (
"488 155 LINE",
"488 307 LINE",
"310 307 LINE",
"379 307 OFFCURVE",
"406 275 OFFCURVE",
"406 203 CURVE SMOOTH",
"406 155 LINE"
);
},
{
closed = 1;
nodes = (
"488 307 LINE",
"488 395 LINE",
"295 395 LINE",
"295 307 LINE"
);
},
{
closed = 1;
nodes = (
"650 93 LINE",
"650 264 LINE",
"560 264 LINE",
"560 202 LINE SMOOTH",
"560 125 OFFCURVE",
"533 93 OFFCURVE",
"460 93 CURVE"
);
},
{
closed = 1;
nodes = (
"488 395 LINE",
"488 532 LINE",
"406 532 LINE",
"406 499 LINE SMOOTH",
"406 426 OFFCURVE",
"379 395 OFFCURVE",
"310 395 CURVE"
);
},
{
closed = 1;
nodes = (
"644 591 LINE",
"644 682 LINE",
"295 682 LINE",
"295 591 LINE"
);
},
{
closed = 1;
nodes = (
"644 427 LINE",
"644 591 LINE",
"454 591 LINE",
"526 591 OFFCURVE",
"554 559 OFFCURVE",
"554 482 CURVE SMOOTH",
"554 427 LINE"
);
}
);
width = 707;
},
{
anchors = (
{
name = bottom;
position = "{351, 0}";
},
{
name = ogonek;
position = "{640, 0}";
},
{
name = top;
position = "{367, 682}";
}
);
hints = (
{
origin = "{0, 2}";
scale = "{-1.08, 1}";
type = Corner;
name = _corner.Serif;
},
{
origin = "{0, 3}";
scale = "{1.1, 1}";
type = Corner;
name = _corner.Serif;
options = 1;
}
);
layerId = "2B88661E-23DD-4EDA-82FC-C2AEA983F097";
paths = (
{
closed = 1;
nodes = (
"168 0 LINE",
"168 682 LINE",
"140 682 LINE",
"140 0 LINE"
);
},
{
closed = 1;
nodes = (
"640 0 LINE",
"640 23 LINE",
"168 23 LINE",
"168 0 LINE"
);
},
{
closed = 1;
nodes = (
"425 165 LINE",
"425 348 LINE",
"348 348 LINE",
"392 348 OFFCURVE",
"403 337 OFFCURVE",
"403 291 CURVE SMOOTH",
"403 165 LINE"
);
},
{
closed = 1;
nodes = (
"425 348 LINE",
"425 371 LINE",
"168 371 LINE",
"168 348 LINE"
);
},
{
closed = 1;
nodes = (
"640 23 LINE",
"640 237 LINE",
"617 237 LINE",
"617 84 LINE SMOOTH",
"617 35 OFFCURVE",
"604 23 OFFCURVE",
"558 23 CURVE"
);
},
{
closed = 1;
nodes = (
"425 371 LINE",
"425 521 LINE",
"403 521 LINE",
"403 428 LINE SMOOTH",
"403 383 OFFCURVE",
"392 371 OFFCURVE",
"348 371 CURVE"
);
},
{
closed = 1;
nodes = (
"631 659 LINE",
"631 682 LINE",
"168 682 LINE",
"168 659 LINE"
);
},
{
closed = 1;
nodes = (
"631 454 LINE",
"631 659 LINE",
"549 659 LINE",
"595 659 OFFCURVE",
"608 646 OFFCURVE",
"608 598 CURVE SMOOTH",
"608 454 LINE"
);
}
);
width = 712;
}
);
leftKerningGroup = I;
leftMetricsKey = H;
rightKerningGroup = E;
unicode = 0045;
},
{
color = 8;
glyphname = F;
lastChange = "2021-06-30 11:47:45 +0000";
layers = (
{
hints = (
{
origin = "{0, 3}";
scale = "{1.1, 1}";
type = Corner;
name = _corner.Serif;
options = 1;
},
{
origin = "{0, 0}";
scale = "{-1.9, 1}";
type = Corner;
name = _corner.Serif;
},
{
origin = "{0, 2}";
scale = "{-1.08, 1}";
type = Corner;
name = _corner.Serif;
}
);
layerId = "1E61A082-F045-49A7-AB52-DD1B03FD9B54";
paths = (
{
closed = 1;
nodes = (
"159 0 LINE",
"159 682 LINE",
"137 682 LINE",
"137 0 LINE"
);
},
{
closed = 1;
nodes = (
"577 665 LINE",
"577 682 LINE",
"159 682 LINE",
"159 665 LINE"
);
},
{
closed = 1;
nodes = (
"413 342 LINE",
"413 359 LINE",
"159 359 LINE",
"159 342 LINE"
);
},
{
closed = 1;
nodes = (
"577 427 LINE",
"577 665 LINE",
"501 665 LINE",
"547 665 OFFCURVE",
"559 653 OFFCURVE",
"559 605 CURVE SMOOTH",
"559 427 LINE"
);
},
{
closed = 1;
nodes = (
"413 359 LINE",
"413 546 LINE",
"396 546 LINE",
"396 415 LINE SMOOTH",
"396 370 OFFCURVE",
"385 359 OFFCURVE",
"342 359 CURVE"
);
},
{
closed = 1;
nodes = (
"413 150 LINE",
"413 342 LINE",
"342 342 LINE",
"385 342 OFFCURVE",
"396 331 OFFCURVE",
"396 286 CURVE SMOOTH",
"396 150 LINE"
);
}
);
width = 629;
},
{
hints = (
{
origin = "{0, 3}";
type = Corner;
name = _corner.Serif;
options = 1;
},
{
origin = "{0, 0}";
scale = "{-1.4, 1}";
type = Corner;
name = _corner.Serif;
},
{
origin = "{0, 2}";
scale = "{-0.96, 0.98467}";
type = Corner;
name = _corner.Serif;
}
);
layerId = "219068EA-2B9B-40DC-949E-B60449C01B8A";
paths = (
{
closed = 1;
nodes = (
"292 0 LINE",
"292 682 LINE",
"101 682 LINE",
"101 0 LINE"
);
},
{
closed = 1;
nodes = (
"684 583 LINE",
"684 682 LINE",
"292 682 LINE",
"292 583 LINE"
);
},
{
closed = 1;
nodes = (
"501 298 LINE",
"501 395 LINE",
"292 395 LINE",
"292 298 LINE"
);
},
{
closed = 1;
nodes = (
"684 427 LINE",
"684 583 LINE",
"478 583 LINE",
"551 583 OFFCURVE",
"578 550 OFFCURVE",
"578 471 CURVE SMOOTH",
"578 427 LINE"
);
},
{
closed = 1;
nodes = (
"501 395 LINE",
"501 516 LINE",
"403 516 LINE",
"403 501 LINE SMOOTH",
"403 427 OFFCURVE",
"375 395 OFFCURVE",
"305 395 CURVE"
);
},
{
closed = 1;
nodes = (
"501 156 LINE",
"501 298 LINE",
"305 298 LINE",
"375 298 OFFCURVE",
"403 266 OFFCURVE",
"403 192 CURVE SMOOTH",
"403 156 LINE"
);
}
);
width = 725;
},
{
hints = (
{
origin = "{0, 3}";
type = Corner;
name = _corner.Serif;
options = 1;
},
{
origin = "{0, 0}";
scale = "{-2, 1}";
type = Corner;
name = _corner.Serif;
},
{
origin = "{0, 2}";
scale = "{-0.96, 0.98}";
type = Corner;
name = _corner.Serif;
}
);
layerId = "0C29AA02-E021-4BD1-A2C4-87F681D64C35";
paths = (
{
closed = 1;
nodes = (
"289 0 LINE",
"289 682 LINE",
"98 682 LINE",
"98 0 LINE"
);
},
{
closed = 1;
nodes = (
"631 591 LINE",
"631 682 LINE",
"289 682 LINE",
"289 591 LINE"
);
},
{
closed = 1;
nodes = (
"479 303 LINE",
"479 390 LINE",
"289 390 LINE",
"289 303 LINE"
);
},
{
closed = 1;
nodes = (
"631 418 LINE",
"631 591 LINE",
"441 591 LINE",
"514 591 OFFCURVE",
"541 559 OFFCURVE",
"541 482 CURVE SMOOTH",
"541 418 LINE"
);
},
{
closed = 1;
nodes = (
"479 390 LINE",
"479 530 LINE",
"397 530 LINE",
"397 495 LINE SMOOTH",
"397 422 OFFCURVE",
"370 390 OFFCURVE",
"301 390 CURVE"
);
},
{
closed = 1;
nodes = (
"479 147 LINE",
"479 303 LINE",
"301 303 LINE",
"370 303 OFFCURVE",
"397 271 OFFCURVE",
"397 198 CURVE SMOOTH",
"397 147 LINE"
);
}
);
width = 669;
},
{
hints = (
{
origin = "{0, 3}";
scale = "{1.0965, 1}";
type = Corner;
name = _corner.Serif;
options = 1;
},
{
origin = "{0, 0}";
scale = "{-1.593, 1}";
type = Corner;
name = _corner.Serif;
},
{
origin = "{0, 2}";
scale = "{-1.0758, 0.99946}";
type = Corner;
name = _corner.Serif;
}
);
layerId = "2B88661E-23DD-4EDA-82FC-C2AEA983F097";
paths = (
{
closed = 1;
nodes = (
"167 0 LINE",
"167 682 LINE",
"139 682 LINE",
"139 0 LINE"
);
},
{
closed = 1;
nodes = (
"610 659 LINE",
"610 682 LINE",
"167 682 LINE",
"167 659 LINE"
);
},
{
closed = 1;
nodes = (
"419 340 LINE",
"419 363 LINE",
"167 363 LINE",
"167 340 LINE"
);
},
{
closed = 1;
nodes = (
"610 454 LINE",
"610 659 LINE",
"529 659 LINE",
"575 659 OFFCURVE",
"587 646 OFFCURVE",
"587 598 CURVE SMOOTH",
"587 454 LINE"
);
},
{
closed = 1;
nodes = (
"419 363 LINE",
"419 521 LINE",
"397 521 LINE",
"397 421 LINE SMOOTH",
"397 375 OFFCURVE",
"385 363 OFFCURVE",
"342 363 CURVE"
);
},
{
closed = 1;
nodes = (
"419 175 LINE",
"419 340 LINE",
"342 340 LINE",
"385 340 OFFCURVE",
"397 328 OFFCURVE",
"397 282 CURVE SMOOTH",
"397 175 LINE"
);
}
);
width = 665;
}
);
leftKerningGroup = I;
leftMetricsKey = H;
rightKerningGroup = F;
unicode = 0046;
},
{
color = 8;
glyphname = G;
lastChange = "2021-06-30 11:45:45 +0000";
layers = (
{
anchors = (
{
name = bottom;
position = "{384, 0}";
},
{
name = top;
position = "{379, 682}";
}
);
layerId = "1E61A082-F045-49A7-AB52-DD1B03FD9B54";
paths = (
{
closed = 1;
nodes = (
"563 -13 OFFCURVE",
"653 121 OFFCURVE",
"653 301 CURVE",
"640 301 LINE",
"640 140 OFFCURVE",
"554 4 OFFCURVE",
"378 4 CURVE SMOOTH",
"205 4 OFFCURVE",
"76 136 OFFCURVE",
"76 341 CURVE SMOOTH",
"76 545 OFFCURVE",
"203 678 OFFCURVE",
"371 678 CURVE SMOOTH",
"537 678 OFFCURVE",
"614 575 OFFCURVE",
"624 445 CURVE",
"636 445 LINE",
"633 600 OFFCURVE",
"534 695 OFFCURVE",
"371 695 CURVE SMOOTH",
"190 695 OFFCURVE",
"54 565 OFFCURVE",
"54 341 CURVE SMOOTH",
"54 117 OFFCURVE",
"193 -13 OFFCURVE",
"378 -13 CURVE SMOOTH"
);
},
{
closed = 1;
nodes = (
"658 0 LINE",
"658 301 LINE",
"653 301 LINE",
"640 229 LINE",
"640 0 LINE"
);
},
{
closed = 1;
nodes = (
"763 301 LINE",
"763 318 LINE",
"326 318 LINE",
"326 301 LINE"
);
},
{
closed = 1;
nodes = (
"644 445 LINE",
"644 682 LINE",
"626 682 LINE",
"626 470 LINE",
"636 445 LINE"
);
}
);
width = 773;
},
{
anchors = (
{
name = bottom;
position = "{422, 0}";
},
{
name = top;
position = "{394, 682}";
}
);
layerId = "219068EA-2B9B-40DC-949E-B60449C01B8A";
paths = (
{
closed = 1;
nodes = (
"596 -16 OFFCURVE",
"671 100 OFFCURVE",
"674 253 CURVE",
"632 253 LINE",
"620 174 OFFCURVE",
"569 110 OFFCURVE",
"451 110 CURVE SMOOTH",
"326 110 OFFCURVE",
"251 205 OFFCURVE",
"251 349 CURVE SMOOTH",
"251 497 OFFCURVE",
"324 588 OFFCURVE",
"448 588 CURVE SMOOTH",
"558 588 OFFCURVE",
"602 518 OFFCURVE",
"610 452 CURVE",
"666 452 LINE",
"656 604 OFFCURVE",
"566 699 OFFCURVE",
"388 699 CURVE SMOOTH",
"183 699 OFFCURVE",
"37 570 OFFCURVE",
"37 341 CURVE SMOOTH",
"37 113 OFFCURVE",
"183 -16 OFFCURVE",
"392 -16 CURVE SMOOTH"
);
},
{
closed = 1;
nodes = (
"748 0 LINE",
"748 253 LINE",
"674 253 LINE",
"638 173 LINE",
"638 0 LINE"
);
},
{
closed = 1;
nodes = (
"821 253 LINE",
"821 355 LINE",
"461 355 LINE",
"461 253 LINE"
);
},
{
closed = 1;
nodes = (
"724 452 LINE",
"724 682 LINE",
"613 682 LINE",
"613 529 LINE",
"666 452 LINE"
);
}
);
width = 842;
},
{
anchors = (
{
name = bottom;
position = "{398, 0}";
},
{
name = top;
position = "{385, 682}";
}
);
layerId = "0C29AA02-E021-4BD1-A2C4-87F681D64C35";
paths = (
{
closed = 1;
nodes = (
"580 -15 OFFCURVE",
"650 108 OFFCURVE",
"652 268 CURVE",
"617 268 LINE",
"610 169 OFFCURVE",
"554 92 OFFCURVE",
"438 92 CURVE SMOOTH",
"318 92 OFFCURVE",
"246 189 OFFCURVE",
"246 341 CURVE SMOOTH",
"246 495 OFFCURVE",
"317 595 OFFCURVE",
"433 595 CURVE SMOOTH",
"543 595 OFFCURVE",
"587 515 OFFCURVE",
"593 425 CURVE",
"630 425 LINE",
"628 594 OFFCURVE",
"551 696 OFFCURVE",
"370 696 CURVE SMOOTH",
"182 696 OFFCURVE",
"34 565 OFFCURVE",
"34 341 CURVE SMOOTH",
"34 116 OFFCURVE",
"182 -15 OFFCURVE",
"379 -15 CURVE SMOOTH"
);
},
{
closed = 1;
nodes = (
"713 0 LINE",
"713 268 LINE",
"652 268 LINE",
"614 167 LINE",
"614 0 LINE"
);
},
{
closed = 1;
nodes = (
"793 268 LINE",
"793 360 LINE",
"416 360 LINE",
"416 268 LINE"
);
},
{
closed = 1;
nodes = (
"686 425 LINE",
"686 682 LINE",
"588 682 LINE",
"588 529 LINE",
"630 425 LINE"
);
}
);
width = 801;
},
{
anchors = (
{
name = bottom;
position = "{410, 0}";
},
{
name = top;
position = "{409, 682}";
}
);
layerId = "2B88661E-23DD-4EDA-82FC-C2AEA983F097";
paths = (
{
closed = 1;
nodes = (
"613 -15 OFFCURVE",
"710 121 OFFCURVE",
"707 306 CURVE",
"690 306 LINE",
"690 148 OFFCURVE",
"599 8 OFFCURVE",
"411 8 CURVE SMOOTH",
"228 8 OFFCURVE",
"90 136 OFFCURVE",
"90 341 CURVE SMOOTH",
"90 547 OFFCURVE",
"228 674 OFFCURVE",
"409 674 CURVE SMOOTH",
"582 674 OFFCURVE",
"661 580 OFFCURVE",
"671 463 CURVE",
"687 463 LINE",
"684 609 OFFCURVE",
"580 697 OFFCURVE",
"406 697 CURVE SMOOTH",
"211 697 OFFCURVE",
"62 566 OFFCURVE",
"62 341 CURVE SMOOTH",
"62 116 OFFCURVE",
"211 -15 OFFCURVE",
"410 -15 CURVE SMOOTH"
);
},
{
closed = 1;
nodes = (
"714 0 LINE",
"714 306 LINE",
"707 306 LINE",
"691 222 LINE",
"691 0 LINE"
);
},
{
closed = 1;
nodes = (
"817 306 LINE",
"817 329 LINE",
"410 329 LINE",
"410 306 LINE"
);
},
{
closed = 1;
nodes = (
"695 463 LINE",
"695 682 LINE",
"672 682 LINE",
"672 503 LINE",
"687 463 LINE"
);
}
);
width = 820;
}
);
leftKerningGroup = O;
leftMetricsKey = O;
rightKerningGroup = G;
unicode = 0047;
},
{
color = 8;
glyphname = H;
lastChange = "2021-06-30 11:46:44 +0000";
layers = (
{
anchors = (
{
name = bottom;
position = "{383, 0}";
},
{
name = center;
position = "{383, 341}";
},
{
name = top;
position = "{383, 682}";
},
{
name = topleft;
position = "{10, 682}";
}
);
hints = (
{
origin = "{0, 1}";
scale = "{1.18, 1}";
type = Corner;
name = _corner.Serif;
},
{
origin = "{0, 2}";
scale = "{-1.08, 1}";
type = Corner;
name = _corner.Serif;
},
{
origin = "{0, 3}";
scale = "{1.1, 1}";
type = Corner;
name = _corner.Serif;
options = 1;
},
{
origin = "{0, 0}";
scale = "{-1.2, 1}";
type = Corner;
name = _corner.Serif;
},
{
origin = "{1, 1}";
scale = "{1.08, 1}";
type = Corner;
name = _corner.Serif;
},
{
origin = "{1, 2}";
scale = "{-1.18, 1}";
type = Corner;
name = _corner.Serif;
},
{
origin = "{1, 3}";
scale = "{1.2, 1}";
type = Corner;
name = _corner.Serif;
options = 1;
},
{
origin = "{1, 0}";
scale = "{-1.1, 1}";
type = Corner;
name = _corner.Serif;
}
);
layerId = "1E61A082-F045-49A7-AB52-DD1B03FD9B54";
paths = (
{
closed = 1;
nodes = (
"159 0 LINE",
"159 682 LINE",
"137 682 LINE",
"137 0 LINE"
);
},
{
closed = 1;
nodes = (
"629 0 LINE",
"629 682 LINE",
"607 682 LINE",
"607 0 LINE"
);
},
{
closed = 1;
nodes = (
"607 337 LINE",
"607 354 LINE",
"159 354 LINE",
"159 337 LINE"
);
}
);
width = 765;
},
{
anchors = (
{
name = bottom;
position = "{422, 0}";
},
{
name = center;
position = "{422, 341}";
},
{
name = top;
position = "{422, 682}";
},
{
name = topleft;
position = "{14, 682}";
}
);
hints = (
{
origin = "{0, 1}";
scale = "{1.18, 1}";
type = Corner;
name = _corner.Serif;
},
{
origin = "{0, 2}";
scale = "{-1.08, 1}";
type = Corner;
name = _corner.Serif;
},
{
origin = "{0, 3}";
scale = "{1.1, 1}";
type = Corner;
name = _corner.Serif;
options = 1;
},
{
origin = "{0, 0}";
scale = "{-1.18, 1}";
type = Corner;
name = _corner.Serif;
},
{
origin = "{1, 1}";
scale = "{1.08, 1}";
type = Corner;
name = _corner.Serif;
},
{
origin = "{1, 2}";
scale = "{-1.18, 1}";
type = Corner;
name = _corner.Serif;
},
{
origin = "{1, 3}";
scale = "{1.18, 1}";
type = Corner;
name = _corner.Serif;
options = 1;
},
{
origin = "{1, 0}";
scale = "{-1.08, 1}";
type = Corner;
name = _corner.Serif;
}
);
layerId = "219068EA-2B9B-40DC-949E-B60449C01B8A";
paths = (
{
closed = 1;
nodes = (
"299 0 LINE",
"299 682 LINE",
"108 682 LINE",
"108 0 LINE"
);
},
{
closed = 1;
nodes = (
"738 0 LINE",
"738 682 LINE",
"547 682 LINE",
"547 0 LINE"
);
},
{
closed = 1;
nodes = (
"547 295 LINE",
"547 399 LINE",
"299 399 LINE",
"299 295 LINE"
);
}
);
width = 844;
},
{
anchors = (
{
name = bottom;
position = "{403, 0}";
},
{
name = center;
position = "{403, 341}";
},
{
name = top;
position = "{403, 682}";
},
{
name = topleft;
position = "{12, 682}";
}
);
hints = (
{
origin = "{0, 1}";
scale = "{1.18, 0.98}";
type = Corner;
name = _corner.Serif;
},
{
origin = "{0, 2}";
scale = "{-1.08, 0.98}";
type = Corner;
name = _corner.Serif;
},
{
origin = "{0, 3}";
scale = "{1.1, 1}";
type = Corner;
name = _corner.Serif;
options = 1;
},
{
origin = "{0, 0}";
scale = "{-1.18, 1}";
type = Corner;
name = _corner.Serif;
},
{
origin = "{1, 1}";
scale = "{1.08, 0.98}";
type = Corner;
name = _corner.Serif;
},
{
origin = "{1, 2}";
scale = "{-1.18, 0.98}";
type = Corner;
name = _corner.Serif;
},
{
origin = "{1, 3}";
scale = "{1.18, 1}";
type = Corner;
name = _corner.Serif;
options = 1;
},
{
origin = "{1, 0}";
scale = "{-1.08, 1}";
type = Corner;
name = _corner.Serif;
}
);
layerId = "0C29AA02-E021-4BD1-A2C4-87F681D64C35";
paths = (
{
closed = 1;
nodes = (
"295 0 LINE",
"295 682 LINE",
"105 682 LINE",
"105 0 LINE"
);
},
{
closed = 1;
nodes = (
"703 0 LINE",
"703 682 LINE",
"512 682 LINE",
"512 0 LINE"
);
},
{
closed = 1;
nodes = (
"512 300 LINE",
"512 395 LINE",
"295 395 LINE",
"295 300 LINE"
);
}
);
width = 806;
},
{
anchors = (
{
name = bottom;
position = "{400, 0}";
},
{
name = center;
position = "{400, 341}";
},
{
name = top;
position = "{400, 682}";
},
{
name = topleft;
position = "{10, 682}";
}
);
hints = (
{
origin = "{0, 1}";
scale = "{1.18, 1}";
type = Corner;
name = _corner.Serif;
},
{
origin = "{0, 2}";
scale = "{-1.08, 1}";
type = Corner;
name = _corner.Serif;
},
{
origin = "{0, 3}";
scale = "{1.1, 1}";
type = Corner;
name = _corner.Serif;
options = 1;
},
{
origin = "{0, 0}";
scale = "{-1.1993, 1}";
type = Corner;
name = _corner.Serif;
},
{
origin = "{1, 1}";
scale = "{1.08, 1}";
type = Corner;
name = _corner.Serif;
},
{
origin = "{1, 2}";
scale = "{-1.18, 1}";
type = Corner;
name = _corner.Serif;
},
{
origin = "{1, 3}";
scale = "{1.1993, 1}";
type = Corner;
name = _corner.Serif;
options = 1;
},
{
origin = "{1, 0}";
scale = "{-1.0993, 1}";
type = Corner;
name = _corner.Serif;
}
);
layerId = "2B88661E-23DD-4EDA-82FC-C2AEA983F097";
paths = (
{
closed = 1;
nodes = (
"168 0 LINE",
"168 682 LINE",
"140 682 LINE",
"140 0 LINE"
);
},
{
closed = 1;
nodes = (
"659 0 LINE",
"659 682 LINE",
"631 682 LINE",
"631 0 LINE"
);
},
{
closed = 1;
nodes = (
"631 334 LINE",
"631 357 LINE",
"168 357 LINE",
"168 334 LINE"
);
}
);
width = 799;
}
);
leftKerningGroup = I;
rightKerningGroup = I;
unicode = 0048;
},
{
color = 8;
glyphname = I;
lastChange = "2021-06-30 11:46:53 +0000";
layers = (
{
anchors = (
{
name = bottom;
position = "{154, 0}";
},
{
name = ogonek;
position = "{213, 0}";
},
{
name = top;
position = "{154, 682}";
},
{
name = topleft;
position = "{8, 682}";
}
);
hints = (
{
origin = "{0, 2}";
scale = "{-1.18, 1}";
type = Corner;
name = _corner.Serif;
},
{
origin = "{0, 3}";
scale = "{1.2, 1}";
type = Corner;
name = _corner.Serif;
options = 1;
},
{
origin = "{0, 0}";
scale = "{-1.2, 1}";
type = Corner;
name = _corner.Serif;
},
{
origin = "{0, 1}";
scale = "{1.18, 1}";
type = Corner;
name = _corner.Serif;
}
);
layerId = "1E61A082-F045-49A7-AB52-DD1B03FD9B54";
paths = (
{
closed = 1;
nodes = (
"166 0 LINE",
"166 682 LINE",
"144 682 LINE",
"144 0 LINE"
);
}
);
width = 310;
},
{
anchors = (
{
name = bottom;
position = "{204, 0}";
},
{
name = ogonek;
position = "{299, 0}";
},
{
name = top;
position = "{204, 682}";
},
{
name = topleft;
position = "{9, 682}";
}
);
hints = (
{
origin = "{0, 2}";
scale = "{-1.18, 1}";
type = Corner;
name = _corner.Serif;
},
{
origin = "{0, 3}";
scale = "{1.2, 1}";
type = Corner;
name = _corner.Serif;
options = 1;
},
{
origin = "{0, 0}";
scale = "{-1.2, 1}";
type = Corner;
name = _corner.Serif;
},
{
origin = "{0, 1}";
scale = "{1.18, 1}";
type = Corner;
name = _corner.Serif;
}
);
layerId = "219068EA-2B9B-40DC-949E-B60449C01B8A";
paths = (
{
closed = 1;
nodes = (
"299 0 LINE",
"299 682 LINE",
"108 682 LINE",
"108 0 LINE"
);
}
);
width = 407;
},
{
anchors = (
{
name = bottom;
position = "{206, 0}";
},
{
name = ogonek;
position = "{302, 0}";
},
{
name = top;
position = "{206, 682}";
},
{
name = topleft;
position = "{14, 682}";
}
);
hints = (
{
origin = "{0, 2}";
scale = "{-1.18, 0.98}";
type = Corner;
name = _corner.Serif;
},
{
origin = "{0, 3}";
scale = "{1.2, 1}";
type = Corner;
name = _corner.Serif;
options = 1;
},
{
origin = "{0, 0}";
scale = "{-1.2, 1}";
type = Corner;
name = _corner.Serif;
},
{
origin = "{0, 1}";
scale = "{1.18, 0.98}";
type = Corner;
name = _corner.Serif;
}
);
layerId = "0C29AA02-E021-4BD1-A2C4-87F681D64C35";
paths = (
{
closed = 1;
nodes = (
"302 0 LINE",
"302 682 LINE",
"111 682 LINE",
"111 0 LINE"
);
}
);
width = 413;
},
{
anchors = (
{
name = bottom;
position = "{161, 0}";
},
{
name = ogonek;
position = "{221, 0}";
},
{
name = top;
position = "{161, 682}";
},
{
name = topleft;
position = "{9, 682}";
}
);
hints = (
{
origin = "{0, 2}";
scale = "{-1.18, 1}";
type = Corner;
name = _corner.Serif;
},
{
origin = "{0, 3}";
scale = "{1.2, 1}";
type = Corner;
name = _corner.Serif;
options = 1;
},
{
origin = "{0, 0}";
scale = "{-1.2, 1}";
type = Corner;
name = _corner.Serif;
},
{
origin = "{0, 1}";
scale = "{1.18, 1}";
type = Corner;
name = _corner.Serif;
}
);
layerId = "2B88661E-23DD-4EDA-82FC-C2AEA983F097";
paths = (
{
closed = 1;
nodes = (
"176 0 LINE",
"176 682 LINE",
"148 682 LINE",
"148 0 LINE"
);
}
);
width = 324;
}
);
leftKerningGroup = I;
rightKerningGroup = I;
unicode = 0049;
},
{
color = 8;
glyphname = J;
lastChange = "2021-06-30 11:47:00 +0000";
layers = (
{
anchors = (
{
name = bottom;
position = "{272, 0}";
},
{
name = top;
position = "{365, 682}";
}
);
hints = (
{
origin = "{0, 3}";
scale = "{1.08, 1}";
type = Corner;
name = _corner.Serif;
},
{
origin = "{0, 4}";
scale = "{-1.88, 1}";
type = Corner;
name = _corner.Serif;
options = 1;
}
);
layerId = "1E61A082-F045-49A7-AB52-DD1B03FD9B54";
paths = (
{
closed = 1;
nodes = (
"345 -7 OFFCURVE",
"417 56 OFFCURVE",
"417 195 CURVE SMOOTH",
"417 682 LINE",
"395 682 LINE",
"395 194 LINE SMOOTH",
"395 72 OFFCURVE",
"333 11 OFFCURVE",
"231 11 CURVE SMOOTH",
"129 11 OFFCURVE",
"66 72 OFFCURVE",
"66 194 CURVE SMOOTH",
"66 268 LINE",
"48 268 LINE",
"48 192 LINE SMOOTH",
"48 56 OFFCURVE",
"121 -7 OFFCURVE",
"233 -7 CURVE SMOOTH"
);
}
);
width = 538;
},
{
anchors = (
{
name = bottom;
position = "{312, 0}";
},
{
name = top;
position = "{410, 682}";
}
);
hints = (
{
origin = "{0, 4}";
scale = "{-1.38, 1}";
type = Corner;
name = _corner.Serif;
options = 1;
},
{
origin = "{0, 3}";
scale = "{1.08, 1}";
type = Corner;
name = _corner.Serif;
}
);
layerId = "219068EA-2B9B-40DC-949E-B60449C01B8A";
paths = (
{
closed = 1;
nodes = (
"430 -13 OFFCURVE",
"520 65 OFFCURVE",
"520 210 CURVE SMOOTH",
"520 682 LINE",
"329 682 LINE",
"329 226 LINE SMOOTH",
"329 168 OFFCURVE",
"300 126 OFFCURVE",
"232 126 CURVE SMOOTH",
"163 126 OFFCURVE",
"136 169 OFFCURVE",
"136 226 CURVE SMOOTH",
"136 271 LINE",
"31 271 LINE",
"31 210 LINE SMOOTH",
"31 65 OFFCURVE",
"130 -13 OFFCURVE",
"275 -13 CURVE SMOOTH"
);
}
);
width = 616;
},
{
anchors = (
{
name = bottom;
position = "{278, 0}";
},
{
name = top;
position = "{332, 682}";
}
);
hints = (
{
origin = "{0, 3}";
scale = "{1.08, 0.98}";
type = Corner;
name = _corner.Serif;
},
{
origin = "{0, 4}";
scale = "{-1.98, 0.98}";
type = Corner;
name = _corner.Serif;
options = 1;
}
);
layerId = "0C29AA02-E021-4BD1-A2C4-87F681D64C35";
paths = (
{
closed = 1;
nodes = (
"380 -15 OFFCURVE",
"460 57 OFFCURVE",
"460 190 CURVE SMOOTH",
"460 682 LINE",
"269 682 LINE",
"269 190 LINE SMOOTH",
"269 142 OFFCURVE",
"245 108 OFFCURVE",
"190 108 CURVE SMOOTH",
"135 108 OFFCURVE",
"113 143 OFFCURVE",
"113 190 CURVE SMOOTH",
"113 271 LINE",
"23 271 LINE",
"23 190 LINE SMOOTH",
"23 57 OFFCURVE",
"103 -15 OFFCURVE",
"241 -15 CURVE SMOOTH"
);
}
);
width = 557;
},
{
anchors = (
{
name = bottom;
position = "{289, 0}";
},
{
name = top;
position = "{405, 682}";
}
);
hints = (
{
origin = "{0, 4}";
scale = "{-1.573, 1}";
type = Corner;
name = _corner.Serif;
options = 1;
},
{
origin = "{0, 3}";
scale = "{1.08, 1}";
type = Corner;
name = _corner.Serif;
}
);
layerId = "2B88661E-23DD-4EDA-82FC-C2AEA983F097";
paths = (
{
closed = 1;
nodes = (
"369 -7 OFFCURVE",
"447 60 OFFCURVE",
"447 209 CURVE SMOOTH",
"447 682 LINE",
"419 682 LINE",
"419 208 LINE SMOOTH",
"419 82 OFFCURVE",
"354 16 OFFCURVE",
"246 16 CURVE SMOOTH",
"138 16 OFFCURVE",
"71 80 OFFCURVE",
"71 208 CURVE SMOOTH",
"71 242 LINE",
"48 242 LINE",
"48 205 LINE SMOOTH",
"48 63 OFFCURVE",
"121 -7 OFFCURVE",
"247 -7 CURVE SMOOTH"
);
}
);
width = 586;
}
);
leftKerningGroup = J;
rightKerningGroup = U;
rightMetricsKey = U;
unicode = 004A;
},
{
color = 8;
glyphname = K;
lastChange = "2021-06-30 11:44:41 +0000";
layers = (
{
anchors = (
{
name = bottom;
position = "{371, 0}";
},
{
name = top;
position = "{371, 682}";
}
);
hints = (
{
origin = "{1, 2}";
scale = "{-1.08, 1}";
type = Corner;
name = _corner.Serif;
},
{
origin = "{1, 3}";
scale = "{1.1, 1}";
type = Corner;
name = _corner.Serif;
options = 1;
},
{
origin = "{1, 0}";
scale = "{-1.2, 1}";
type = Corner;
name = _corner.Serif;
},
{
origin = "{1, 1}";
scale = "{1.18, 1}";
type = Corner;
name = _corner.Serif;
},
{
origin = "{0, 1}";
scale = "{-1.38, 1}";
type = Corner;
name = _corner.Serif;
options = 1;
},
{
origin = "{0, 0}";
scale = "{0.62, 1}";
type = Corner;
name = _corner.Serif;
},
{
origin = "{2, 3}";
scale = "{1.4, 1}";
type = Corner;
name = _corner.Serif;
},
{
origin = "{2, 0}";
scale = "{-0.66, 1}";
type = Corner;
name = _corner.Serif;
options = 1;
}
);
layerId = "1E61A082-F045-49A7-AB52-DD1B03FD9B54";
paths = (
{
closed = 1;
nodes = (
"626 682 LINE",
"598 682 LINE",
"143 279 LINE",
"155 265 LINE"
);
},
{
closed = 1;
nodes = (
"159 0 LINE",
"159 682 LINE",
"137 682 LINE",
"137 0 LINE"
);
},
{
closed = 1;
nodes = (
"653 0 LINE",
"275 385 LINE",
"261 371 LINE",
"624 0 LINE"
);
}
);
width = 744;
},
{
anchors = (
{
name = bottom;
position = "{394, 0}";
},
{
name = top;
position = "{394, 682}";
}
);
hints = (
{
origin = "{1, 2}";
scale = "{-1.08, 1}";
type = Corner;
name = _corner.Serif;
},
{
origin = "{1, 3}";
scale = "{1.1, 1}";
type = Corner;
name = _corner.Serif;
options = 1;
},
{
origin = "{1, 0}";
scale = "{-0.94, 1}";
type = Corner;
name = _corner.Serif;
},
{
origin = "{1, 1}";
scale = "{1.08, 1}";
type = Corner;
name = _corner.Serif;
},
{
origin = "{0, 1}";
scale = "{-2.14, 1}";
type = Corner;
name = _corner.Serif;
options = 1;
},
{
origin = "{0, 0}";
scale = "{0.02, 1}";
type = Corner;
name = _corner.Serif;
},
{
origin = "{2, 3}";
scale = "{1.54, 1}";
type = Corner;
name = _corner.Serif;
},
{
origin = "{2, 0}";
scale = "{-0.2, 1}";
type = Corner;
name = _corner.Serif;
options = 1;
}
);
layerId = "219068EA-2B9B-40DC-949E-B60449C01B8A";
paths = (
{
closed = 1;
nodes = (
"800 682 LINE",
"635 682 LINE",
"184 284 LINE",
"257 198 LINE"
);
},
{
closed = 1;
nodes = (
"299 0 LINE",
"299 682 LINE",
"108 682 LINE",
"108 0 LINE"
);
},
{
closed = 1;
nodes = (
"788 0 LINE",
"459 428 LINE",
"326 307 LINE",
"550 0 LINE"
);
}
);
width = 799;
},
{
anchors = (
{
name = bottom;
position = "{393, 0}";
},
{
name = top;
position = "{393, 682}";
}
);
hints = (
{
origin = "{1, 2}";
scale = "{-1.08, 0.98}";
type = Corner;
name = _corner.Serif;
},
{
origin = "{1, 3}";
scale = "{1.1, 1}";
type = Corner;
name = _corner.Serif;
options = 1;
},
{
origin = "{1, 0}";
scale = "{-0.92, 1}";
type = Corner;
name = _corner.Serif;
},
{
origin = "{1, 1}";
scale = "{1.08, 0.98}";
type = Corner;
name = _corner.Serif;
},
{
origin = "{0, 1}";
scale = "{-2.06, 0.98}";
type = Corner;
name = _corner.Serif;
options = 1;
},
{
origin = "{0, 0}";
scale = "{0.04, 0.98}";
type = Corner;
name = _corner.Serif;
},
{
origin = "{2, 3}";
scale = "{1.54, 1}";
type = Corner;
name = _corner.Serif;
},
{
origin = "{2, 0}";
scale = "{-0.15, 1}";
type = Corner;
name = _corner.Serif;
options = 1;
}
);
layerId = "0C29AA02-E021-4BD1-A2C4-87F681D64C35";
paths = (
{
closed = 1;
nodes = (
"788 682 LINE",
"641 682 LINE",
"195 275 LINE",
"258 203 LINE"
);
},
{
closed = 1;
nodes = (
"295 0 LINE",
"295 682 LINE",
"105 682 LINE",
"105 0 LINE"
);
},
{
closed = 1;
nodes = (
"797 0 LINE",
"464 420 LINE",
"334 307 LINE",
"568 0 LINE"
);
}
);
width = 799;
},
{
anchors = (
{
name = bottom;
position = "{375, 0}";
},
{
name = top;
position = "{375, 682}";
}
);
hints = (
{
origin = "{1, 2}";
scale = "{-1.08, 1}";
type = Corner;
name = _corner.Serif;
},
{
origin = "{1, 3}";
scale = "{1.1, 1}";
type = Corner;
name = _corner.Serif;
options = 1;
},
{
origin = "{1, 0}";
scale = "{-1.1909, 1}";
type = Corner;
name = _corner.Serif;
},
{
origin = "{1, 1}";
scale = "{1.1765, 1}";
type = Corner;
name = _corner.Serif;
},
{
origin = "{0, 1}";
scale = "{-1.4066, 1}";
type = Corner;
name = _corner.Serif;
options = 1;
},
{
origin = "{0, 0}";
scale = "{0.599, 1}";
type = Corner;
name = _corner.Serif;
},
{
origin = "{2, 3}";
scale = "{1.4049, 1}";
type = Corner;
name = _corner.Serif;
},
{
origin = "{2, 0}";
scale = "{-0.6439, 1}";
type = Corner;
name = _corner.Serif;
options = 1;
}
);
layerId = "2B88661E-23DD-4EDA-82FC-C2AEA983F097";
paths = (
{
closed = 1;
nodes = (
"645 682 LINE",
"608 682 LINE",
"149 268 LINE",
"163 249 LINE"
);
},
{
closed = 1;
nodes = (
"168 0 LINE",
"168 682 LINE",
"140 682 LINE",
"140 0 LINE"
);
},
{
closed = 1;
nodes = (
"671 0 LINE",
"296 381 LINE",
"277 364 LINE",
"633 0 LINE"
);
}
);
width = 755;
}
);
leftKerningGroup = I;
leftMetricsKey = H;
rightKerningGroup = K;
rightMetricsKey = X;
unicode = 004B;
},
{
color = 8;
glyphname = L;
lastChange = "2021-06-30 11:47:51 +0000";
layers = (
{
anchors = (
{
name = bottom;
position = "{318, 0}";
},
{
name = center;
position = "{148, 545}";
},
{
name = top;
position = "{147, 682}";
},
{
name = topright;
position = "{318, 682}";
}
);
hints = (
{
origin = "{0, 1}";
scale = "{1.88, 1}";
type = Corner;
name = _corner.Serif;
},
{
origin = "{0, 2}";
scale = "{-1.08, 1}";
type = Corner;
name = _corner.Serif;
},
{
origin = "{0, 3}";
scale = "{1.1, 1}";
type = Corner;
name = _corner.Serif;
options = 1;
}
);
layerId = "1E61A082-F045-49A7-AB52-DD1B03FD9B54";
paths = (
{
closed = 1;
nodes = (
"159 0 LINE",
"159 682 LINE",
"137 682 LINE",
"137 0 LINE"
);
},
{
closed = 1;
nodes = (
"583 0 LINE",
"583 17 LINE",
"159 17 LINE",
"159 0 LINE"
);
},
{
closed = 1;
nodes = (
"583 17 LINE",
"583 264 LINE",
"565 264 LINE",
"565 76 LINE SMOOTH",
"565 29 OFFCURVE",
"553 17 OFFCURVE",
"508 17 CURVE"
);
}
);
width = 634;
},
{
anchors = (
{
name = bottom;
position = "{354, 0}";
},
{
name = center;
position = "{203, 573}";
},
{
name = top;
position = "{203, 682}";
},
{
name = topright;
position = "{384, 682}";
}
);
hints = (
{
origin = "{0, 1}";
scale = "{1.38, 1}";
type = Corner;
name = _corner.Serif;
},
{
origin = "{0, 2}";
scale = "{-1.08, 1}";
type = Corner;
name = _corner.Serif;
},
{
origin = "{0, 3}";
scale = "{1.1, 1}";
type = Corner;
name = _corner.Serif;
options = 1;
}
);
layerId = "219068EA-2B9B-40DC-949E-B60449C01B8A";
paths = (
{
closed = 1;
nodes = (
"299 0 LINE",
"299 682 LINE",
"108 682 LINE",
"108 0 LINE"
);
},
{
closed = 1;
nodes = (
"671 0 LINE",
"671 102 LINE",
"299 102 LINE",
"299 0 LINE"
);
},
{
closed = 1;
nodes = (
"671 102 LINE",
"671 245 LINE",
"566 245 LINE",
"566 211 LINE SMOOTH",
"566 134 OFFCURVE",
"539 102 OFFCURVE",
"466 102 CURVE"
);
}
);
width = 712;
},
{
anchors = (
{
name = bottom;
position = "{331, 0}";
},
{
name = center;
position = "{200, 564}";
},
{
name = top;
position = "{200, 682}";
},
{
name = topright;
position = "{436, 682}";
}
);
hints = (
{
origin = "{0, 1}";
scale = "{1.98, 0.98}";
type = Corner;
name = _corner.Serif;
},
{
origin = "{0, 2}";
scale = "{-1.08, 0.98}";
type = Corner;
name = _corner.Serif;
},
{
origin = "{0, 3}";
scale = "{1.1, 1}";
type = Corner;
name = _corner.Serif;
options = 1;
}
);
layerId = "0C29AA02-E021-4BD1-A2C4-87F681D64C35";
paths = (
{
closed = 1;
nodes = (
"295 0 LINE",
"295 682 LINE",
"105 682 LINE",
"105 0 LINE"
);
},
{
closed = 1;
nodes = (
"636 0 LINE",
"636 94 LINE",
"295 94 LINE",
"295 0 LINE"
);
},
{
closed = 1;
nodes = (
"636 94 LINE",
"636 255 LINE",
"546 255 LINE",
"546 203 LINE SMOOTH",
"546 125 OFFCURVE",
"519 94 OFFCURVE",
"446 94 CURVE"
);
}
);
width = 675;
},
{
anchors = (
{
name = bottom;
position = "{333, 0}";
},
{
name = center;
position = "{154, 555}";
},
{
name = top;
position = "{154, 682}";
},
{
name = topright;
position = "{267, 682}";
}
);
hints = (
{
origin = "{0, 1}";
scale = "{1.573, 1}";
type = Corner;
name = _corner.Serif;
},
{
origin = "{0, 2}";
scale = "{-1.08, 1}";
type = Corner;
name = _corner.Serif;
},
{
origin = "{0, 3}";
scale = "{1.1, 1}";
type = Corner;
name = _corner.Serif;
options = 1;
}
);
layerId = "2B88661E-23DD-4EDA-82FC-C2AEA983F097";
paths = (
{
closed = 1;
nodes = (
"168 0 LINE",
"168 682 LINE",
"140 682 LINE",
"140 0 LINE"
);
},
{
closed = 1;
nodes = (
"617 0 LINE",
"617 23 LINE",
"168 23 LINE",
"168 0 LINE"
);
},
{
closed = 1;
nodes = (
"617 23 LINE",
"617 237 LINE",
"594 237 LINE",
"594 84 LINE SMOOTH",
"594 35 OFFCURVE",
"581 23 OFFCURVE",
"535 23 CURVE"
);
}
);
width = 674;
}
);
leftKerningGroup = I;
leftMetricsKey = H;
rightKerningGroup = L;
unicode = 004C;
},
{
color = 8;
glyphname = M;
lastChange = "2021-06-30 11:50:25 +0000";
layers = (
{
anchors = (
{
name = bottom;
position = "{465, 0}";
},
{
name = top;
position = "{465, 682}";
}
);
hints = (
{
origin = "{1, 3}";
scale = "{-1.08, 1}";
type = Corner;
name = _corner.Serif;
},
{
origin = "{1, 4}";
scale = "{1.1, 1}";
type = Corner;
name = _corner.Serif;
options = 1;
},
{
origin = "{1, 0}";
scale = "{-1.2, 1}";
type = Corner;
name = _corner.Serif;
},
{
origin = "{2, 1}";
scale = "{1.08, 1}";
type = Corner;
name = _corner.Serif;
},
{
origin = "{2, 3}";
scale = "{1.2, 1}";
type = Corner;
name = _corner.Serif;
},
{
origin = "{2, 0}";
scale = "{-1.1, 1}";
type = Corner;
name = _corner.Serif;
options = 1;
}
);
layerId = "1E61A082-F045-49A7-AB52-DD1B03FD9B54";
paths = (
{
closed = 1;
nodes = (
"472 0 LINE",
"772 650 LINE",
"772 682 LINE",
"767 682 LINE",
"463 24 LINE",
"469 24 LINE",
"166 682 LINE",
"155 682 LINE",
"155 654 LINE",
"456 0 LINE"
);
},
{
closed = 1;
nodes = (
"155 0 LINE",
"155 654 LINE",
"155 682 LINE",
"137 682 LINE",
"137 0 LINE"
);
},
{
closed = 1;
nodes = (
"794 0 LINE",
"794 682 LINE",
"772 682 LINE",
"772 0 LINE"
);
}
);
width = 930;
},
{
anchors = (
{
name = bottom;
position = "{498, 0}";
},
{
name = top;
position = "{530, 682}";
}
);
hints = (
{
origin = "{1, 3}";
scale = "{-1.08, 1}";
type = Corner;
name = _corner.Serif;
},
{
origin = "{1, 4}";
scale = "{1.1, 1}";
type = Corner;
name = _corner.Serif;
options = 1;
},
{
origin = "{1, 0}";
scale = "{-1.2, 1}";
type = Corner;
name = _corner.Serif;
},
{
origin = "{2, 1}";
scale = "{1.08, 1}";
type = Corner;
name = _corner.Serif;
},
{
origin = "{2, 3}";
scale = "{1.2, 1}";
type = Corner;
name = _corner.Serif;
},
{
origin = "{2, 0}";
scale = "{-1.1, 1}";
type = Corner;
name = _corner.Serif;
options = 1;
}
);
layerId = "219068EA-2B9B-40DC-949E-B60449C01B8A";
paths = (
{
closed = 1;
nodes = (
"559 0 LINE",
"759 440 LINE",
"759 682 LINE",
"745 682 LINE",
"516 180 LINE",
"543 180 LINE",
"301 682 LINE",
"226 682 LINE",
"226 416 LINE",
"428 0 LINE"
);
},
{
closed = 1;
nodes = (
"226 0 LINE",
"226 416 LINE",
"226 682 LINE",
"108 682 LINE",
"108 0 LINE"
);
},
{
closed = 1;
nodes = (
"948 0 LINE",
"948 682 LINE",
"759 682 LINE",
"759 0 LINE"
);
}
);
width = 1056;
},
{
anchors = (
{
name = bottom;
position = "{449, 0}";
},
{
name = top;
position = "{490, 682}";
}
);
hints = (
{
origin = "{1, 3}";
scale = "{-1.08, 0.98}";
type = Corner;
name = _corner.Serif;
},
{
origin = "{1, 4}";
scale = "{1.1, 1}";
type = Corner;
name = _corner.Serif;
options = 1;
},
{
origin = "{1, 0}";
scale = "{-1.2, 1}";
type = Corner;
name = _corner.Serif;
},
{
origin = "{2, 1}";
scale = "{1.08, 0.98}";
type = Corner;
name = _corner.Serif;
},
{
origin = "{2, 3}";
scale = "{1.2, 1}";
type = Corner;
name = _corner.Serif;
},
{
origin = "{2, 0}";
scale = "{-1.1, 1}";
type = Corner;
name = _corner.Serif;
options = 1;
}
);
layerId = "0C29AA02-E021-4BD1-A2C4-87F681D64C35";
paths = (
{
closed = 1;
nodes = (
"499 0 LINE",
"681 457 LINE",
"681 682 LINE",
"673 682 LINE",
"472 180 LINE",
"499 180 LINE",
"288 682 LINE",
"205 682 LINE",
"205 432 LINE",
"389 0 LINE"
);
},
{
closed = 1;
nodes = (
"205 0 LINE",
"205 432 LINE",
"205 682 LINE",
"105 682 LINE",
"105 0 LINE"
);
},
{
closed = 1;
nodes = (
"867 0 LINE",
"867 682 LINE",
"681 682 LINE",
"681 0 LINE"
);
}
);
width = 971;
},
{
anchors = (
{
name = bottom;
position = "{494, 0}";
},
{
name = top;
position = "{496, 682}";
}
);
hints = (
{
origin = "{1, 3}";
scale = "{-1.08, 1}";
type = Corner;
name = _corner.Serif;
},
{
origin = "{1, 4}";
scale = "{1.1, 1}";
type = Corner;
name = _corner.Serif;
options = 1;
},
{
origin = "{1, 0}";
scale = "{-1.2, 1}";
type = Corner;
name = _corner.Serif;
},
{
origin = "{2, 1}";
scale = "{1.08, 1}";
type = Corner;
name = _corner.Serif;
},
{
origin = "{2, 3}";
scale = "{1.2, 1}";
type = Corner;
name = _corner.Serif;
},
{
origin = "{2, 0}";
scale = "{-1.1, 1}";
type = Corner;
name = _corner.Serif;
options = 1;
}
);
layerId = "2B88661E-23DD-4EDA-82FC-C2AEA983F097";
paths = (
{
closed = 1;
nodes = (
"504 0 LINE",
"823 643 LINE",
"823 682 LINE",
"815 682 LINE",
"488 22 LINE",
"504 22 LINE",
"178 682 LINE",
"165 682 LINE",
"165 645 LINE",
"484 0 LINE"
);
},
{
closed = 1;
nodes = (
"165 0 LINE",
"165 645 LINE",
"165 682 LINE",
"140 682 LINE",
"140 0 LINE"
);
},
{
closed = 1;
nodes = (
"851 0 LINE",
"851 682 LINE",
"823 682 LINE",
"823 0 LINE"
);
}
);
width = 991;
}
);
leftKerningGroup = I;
leftMetricsKey = H;
rightKerningGroup = I;
rightMetricsKey = H;
unicode = 004D;
},
{
color = 8;
glyphname = N;
lastChange = "2021-06-30 11:50:25 +0000";
layers = (
{
anchors = (
{
name = bottom;
position = "{388, 0}";
},
{
name = top;
position = "{395, 682}";
}
);
hints = (
{
origin = "{1, 3}";
scale = "{-1.08, 1}";
type = Corner;
name = _corner.Serif;
},
{
origin = "{1, 4}";
scale = "{1.1, 1}";
type = Corner;
name = _corner.Serif;
options = 1;
},
{
origin = "{1, 0}";
scale = "{-1.2, 1}";
type = Corner;
name = _corner.Serif;
},
{
origin = "{2, 1}";
scale = "{1.08, 1}";
type = Corner;
name = _corner.Serif;
},
{
origin = "{2, 2}";
scale = "{-1.18, 1}";
type = Corner;
name = _corner.Serif;
options = 1;
}
);
layerId = "1E61A082-F045-49A7-AB52-DD1B03FD9B54";
rightMetricsKey = "=H-16";
paths = (
{
closed = 1;
nodes = (
"630 35 LINE",
"157 682 LINE",
"155 647 LINE",
"629 0 LINE"
);
},
{
closed = 1;
nodes = (
"155 0 LINE",
"155 647 LINE",
"157 682 LINE",
"137 682 LINE",
"137 0 LINE"
);
},
{
closed = 1;
nodes = (
"648 0 LINE",
"648 682 LINE",
"630 682 LINE",
"630 35 LINE",
"626 35 LINE",
"629 0 LINE"
);
}
);
width = 765;
},
{
anchors = (
{
name = bottom;
position = "{412, 0}";
},
{
name = top;
position = "{426, 682}";
}
);
hints = (
{
origin = "{1, 3}";
scale = "{-1.08, 1}";
type = Corner;
name = _corner.Serif;
},
{
origin = "{1, 4}";
scale = "{1.1, 1}";
type = Corner;
name = _corner.Serif;
options = 1;
},
{
origin = "{1, 0}";
scale = "{-1.2, 1}";
type = Corner;
name = _corner.Serif;
},
{
origin = "{2, 1}";
scale = "{1.08, 1}";
type = Corner;
name = _corner.Serif;
},
{
origin = "{2, 2}";
scale = "{-1.18, 1}";
type = Corner;
name = _corner.Serif;
options = 1;
}
);
layerId = "219068EA-2B9B-40DC-949E-B60449C01B8A";
rightMetricsKey = "=H-6";
paths = (
{
closed = 1;
nodes = (
"604 290 LINE",
"262 682 LINE",
"226 433 LINE",
"603 0 LINE"
);
},
{
closed = 1;
nodes = (
"226 0 LINE",
"226 433 LINE",
"262 682 LINE",
"108 682 LINE",
"108 0 LINE"
);
},
{
closed = 1;
nodes = (
"722 0 LINE",
"722 682 LINE",
"604 682 LINE",
"604 290 LINE",
"599 290 LINE",
"603 0 LINE"
);
}
);
width = 822;
},
{
anchors = (
{
name = bottom;
position = "{390, 0}";
},
{
name = top;
position = "{402, 682}";
}
);
hints = (
{
origin = "{1, 3}";
scale = "{-1.08, 0.98}";
type = Corner;
name = _corner.Serif;
},
{
origin = "{1, 4}";
scale = "{1.1, 1}";
type = Corner;
name = _corner.Serif;
options = 1;
},
{
origin = "{1, 0}";
scale = "{-1.2, 1}";
type = Corner;
name = _corner.Serif;
},
{
origin = "{2, 1}";
scale = "{1, 0.98}";
type = Corner;
name = _corner.Serif;
},
{
origin = "{2, 2}";
scale = "{-1.18, 0.98}";
type = Corner;
name = _corner.Serif;
options = 1;
}
);
layerId = "0C29AA02-E021-4BD1-A2C4-87F681D64C35";
rightMetricsKey = "=H-12";
paths = (
{
closed = 1;
nodes = (
"583 289 LINE",
"238 682 LINE",
"206 429 LINE",
"583 0 LINE"
);
},
{
closed = 1;
nodes = (
"206 0 LINE",
"206 429 LINE",
"238 682 LINE",
"105 682 LINE",
"105 0 LINE"
);
},
{
closed = 1;
nodes = (
"685 0 LINE",
"685 682 LINE",
"583 682 LINE",
"583 289 LINE",
"579 289 LINE",
"583 0 LINE"
);
}
);
width = 770;
},
{
anchors = (
{
name = bottom;
position = "{411, 0}";
},
{
name = top;
position = "{416, 682}";
}
);
hints = (
{
origin = "{1, 3}";
scale = "{-1.08, 1}";
type = Corner;
name = _corner.Serif;
},
{
origin = "{1, 4}";
scale = "{1.1, 1}";
type = Corner;
name = _corner.Serif;
options = 1;
},
{
origin = "{1, 0}";
scale = "{-1.2, 1}";
type = Corner;
name = _corner.Serif;
},
{
origin = "{2, 1}";
scale = "{1.08, 1}";
type = Corner;
name = _corner.Serif;
},
{
origin = "{2, 2}";
scale = "{-1.18, 1}";
type = Corner;
name = _corner.Serif;
options = 1;
}
);
layerId = "2B88661E-23DD-4EDA-82FC-C2AEA983F097";
paths = (
{
closed = 1;
nodes = (
"659 44 LINE",
"168 682 LINE",
"165 641 LINE",
"658 0 LINE"
);
},
{
closed = 1;
nodes = (
"165 0 LINE",
"165 641 LINE",
"168 682 LINE",
"140 682 LINE",
"140 0 LINE"
);
},
{
closed = 1;
nodes = (
"684 0 LINE",
"684 682 LINE",
"659 682 LINE",
"659 44 LINE",
"654 44 LINE",
"658 0 LINE"
);
}
);
width = 822;
}
);
leftKerningGroup = I;
leftMetricsKey = H;
rightKerningGroup = N;
rightMetricsKey = H;
unicode = 004E;
},
{
color = 8;
glyphname = Eng;
lastChange = "2021-06-30 11:50:25 +0000";
layers = (
{
hints = (
{
origin = "{2, 1}";
scale = "{1.08, 1}";
type = Corner;
name = _corner.Serif;
},
{
origin = "{2, 2}";
scale = "{-1.18, 1}";
type = Corner;
name = _corner.Serif;
options = 1;
},
{
origin = "{0, 0}";
scale = "{-1.2, 1}";
type = Corner;
name = _corner.Serif;
},
{
origin = "{0, 3}";
scale = "{-1.08, 1}";
type = Corner;
name = _corner.Serif;
},
{
origin = "{0, 4}";
scale = "{1.1, 1}";
type = Corner;
name = _corner.Serif;
options = 1;
}
);
layerId = "1E61A082-F045-49A7-AB52-DD1B03FD9B54";
paths = (
{
closed = 1;
nodes = (
"155 0 LINE",
"155 647 LINE",
"157 682 LINE",
"137 682 LINE",
"137 0 LINE"
);
},
{
closed = 1;
nodes = (
"630 35 LINE",
"157 682 LINE",
"155 647 LINE",
"638 -12 LINE"
);
},
{
closed = 1;
nodes = (
"648 -37 LINE",
"648 682 LINE",
"630 682 LINE",
"630 -38 LINE"
);
},
{
closed = 1;
nodes = (
"603 -206 OFFCURVE",
"648 -157 OFFCURVE",
"648 -37 CURVE",
"630 -38 LINE",
"630 -143 OFFCURVE",
"594 -190 OFFCURVE",
"521 -190 CURVE",
"521 -206 LINE"
);
},
{
closed = 1;
nodes = (
"438 -99 OFFCURVE",
"427 -117 OFFCURVE",
"427 -138 CURVE SMOOTH",
"427 -182 OFFCURVE",
"469 -206 OFFCURVE",
"521 -206 CURVE",
"521 -190 LINE",
"477 -190 OFFCURVE",
"450 -175 OFFCURVE",
"445 -144 CURVE",
"441 -155 LINE",
"469 -155 OFFCURVE",
"487 -144 OFFCURVE",
"487 -124 CURVE SMOOTH",
"487 -109 OFFCURVE",
"475 -99 OFFCURVE",
"460 -99 CURVE SMOOTH"
);
}
);
width = 765;
},
{
hints = (
{
origin = "{0, 3}";
scale = "{-1.08, 1}";
type = Corner;
name = _corner.Serif;
},
{
origin = "{0, 4}";
scale = "{1.1, 1}";
type = Corner;
name = _corner.Serif;
options = 1;
},
{
origin = "{0, 0}";
scale = "{-1.2, 1}";
type = Corner;
name = _corner.Serif;
},
{
origin = "{2, 1}";
scale = "{1.08, 1}";
type = Corner;
name = _corner.Serif;
},
{
origin = "{2, 2}";
scale = "{-1.18, 1}";
type = Corner;
name = _corner.Serif;
options = 1;
}
);
layerId = "219068EA-2B9B-40DC-949E-B60449C01B8A";
paths = (
{
closed = 1;
nodes = (
"226 0 LINE",
"226 431 LINE",
"262 682 LINE",
"108 682 LINE",
"108 0 LINE"
);
},
{
closed = 1;
nodes = (
"595 292 LINE",
"262 682 LINE",
"226 431 LINE",
"604 -12 LINE"
);
},
{
closed = 1;
nodes = (
"713 -7 LINE",
"713 682 LINE",
"595 682 LINE",
"595 -52 LINE"
);
},
{
closed = 1;
nodes = (
"640 -205 OFFCURVE",
"713 -145 OFFCURVE",
"713 -7 CURVE",
"595 -52 LINE",
"595 -107 OFFCURVE",
"567 -129 OFFCURVE",
"521 -129 CURVE",
"524 -205 LINE"
);
},
{
closed = 1;
nodes = (
"405 -45 OFFCURVE",
"371 -70 OFFCURVE",
"371 -111 CURVE SMOOTH",
"371 -165 OFFCURVE",
"434 -205 OFFCURVE",
"524 -205 CURVE",
"521 -129 LINE",
"501 -129 OFFCURVE",
"482 -123 OFFCURVE",
"470 -115 CURVE",
"464 -150 LINE",
"506 -150 OFFCURVE",
"540 -138 OFFCURVE",
"540 -96 CURVE SMOOTH",
"540 -61 OFFCURVE",
"505 -45 OFFCURVE",
"464 -45 CURVE SMOOTH"
);
}
);
width = 813;
},
{
hints = (
{
origin = "{0, 3}";
scale = "{-1.08, 0.98}";
type = Corner;
name = _corner.Serif;
},
{
origin = "{0, 4}";
scale = "{1.1, 1}";
type = Corner;
name = _corner.Serif;
options = 1;
},
{
origin = "{0, 0}";
scale = "{-1.2, 1}";
type = Corner;
name = _corner.Serif;
},
{
origin = "{2, 1}";
scale = "{1.08, 0.98}";
type = Corner;
name = _corner.Serif;
},
{
origin = "{2, 2}";
scale = "{-1.18, 0.98}";
type = Corner;
name = _corner.Serif;
options = 1;
}
);
layerId = "0C29AA02-E021-4BD1-A2C4-87F681D64C35";
paths = (
{
closed = 1;
nodes = (
"206 0 LINE",
"206 429 LINE",
"238 682 LINE",
"105 682 LINE",
"105 0 LINE"
);
},
{
closed = 1;
nodes = (
"578 290 LINE",
"238 682 LINE",
"206 429 LINE",
"592 -16 LINE"
);
},
{
closed = 1;
nodes = (
"680 -21 LINE",
"680 682 LINE",
"578 682 LINE",
"578 -52 LINE"
);
},
{
closed = 1;
nodes = (
"607 -205 OFFCURVE",
"680 -158 OFFCURVE",
"680 -21 CURVE",
"578 -52 LINE",
"578 -115 OFFCURVE",
"549 -139 OFFCURVE",
"500 -139 CURVE",
"511 -205 LINE"
);
},
{
closed = 1;
nodes = (
"398 -41 OFFCURVE",
"364 -66 OFFCURVE",
"364 -107 CURVE SMOOTH",
"364 -169 OFFCURVE",
"430 -205 OFFCURVE",
"511 -205 CURVE",
"500 -139 LINE",
"480 -139 OFFCURVE",
"466 -133 OFFCURVE",
"458 -123 CURVE",
"445 -153 LINE",
"486 -152 OFFCURVE",
"517 -135 OFFCURVE",
"517 -97 CURVE SMOOTH",
"517 -59 OFFCURVE",
"487 -41 OFFCURVE",
"445 -41 CURVE SMOOTH"
);
}
);
width = 771;
},
{
hints = (
{
origin = "{0, 0}";
scale = "{-1.2, 1}";
type = Corner;
name = _corner.Serif;
},
{
origin = "{0, 3}";
scale = "{-1.08, 1}";
type = Corner;
name = _corner.Serif;
},
{
origin = "{0, 4}";
scale = "{1.1, 1}";
type = Corner;
name = _corner.Serif;
options = 1;
},
{
origin = "{2, 1}";
scale = "{1.08, 1}";
type = Corner;
name = _corner.Serif;
},
{
origin = "{2, 2}";
scale = "{-1.18, 1}";
type = Corner;
name = _corner.Serif;
options = 1;
}
);
layerId = "2B88661E-23DD-4EDA-82FC-C2AEA983F097";
paths = (
{
closed = 1;
nodes = (
"165 0 LINE",
"165 641 LINE",
"168 682 LINE",
"140 682 LINE",
"140 0 LINE"
);
},
{
closed = 1;
nodes = (
"659 44 LINE",
"168 682 LINE",
"165 641 LINE",
"676 -23 LINE"
);
},
{
closed = 1;
nodes = (
"684 -52 LINE",
"684 682 LINE",
"659 682 LINE",
"659 -55 LINE"
);
},
{
closed = 1;
nodes = (
"640 -206 OFFCURVE",
"684 -157 OFFCURVE",
"684 -52 CURVE",
"659 -55 LINE",
"659 -145 OFFCURVE",
"622 -185 OFFCURVE",
"554 -185 CURVE",
"554 -206 LINE"
);
},
{
closed = 1;
nodes = (
"466 -104 OFFCURVE",
"454 -120 OFFCURVE",
"454 -140 CURVE SMOOTH",
"454 -181 OFFCURVE",
"497 -206 OFFCURVE",
"554 -206 CURVE",
"554 -185 LINE",
"511 -185 OFFCURVE",
"484 -172 OFFCURVE",
"477 -147 CURVE",
"471 -165 LINE",
"494 -165 OFFCURVE",
"516 -155 OFFCURVE",
"516 -131 CURVE SMOOTH",
"516 -115 OFFCURVE",
"504 -104 OFFCURVE",
"487 -104 CURVE SMOOTH"
);
}
);
width = 822;
}
);
leftKerningGroup = I;
leftMetricsKey = N;
rightKerningGroup = N;
rightMetricsKey = N;
unicode = 014A;
},
{
color = 8;
glyphname = O;
lastChange = "2021-06-30 11:45:06 +0000";
layers = (
{
anchors = (
{
name = bottom;
position = "{385, 0}";
},
{
name = ogonek;
position = "{525, 0}";
},
{
name = top;
position = "{385, 682}";
},
{
name = topleft;
position = "{4, 682}";
},
{
name = topright;
position = "{649, 573}";
}
);
layerId = "1E61A082-F045-49A7-AB52-DD1B03FD9B54";
paths = (
{
closed = 1;
nodes = (
"575 -13 OFFCURVE",
"715 117 OFFCURVE",
"715 341 CURVE SMOOTH",
"715 565 OFFCURVE",
"575 695 OFFCURVE",
"385 695 CURVE SMOOTH",
"194 695 OFFCURVE",
"54 565 OFFCURVE",
"54 341 CURVE SMOOTH",
"54 117 OFFCURVE",
"194 -13 OFFCURVE",
"385 -13 CURVE SMOOTH"
);
},
{
closed = 1;
nodes = (
"199 4 OFFCURVE",
"76 137 OFFCURVE",
"76 341 CURVE SMOOTH",
"76 545 OFFCURVE",
"199 678 OFFCURVE",
"385 678 CURVE SMOOTH",
"570 678 OFFCURVE",
"693 545 OFFCURVE",
"693 341 CURVE SMOOTH",
"693 137 OFFCURVE",
"570 4 OFFCURVE",
"385 4 CURVE SMOOTH"
);
}
);
width = 769;
},
{
anchors = (
{
name = bottom;
position = "{439, 0}";
},
{
name = ogonek;
position = "{604, 0}";
},
{
name = top;
position = "{439, 682}";
},
{
name = topleft;
position = "{15, 682}";
},
{
name = topright;
position = "{772, 577}";
}
);
layerId = "219068EA-2B9B-40DC-949E-B60449C01B8A";
paths = (
{
closed = 1;
nodes = (
"682 -16 OFFCURVE",
"841 113 OFFCURVE",
"841 341 CURVE SMOOTH",
"841 569 OFFCURVE",
"682 698 OFFCURVE",
"439 698 CURVE SMOOTH",
"196 698 OFFCURVE",
"37 569 OFFCURVE",
"37 341 CURVE SMOOTH",
"37 113 OFFCURVE",
"196 -16 OFFCURVE",
"439 -16 CURVE SMOOTH"
);
},
{
closed = 1;
nodes = (
"320 90 OFFCURVE",
"250 180 OFFCURVE",
"250 341 CURVE SMOOTH",
"250 502 OFFCURVE",
"320 592 OFFCURVE",
"439 592 CURVE SMOOTH",
"559 592 OFFCURVE",
"628 502 OFFCURVE",
"628 341 CURVE SMOOTH",
"628 180 OFFCURVE",
"559 90 OFFCURVE",
"439 90 CURVE SMOOTH"
);
}
);
width = 878;
},
{
anchors = (
{
name = bottom;
position = "{417, 0}";
},
{
name = ogonek;
position = "{575, 0}";
},
{
name = top;
position = "{417, 682}";
},
{
name = topleft;
position = "{16, 682}";
},
{
name = topright;
position = "{728, 577}";
}
);
layerId = "0C29AA02-E021-4BD1-A2C4-87F681D64C35";
paths = (
{
closed = 1;
nodes = (
"648 -15 OFFCURVE",
"801 116 OFFCURVE",
"801 341 CURVE SMOOTH",
"801 565 OFFCURVE",
"648 696 OFFCURVE",
"417 696 CURVE SMOOTH",
"186 696 OFFCURVE",
"34 565 OFFCURVE",
"34 341 CURVE SMOOTH",
"34 116 OFFCURVE",
"186 -15 OFFCURVE",
"417 -15 CURVE SMOOTH"
);
},
{
closed = 1;
nodes = (
"310 74 OFFCURVE",
"248 170 OFFCURVE",
"248 341 CURVE SMOOTH",
"248 512 OFFCURVE",
"310 608 OFFCURVE",
"417 608 CURVE SMOOTH",
"525 608 OFFCURVE",
"586 512 OFFCURVE",
"586 341 CURVE SMOOTH",
"586 170 OFFCURVE",
"525 74 OFFCURVE",
"417 74 CURVE SMOOTH"
);
}
);
width = 835;
},
{
anchors = (
{
name = bottom;
position = "{413, 0}";
},
{
name = ogonek;
position = "{560, 0}";
},
{
name = top;
position = "{413, 682}";
},
{
name = topleft;
position = "{9, 682}";
},
{
name = topright;
position = "{694, 573}";
}
);
layerId = "2B88661E-23DD-4EDA-82FC-C2AEA983F097";
paths = (
{
closed = 1;
nodes = (
"616 -15 OFFCURVE",
"764 114 OFFCURVE",
"764 341 CURVE SMOOTH",
"764 568 OFFCURVE",
"616 697 OFFCURVE",
"413 697 CURVE SMOOTH",
"210 697 OFFCURVE",
"62 568 OFFCURVE",
"62 341 CURVE SMOOTH",
"62 114 OFFCURVE",
"210 -15 OFFCURVE",
"413 -15 CURVE SMOOTH"
);
},
{
closed = 1;
nodes = (
"219 8 OFFCURVE",
"90 134 OFFCURVE",
"90 341 CURVE SMOOTH",
"90 548 OFFCURVE",
"219 674 OFFCURVE",
"413 674 CURVE SMOOTH",
"606 674 OFFCURVE",
"736 548 OFFCURVE",
"736 341 CURVE SMOOTH",
"736 134 OFFCURVE",
"606 8 OFFCURVE",
"413 8 CURVE SMOOTH"
);
}
);
width = 825;
}
);
leftKerningGroup = O;
rightKerningGroup = O;
unicode = 004F;
},
{
color = 8;
glyphname = OE;
lastChange = "2021-06-30 11:47:23 +0000";
layers = (
{
layerId = "1E61A082-F045-49A7-AB52-DD1B03FD9B54";
paths = (
{
closed = 1;
nodes = (
"528 0 LINE",
"528 17 LINE",
"402 17 LINE SMOOTH",
"205 17 OFFCURVE",
"76 143 OFFCURVE",
"76 341 CURVE SMOOTH",
"76 539 OFFCURVE",
"205 665 OFFCURVE",
"402 665 CURVE SMOOTH",
"528 665 LINE",
"528 682 LINE",
"402 682 LINE SMOOTH",
"192 682 OFFCURVE",
"54 557 OFFCURVE",
"54 341 CURVE SMOOTH",
"54 125 OFFCURVE",
"192 0 OFFCURVE",
"402 0 CURVE SMOOTH"
);
},
{
closed = 1;
nodes = (
"550 0 LINE",
"550 682 LINE",
"528 682 LINE",
"528 0 LINE"
);
},
{
closed = 1;
nodes = (
"979 0 LINE",
"979 17 LINE",
"550 17 LINE",
"550 0 LINE"
);
},
{
closed = 1;
nodes = (
"795 140 LINE",
"795 351 LINE",
"725 351 LINE",
"767 351 OFFCURVE",
"778 340 OFFCURVE",
"778 295 CURVE SMOOTH",
"778 140 LINE"
);
},
{
closed = 1;
nodes = (
"795 351 LINE",
"795 368 LINE",
"550 368 LINE",
"550 351 LINE"
);
},
{
closed = 1;
nodes = (
"979 17 LINE",
"979 264 LINE",
"961 264 LINE",
"961 76 LINE SMOOTH",
"961 29 OFFCURVE",
"949 17 OFFCURVE",
"904 17 CURVE"
);
},
{
closed = 1;
nodes = (
"795 368 LINE",
"795 546 LINE",
"778 546 LINE",
"778 424 LINE SMOOTH",
"778 379 OFFCURVE",
"767 368 OFFCURVE",
"725 368 CURVE"
);
},
{
closed = 1;
nodes = (
"971 665 LINE",
"971 682 LINE",
"550 682 LINE",
"550 665 LINE"
);
},
{
closed = 1;
nodes = (
"971 427 LINE",
"971 665 LINE",
"895 665 LINE",
"941 665 OFFCURVE",
"953 653 OFFCURVE",
"953 605 CURVE SMOOTH",
"953 427 LINE"
);
}
);
width = 1048;
},
{
layerId = "219068EA-2B9B-40DC-949E-B60449C01B8A";
paths = (
{
closed = 1;
nodes = (
"506 0 LINE",
"506 102 LINE",
"445 102 LINE SMOOTH",
"326 102 OFFCURVE",
"247 194 OFFCURVE",
"247 341 CURVE SMOOTH",
"247 488 OFFCURVE",
"326 580 OFFCURVE",
"445 580 CURVE SMOOTH",
"506 580 LINE",
"506 682 LINE",
"417 682 LINE SMOOTH",
"189 682 OFFCURVE",
"37 559 OFFCURVE",
"37 341 CURVE SMOOTH",
"37 123 OFFCURVE",
"189 0 OFFCURVE",
"417 0 CURVE SMOOTH"
);
},
{
closed = 1;
nodes = (
"697 0 LINE",
"697 682 LINE",
"506 682 LINE",
"506 0 LINE"
);
},
{
closed = 1;
nodes = (
"1072 0 LINE",
"1072 102 LINE",
"697 102 LINE",
"697 0 LINE"
);
},
{
closed = 1;
nodes = (
"881 165 LINE",
"881 301 LINE",
"701 301 LINE",
"755 301 OFFCURVE",
"780 269 OFFCURVE",
"780 196 CURVE SMOOTH",
"780 165 LINE"
);
},
{
closed = 1;
nodes = (
"881 301 LINE",
"881 401 LINE",
"697 401 LINE",
"697 301 LINE"
);
},
{
closed = 1;
nodes = (
"1072 102 LINE",
"1072 255 LINE",
"966 255 LINE",
"966 211 LINE SMOOTH",
"966 134 OFFCURVE",
"939 102 OFFCURVE",
"866 102 CURVE"
);
},
{
closed = 1;
nodes = (
"881 401 LINE",
"881 516 LINE",
"780 516 LINE",
"780 505 LINE SMOOTH",
"780 433 OFFCURVE",
"755 401 OFFCURVE",
"701 401 CURVE"
);
},
{
closed = 1;
nodes = (
"1064 580 LINE",
"1064 682 LINE",
"697 682 LINE",
"697 580 LINE"
);
},
{
closed = 1;
nodes = (
"1064 436 LINE",
"1064 580 LINE",
"858 580 LINE",
"931 580 OFFCURVE",
"958 548 OFFCURVE",
"958 471 CURVE SMOOTH",
"958 436 LINE"
);
}
);
width = 1138;
},
{
layerId = "0C29AA02-E021-4BD1-A2C4-87F681D64C35";
paths = (
{
closed = 1;
nodes = (
"475 0 LINE",
"475 94 LINE",
"424 94 LINE SMOOTH",
"315 94 OFFCURVE",
"244 189 OFFCURVE",
"244 341 CURVE SMOOTH",
"244 493 OFFCURVE",
"315 588 OFFCURVE",
"424 588 CURVE SMOOTH",
"475 588 LINE",
"475 682 LINE",
"395 682 LINE SMOOTH",
"178 682 OFFCURVE",
"34 559 OFFCURVE",
"34 341 CURVE SMOOTH",
"34 123 OFFCURVE",
"178 0 OFFCURVE",
"395 0 CURVE SMOOTH"
);
},
{
closed = 1;
nodes = (
"666 0 LINE",
"666 682 LINE",
"475 682 LINE",
"475 0 LINE"
);
},
{
closed = 1;
nodes = (
"1007 0 LINE",
"1007 94 LINE",
"666 94 LINE",
"666 0 LINE"
);
},
{
closed = 1;
nodes = (
"847 148 LINE",
"847 305 LINE",
"669 305 LINE",
"734 305 OFFCURVE",
"760 273 OFFCURVE",
"760 200 CURVE SMOOTH",
"760 148 LINE"
);
},
{
closed = 1;
nodes = (
"847 305 LINE",
"847 397 LINE",
"666 397 LINE",
"666 305 LINE"
);
},
{
closed = 1;
nodes = (
"1007 94 LINE",
"1007 264 LINE",
"917 264 LINE",
"917 203 LINE SMOOTH",
"917 125 OFFCURVE",
"890 94 OFFCURVE",
"817 94 CURVE"
);
},
{
closed = 1;
nodes = (
"847 397 LINE",
"847 534 LINE",
"760 534 LINE",
"760 502 LINE SMOOTH",
"760 429 OFFCURVE",
"734 397 OFFCURVE",
"669 397 CURVE"
);
},
{
closed = 1;
nodes = (
"1001 588 LINE",
"1001 682 LINE",
"666 682 LINE",
"666 588 LINE"
);
},
{
closed = 1;
nodes = (
"1001 427 LINE",
"1001 588 LINE",
"811 588 LINE",
"884 588 OFFCURVE",
"911 556 OFFCURVE",
"911 479 CURVE SMOOTH",
"911 427 LINE"
);
}
);
width = 1064;
},
{
layerId = "2B88661E-23DD-4EDA-82FC-C2AEA983F097";
paths = (
{
closed = 1;
nodes = (
"557 0 LINE",
"557 23 LINE",
"421 23 LINE SMOOTH",
"221 23 OFFCURVE",
"90 147 OFFCURVE",
"90 341 CURVE SMOOTH",
"90 535 OFFCURVE",
"221 659 OFFCURVE",
"421 659 CURVE SMOOTH",
"557 659 LINE",
"557 682 LINE",
"420 682 LINE SMOOTH",
"204 682 OFFCURVE",
"62 557 OFFCURVE",
"62 341 CURVE SMOOTH",
"62 125 OFFCURVE",
"204 0 OFFCURVE",
"420 0 CURVE SMOOTH"
);
},
{
closed = 1;
nodes = (
"585 0 LINE",
"585 682 LINE",
"557 682 LINE",
"557 0 LINE"
);
},
{
closed = 1;
nodes = (
"1039 0 LINE",
"1039 23 LINE",
"585 23 LINE",
"585 0 LINE"
);
},
{
closed = 1;
nodes = (
"829 165 LINE",
"829 348 LINE",
"752 348 LINE",
"796 348 OFFCURVE",
"807 337 OFFCURVE",
"807 291 CURVE SMOOTH",
"807 165 LINE"
);
},
{
closed = 1;
nodes = (
"829 348 LINE",
"829 371 LINE",
"585 371 LINE",
"585 348 LINE"
);
},
{
closed = 1;
nodes = (
"1039 23 LINE",
"1039 237 LINE",
"1016 237 LINE",
"1016 84 LINE SMOOTH",
"1016 35 OFFCURVE",
"1004 23 OFFCURVE",
"957 23 CURVE"
);
},
{
closed = 1;
nodes = (
"829 371 LINE",
"829 521 LINE",
"807 521 LINE",
"807 428 LINE SMOOTH",
"807 383 OFFCURVE",
"796 371 OFFCURVE",
"752 371 CURVE"
);
},
{
closed = 1;
nodes = (
"1031 659 LINE",
"1031 682 LINE",
"585 682 LINE",
"585 659 LINE"
);
},
{
closed = 1;
nodes = (
"1031 454 LINE",
"1031 659 LINE",
"948 659 LINE",
"994 659 OFFCURVE",
"1007 646 OFFCURVE",
"1007 598 CURVE SMOOTH",
"1007 454 LINE"
);
}
);
width = 1111;
}
);
leftKerningGroup = O;
leftMetricsKey = O;
rightKerningGroup = E;
rightMetricsKey = E;
unicode = 0152;
},
{
color = 8;
glyphname = P;
lastChange = "2021-06-17 13:22:10 +0000";
layers = (
{
anchors = (
{
name = bottom;
position = "{327, 0}";
},
{
name = top;
position = "{327, 682}";
}
);
hints = (
{
origin = "{0, 3}";
scale = "{1.1, 1}";
type = Corner;
name = _corner.Serif;
options = 1;
},
{
origin = "{0, 0}";
scale = "{-1.9, 1}";
type = Corner;
name = _corner.Serif;
},
{
origin = "{0, 2}";
scale = "{-1.08, 1}";
type = Corner;
name = _corner.Serif;
}
);
layerId = "1E61A082-F045-49A7-AB52-DD1B03FD9B54";
paths = (
{
closed = 1;
nodes = (
"159 0 LINE",
"159 682 LINE",
"137 682 LINE",
"137 0 LINE"
);
},
{
closed = 1;
nodes = (
"394 310 LINE SMOOTH",
"522 310 OFFCURVE",
"608 373 OFFCURVE",
"608 496 CURVE SMOOTH",
"608 619 OFFCURVE",
"522 682 OFFCURVE",
"394 682 CURVE SMOOTH",
"159 682 LINE",
"159 665 LINE",
"389 665 LINE SMOOTH",
"510 665 OFFCURVE",
"586 608 OFFCURVE",
"586 496 CURVE SMOOTH",
"586 384 OFFCURVE",
"510 327 OFFCURVE",
"389 327 CURVE SMOOTH",
"159 327 LINE",
"159 310 LINE"
);
}
);
width = 652;
},
{
anchors = (
{
name = bottom;
position = "{371, 0}";
},
{
name = top;
position = "{371, 682}";
}
);
hints = (
{
origin = "{0, 3}";
scale = "{1.1, 1}";
type = Corner;
name = _corner.Serif;
options = 1;
},
{
origin = "{0, 0}";
scale = "{-1.8, 1}";
type = Corner;
name = _corner.Serif;
},
{
origin = "{0, 2}";
scale = "{-1.08, 1}";
type = Corner;
name = _corner.Serif;
}
);
layerId = "219068EA-2B9B-40DC-949E-B60449C01B8A";
paths = (
{
closed = 1;
nodes = (
"299 0 LINE",
"299 682 LINE",
"108 682 LINE",
"108 0 LINE"
);
},
{
closed = 1;
nodes = (
"472 272 LINE SMOOTH",
"624 272 OFFCURVE",
"724 340 OFFCURVE",
"724 477 CURVE SMOOTH",
"724 613 OFFCURVE",
"624 682 OFFCURVE",
"472 682 CURVE SMOOTH",
"299 682 LINE",
"299 582 LINE",
"408 582 LINE SMOOTH",
"483 582 OFFCURVE",
"528 548 OFFCURVE",
"528 477 CURVE SMOOTH",
"528 405 OFFCURVE",
"483 372 OFFCURVE",
"408 372 CURVE SMOOTH",
"299 372 LINE",
"299 272 LINE"
);
}
);
width = 755;
},
{
anchors = (
{
name = bottom;
position = "{344, 0}";
},
{
name = top;
position = "{344, 682}";
}
);
hints = (
{
origin = "{0, 3}";
scale = "{1.1, 1}";
type = Corner;
name = _corner.Serif;
options = 1;
},
{
origin = "{0, 0}";
scale = "{-2.2, 1}";
type = Corner;
name = _corner.Serif;
},
{
origin = "{0, 2}";
scale = "{-1.08, 0.98}";
type = Corner;
name = _corner.Serif;
}
);
layerId = "0C29AA02-E021-4BD1-A2C4-87F681D64C35";
paths = (
{
closed = 1;
nodes = (
"295 0 LINE",
"295 682 LINE",
"105 682 LINE",
"105 0 LINE"
);
},
{
closed = 1;
nodes = (
"453 290 LINE SMOOTH",
"599 290 OFFCURVE",
"695 356 OFFCURVE",
"695 486 CURVE SMOOTH",
"695 616 OFFCURVE",
"599 682 OFFCURVE",
"453 682 CURVE SMOOTH",
"295 682 LINE",
"295 591 LINE",
"384 591 LINE SMOOTH",
"456 591 OFFCURVE",
"501 556 OFFCURVE",
"501 486 CURVE SMOOTH",
"501 416 OFFCURVE",
"456 381 OFFCURVE",
"384 381 CURVE SMOOTH",
"295 381 LINE",
"295 290 LINE"
);
}
);
width = 712;
},
{
anchors = (
{
name = bottom;
position = "{340, 0}";
},
{
name = top;
position = "{340, 682}";
}
);
hints = (
{
origin = "{0, 3}";
scale = "{1.1, 1}";
type = Corner;
name = _corner.Serif;
options = 1;
},
{
origin = "{0, 0}";
scale = "{-1.607, 1}";
type = Corner;
name = _corner.Serif;
},
{
origin = "{0, 2}";
scale = "{-1.08, 1}";
type = Corner;
name = _corner.Serif;
}
);
layerId = "2B88661E-23DD-4EDA-82FC-C2AEA983F097";
paths = (
{
closed = 1;
nodes = (
"168 0 LINE",
"168 682 LINE",
"140 682 LINE",
"140 0 LINE"
);
},
{
closed = 1;
nodes = (
"416 300 LINE SMOOTH",
"550 300 OFFCURVE",
"640 364 OFFCURVE",
"640 491 CURVE SMOOTH",
"640 618 OFFCURVE",
"550 682 OFFCURVE",
"416 682 CURVE SMOOTH",
"168 682 LINE",
"168 659 LINE",
"409 659 LINE SMOOTH",
"533 659 OFFCURVE",
"612 603 OFFCURVE",
"612 491 CURVE SMOOTH",
"612 379 OFFCURVE",
"533 323 OFFCURVE",
"409 323 CURVE SMOOTH",
"168 323 LINE",
"168 300 LINE"
);
}
);
width = 691;
}
);
leftKerningGroup = I;
leftMetricsKey = H;
rightKerningGroup = P;
unicode = 0050;
},
{
color = 8;
glyphname = Thorn;
lastChange = "2021-06-30 11:50:25 +0000";
layers = (
{
hints = (
{
origin = "{0, 2}";
scale = "{-1.18, 1}";
type = Corner;
name = _corner.Serif;
},
{
origin = "{0, 3}";
scale = "{1.2, 1}";
type = Corner;
name = _corner.Serif;
options = 1;
},
{
origin = "{0, 0}";
scale = "{-1.2, 1}";
type = Corner;
name = _corner.Serif;
},
{
origin = "{0, 1}";
scale = "{1.18, 1}";
type = Corner;
name = _corner.Serif;
}
);
layerId = "1E61A082-F045-49A7-AB52-DD1B03FD9B54";
paths = (
{
closed = 1;
nodes = (
"166 0 LINE",
"166 682 LINE",
"144 682 LINE",
"144 0 LINE"
);
},
{
closed = 1;
nodes = (
"401 165 LINE SMOOTH",
"529 165 OFFCURVE",
"615 228 OFFCURVE",
"615 351 CURVE SMOOTH",
"615 474 OFFCURVE",
"529 537 OFFCURVE",
"401 537 CURVE SMOOTH",
"166 537 LINE",
"166 520 LINE",
"396 520 LINE SMOOTH",
"517 520 OFFCURVE",
"593 463 OFFCURVE",
"593 351 CURVE SMOOTH",
"593 239 OFFCURVE",
"517 182 OFFCURVE",
"396 182 CURVE SMOOTH",
"166 182 LINE",
"166 165 LINE"
);
}
);
width = 659;
},
{
hints = (
{
origin = "{0, 2}";
scale = "{-1.18, 1}";
type = Corner;
name = _corner.Serif;
},
{
origin = "{0, 3}";
scale = "{1.2, 1}";
type = Corner;
name = _corner.Serif;
options = 1;
},
{
origin = "{0, 0}";
scale = "{-1.2, 1}";
type = Corner;
name = _corner.Serif;
},
{
origin = "{0, 1}";
scale = "{1.18, 1}";
type = Corner;
name = _corner.Serif;
}
);
layerId = "219068EA-2B9B-40DC-949E-B60449C01B8A";
paths = (
{
closed = 1;
nodes = (
"299 0 LINE",
"299 682 LINE",
"108 682 LINE",
"108 0 LINE"
);
},
{
closed = 1;
nodes = (
"473 159 LINE SMOOTH",
"613 159 OFFCURVE",
"706 221 OFFCURVE",
"706 345 CURVE SMOOTH",
"706 470 OFFCURVE",
"613 532 OFFCURVE",
"473 532 CURVE SMOOTH",
"299 532 LINE",
"299 430 LINE",
"411 430 LINE SMOOTH",
"473 430 OFFCURVE",
"510 403 OFFCURVE",
"510 345 CURVE SMOOTH",
"510 288 OFFCURVE",
"473 260 OFFCURVE",
"411 260 CURVE SMOOTH",
"299 260 LINE",
"299 159 LINE"
);
}
);
width = 737;
},
{
hints = (
{
origin = "{0, 2}";
scale = "{-1.18, 0.98}";
type = Corner;
name = _corner.Serif;
},
{
origin = "{0, 3}";
scale = "{1.2, 1}";
type = Corner;
name = _corner.Serif;
options = 1;
},
{
origin = "{0, 0}";
scale = "{-1.2, 1}";
type = Corner;
name = _corner.Serif;
},
{
origin = "{0, 1}";
scale = "{1.18, 0.98}";
type = Corner;
name = _corner.Serif;
}
);
layerId = "0C29AA02-E021-4BD1-A2C4-87F681D64C35";
rightMetricsKey = "=P-26";
paths = (
{
closed = 1;
nodes = (
"302 0 LINE",
"302 682 LINE",
"111 682 LINE",
"111 0 LINE"
);
},
{
closed = 1;
nodes = (
"436 163 LINE SMOOTH",
"574 163 OFFCURVE",
"665 224 OFFCURVE",
"665 345 CURVE SMOOTH",
"665 466 OFFCURVE",
"574 527 OFFCURVE",
"436 527 CURVE SMOOTH",
"302 527 LINE",
"302 434 LINE",
"368 434 LINE SMOOTH",
"431 434 OFFCURVE",
"470 405 OFFCURVE",
"470 345 CURVE SMOOTH",
"470 285 OFFCURVE",
"431 256 OFFCURVE",
"368 256 CURVE SMOOTH",
"302 256 LINE",
"302 163 LINE"
);
}
);
width = 656;
},
{
hints = (
{
origin = "{0, 2}";
scale = "{-1.18, 1}";
type = Corner;
name = _corner.Serif;
},
{
origin = "{0, 3}";
scale = "{1.2, 1}";
type = Corner;
name = _corner.Serif;
options = 1;
},
{
origin = "{0, 0}";
scale = "{-1.2, 1}";
type = Corner;
name = _corner.Serif;
},
{
origin = "{0, 1}";
scale = "{1.18, 1}";
type = Corner;
name = _corner.Serif;
}
);
layerId = "2B88661E-23DD-4EDA-82FC-C2AEA983F097";
paths = (
{
closed = 1;
nodes = (
"176 0 LINE",
"176 682 LINE",
"148 682 LINE",
"148 0 LINE"
);
},
{
closed = 1;
nodes = (
"424 161 LINE SMOOTH",
"558 161 OFFCURVE",
"648 225 OFFCURVE",
"648 352 CURVE SMOOTH",
"648 479 OFFCURVE",
"558 543 OFFCURVE",
"424 543 CURVE SMOOTH",
"176 543 LINE",
"176 520 LINE",
"417 520 LINE SMOOTH",
"541 520 OFFCURVE",
"620 464 OFFCURVE",
"620 352 CURVE SMOOTH",
"620 240 OFFCURVE",
"541 184 OFFCURVE",
"417 184 CURVE SMOOTH",
"176 184 LINE",
"176 161 LINE"
);
}
);
width = 699;
}
);
leftKerningGroup = I;
leftMetricsKey = I;
rightMetricsKey = P;
unicode = 00DE;
},
{
color = 8;
glyphname = Q;
lastChange = "2021-06-30 11:45:22 +0000";
layers = (
{
anchors = (
{
name = bottom;
position = "{385, 0}";
},
{
name = top;
position = "{385, 682}";
}
);
layerId = "1E61A082-F045-49A7-AB52-DD1B03FD9B54";
paths = (
{
closed = 1;
nodes = (
"575 -13 OFFCURVE",
"715 117 OFFCURVE",
"715 341 CURVE SMOOTH",
"715 565 OFFCURVE",
"575 695 OFFCURVE",
"385 695 CURVE SMOOTH",
"194 695 OFFCURVE",
"54 565 OFFCURVE",
"54 341 CURVE SMOOTH",
"54 117 OFFCURVE",
"194 -13 OFFCURVE",
"385 -13 CURVE SMOOTH"
);
},
{
closed = 1;
nodes = (
"199 4 OFFCURVE",
"76 137 OFFCURVE",
"76 341 CURVE SMOOTH",
"76 545 OFFCURVE",
"199 678 OFFCURVE",
"385 678 CURVE SMOOTH",
"570 678 OFFCURVE",
"693 545 OFFCURVE",
"693 341 CURVE SMOOTH",
"693 137 OFFCURVE",
"570 4 OFFCURVE",
"385 4 CURVE SMOOTH"
);
},
{
closed = 1;
nodes = (
"340 0 LINE",
"340 89 LINE SMOOTH",
"340 145 OFFCURVE",
"365 174 OFFCURVE",
"408 174 CURVE SMOOTH",
"451 174 OFFCURVE",
"475 145 OFFCURVE",
"475 89 CURVE SMOOTH",
"475 0 LINE",
"495 0 LINE",
"495 89 LINE SMOOTH",
"495 157 OFFCURVE",
"461 191 OFFCURVE",
"410 191 CURVE SMOOTH",
"359 191 OFFCURVE",
"322 157 OFFCURVE",
"322 89 CURVE SMOOTH",
"322 0 LINE"
);
},
{
closed = 1;
nodes = (
"616 -155 OFFCURVE",
"651 -120 OFFCURVE",
"651 -53 CURVE SMOOTH",
"651 0 LINE",
"633 0 LINE",
"633 -53 LINE SMOOTH",
"633 -109 OFFCURVE",
"608 -137 OFFCURVE",
"564 -137 CURVE SMOOTH",
"520 -137 OFFCURVE",
"495 -109 OFFCURVE",
"495 -53 CURVE SMOOTH",
"495 0 LINE",
"475 0 LINE",
"475 -53 LINE SMOOTH",
"475 -120 OFFCURVE",
"513 -155 OFFCURVE",
"565 -155 CURVE SMOOTH"
);
}
);
width = 769;
},
{
anchors = (
{
name = bottom;
position = "{439, 0}";
},
{
name = top;
position = "{439, 682}";
}
);
layerId = "219068EA-2B9B-40DC-949E-B60449C01B8A";
paths = (
{
closed = 1;
nodes = (
"682 -16 OFFCURVE",
"841 113 OFFCURVE",
"841 341 CURVE SMOOTH",
"841 569 OFFCURVE",
"682 698 OFFCURVE",
"439 698 CURVE SMOOTH",
"196 698 OFFCURVE",
"37 569 OFFCURVE",
"37 341 CURVE SMOOTH",
"37 113 OFFCURVE",
"196 -16 OFFCURVE",
"439 -16 CURVE SMOOTH"
);
},
{
closed = 1;
nodes = (
"318 90 OFFCURVE",
"245 180 OFFCURVE",
"245 341 CURVE SMOOTH",
"245 502 OFFCURVE",
"318 592 OFFCURVE",
"439 592 CURVE SMOOTH",
"560 592 OFFCURVE",
"633 502 OFFCURVE",
"633 341 CURVE SMOOTH",
"633 180 OFFCURVE",
"560 90 OFFCURVE",
"439 90 CURVE SMOOTH"
);
},
{
closed = 1;
nodes = (
"400 30 LINE",
"400 190 LINE SMOOTH",
"400 205 OFFCURVE",
"407 214 OFFCURVE",
"420 214 CURVE SMOOTH",
"433 214 OFFCURVE",
"440 205 OFFCURVE",
"440 190 CURVE SMOOTH",
"440 0 LINE",
"565 0 LINE",
"565 175 LINE SMOOTH",
"565 263 OFFCURVE",
"517 308 OFFCURVE",
"441 308 CURVE SMOOTH",
"365 308 OFFCURVE",
"317 263 OFFCURVE",
"317 175 CURVE SMOOTH",
"317 30 LINE"
);
},
{
closed = 1;
nodes = (
"635 -173 OFFCURVE",
"682 -130 OFFCURVE",
"682 -45 CURVE SMOOTH",
"682 -18 LINE",
"605 -18 LINE",
"605 -60 LINE SMOOTH",
"605 -75 OFFCURVE",
"598 -84 OFFCURVE",
"585 -84 CURVE SMOOTH",
"571 -84 OFFCURVE",
"565 -75 OFFCURVE",
"565 -60 CURVE SMOOTH",
"565 0 LINE",
"440 0 LINE",
"440 -45 LINE SMOOTH",
"440 -130 OFFCURVE",
"486 -173 OFFCURVE",
"561 -173 CURVE SMOOTH"
);
}
);
width = 878;
},
{
anchors = (
{
name = bottom;
position = "{417, 0}";
},
{
name = top;
position = "{417, 682}";
}
);
layerId = "0C29AA02-E021-4BD1-A2C4-87F681D64C35";
paths = (
{
closed = 1;
nodes = (
"648 -15 OFFCURVE",
"801 116 OFFCURVE",
"801 341 CURVE SMOOTH",
"801 565 OFFCURVE",
"648 696 OFFCURVE",
"417 696 CURVE SMOOTH",
"186 696 OFFCURVE",
"34 565 OFFCURVE",
"34 341 CURVE SMOOTH",
"34 116 OFFCURVE",
"186 -15 OFFCURVE",
"417 -15 CURVE SMOOTH"
);
},
{
closed = 1;
nodes = (
"300 71 OFFCURVE",
"237 169 OFFCURVE",
"237 340 CURVE SMOOTH",
"237 511 OFFCURVE",
"300 608 OFFCURVE",
"417 608 CURVE SMOOTH",
"535 608 OFFCURVE",
"597 511 OFFCURVE",
"597 340 CURVE SMOOTH",
"597 160 OFFCURVE",
"535 71 OFFCURVE",
"417 71 CURVE SMOOTH"
);
},
{
closed = 1;
nodes = (
"376 30 LINE",
"376 190 LINE SMOOTH",
"376 205 OFFCURVE",
"385 214 OFFCURVE",
"398 214 CURVE SMOOTH",
"412 214 OFFCURVE",
"420 205 OFFCURVE",
"420 190 CURVE SMOOTH",
"420 0 LINE",
"543 0 LINE",
"543 175 LINE SMOOTH",
"543 263 OFFCURVE",
"495 308 OFFCURVE",
"419 308 CURVE SMOOTH",
"343 308 OFFCURVE",
"295 263 OFFCURVE",
"295 175 CURVE SMOOTH",
"295 30 LINE"
);
},
{
closed = 1;
nodes = (
"615 -173 OFFCURVE",
"660 -130 OFFCURVE",
"660 -45 CURVE SMOOTH",
"660 -17 LINE",
"585 -17 LINE",
"585 -60 LINE SMOOTH",
"585 -75 OFFCURVE",
"577 -84 OFFCURVE",
"564 -84 CURVE SMOOTH",
"550 -84 OFFCURVE",
"543 -75 OFFCURVE",
"543 -60 CURVE SMOOTH",
"543 0 LINE",
"420 0 LINE",
"420 -45 LINE SMOOTH",
"420 -130 OFFCURVE",
"466 -173 OFFCURVE",
"541 -173 CURVE SMOOTH"
);
}
);
width = 835;
},
{
anchors = (
{
name = bottom;
position = "{413, 0}";
},
{
name = top;
position = "{413, 682}";
}
);
layerId = "2B88661E-23DD-4EDA-82FC-C2AEA983F097";
paths = (
{
closed = 1;
nodes = (
"616 -15 OFFCURVE",
"764 114 OFFCURVE",
"764 341 CURVE SMOOTH",
"764 568 OFFCURVE",
"616 697 OFFCURVE",
"413 697 CURVE SMOOTH",
"210 697 OFFCURVE",
"62 568 OFFCURVE",
"62 341 CURVE SMOOTH",
"62 114 OFFCURVE",
"210 -15 OFFCURVE",
"413 -15 CURVE SMOOTH"
);
},
{
closed = 1;
nodes = (
"219 8 OFFCURVE",
"90 134 OFFCURVE",
"90 341 CURVE SMOOTH",
"90 548 OFFCURVE",
"219 674 OFFCURVE",
"413 674 CURVE SMOOTH",
"606 674 OFFCURVE",
"736 548 OFFCURVE",
"736 341 CURVE SMOOTH",
"736 134 OFFCURVE",
"606 8 OFFCURVE",
"413 8 CURVE SMOOTH"
);
},
{
closed = 1;
nodes = (
"373 1 LINE",
"373 117 LINE SMOOTH",
"373 170 OFFCURVE",
"395 198 OFFCURVE",
"436 198 CURVE SMOOTH",
"477 198 OFFCURVE",
"500 170 OFFCURVE",
"500 117 CURVE SMOOTH",
"500 0 LINE",
"525 0 LINE",
"525 117 LINE SMOOTH",
"525 185 OFFCURVE",
"491 220 OFFCURVE",
"437 220 CURVE SMOOTH",
"384 220 OFFCURVE",
"349 185 OFFCURVE",
"349 117 CURVE SMOOTH",
"349 1 LINE"
);
},
{
closed = 1;
nodes = (
"645 -192 OFFCURVE",
"679 -158 OFFCURVE",
"679 -89 CURVE SMOOTH",
"679 -37 LINE",
"655 -37 LINE",
"655 -90 LINE SMOOTH",
"655 -143 OFFCURVE",
"631 -170 OFFCURVE",
"590 -170 CURVE SMOOTH",
"548 -170 OFFCURVE",
"525 -143 OFFCURVE",
"525 -90 CURVE SMOOTH",
"525 0 LINE",
"500 0 LINE",
"500 -89 LINE SMOOTH",
"500 -158 OFFCURVE",
"537 -192 OFFCURVE",
"591 -192 CURVE SMOOTH"
);
}
);
width = 825;
}
);
leftKerningGroup = O;
leftMetricsKey = O;
rightKerningGroup = O;
rightMetricsKey = O;
unicode = 0051;
},
{
color = 8;
glyphname = R;
lastChange = "2021-06-30 11:40:40 +0000";
layers = (
{
anchors = (
{
name = bottom;
position = "{350, 0}";
},
{
name = top;
position = "{350, 682}";
}
);
hints = (
{
origin = "{0, 3}";
scale = "{1.1, 1}";
type = Corner;
name = _corner.Serif;
options = 1;
},
{
origin = "{0, 0}";
scale = "{-1.4, 1}";
type = Corner;
name = _corner.Serif;
},
{
origin = "{0, 2}";
scale = "{-1.08, 1}";
type = Corner;
name = _corner.Serif;
}
);
layerId = "1E61A082-F045-49A7-AB52-DD1B03FD9B54";
paths = (
{
closed = 1;
nodes = (
"159 0 LINE",
"159 682 LINE",
"137 682 LINE",
"137 0 LINE"
);
},
{
closed = 1;
nodes = (
"605 -9 OFFCURVE",
"631 28 OFFCURVE",
"631 86 CURVE SMOOTH",
"631 265 LINE",
"613 265 LINE",
"613 86 LINE SMOOTH",
"613 43 OFFCURVE",
"595 8 OFFCURVE",
"550 8 CURVE SMOOTH",
"503 8 OFFCURVE",
"488 43 OFFCURVE",
"484 86 CURVE SMOOTH",
"475 169 LINE SMOOTH",
"465 279 OFFCURVE",
"422 337 OFFCURVE",
"307 337 CURVE SMOOTH",
"159 337 LINE",
"159 328 LINE",
"299 328 LINE SMOOTH",
"399 328 OFFCURVE",
"445 270 OFFCURVE",
"454 173 CURVE SMOOTH",
"462 86 LINE SMOOTH",
"467 29 OFFCURVE",
"490 -9 OFFCURVE",
"548 -9 CURVE SMOOTH"
);
},
{
closed = 1;
nodes = (
"348 328 LINE",
"353 330 LINE",
"419 330 LINE SMOOTH",
"542 330 OFFCURVE",
"628 388 OFFCURVE",
"628 505 CURVE SMOOTH",
"628 622 OFFCURVE",
"542 682 OFFCURVE",
"419 682 CURVE SMOOTH",
"159 682 LINE",
"159 665 LINE",
"413 665 LINE SMOOTH",
"531 665 OFFCURVE",
"606 611 OFFCURVE",
"606 505 CURVE SMOOTH",
"606 399 OFFCURVE",
"531 345 OFFCURVE",
"413 345 CURVE SMOOTH",
"159 345 LINE",
"159 328 LINE"
);
}
);
width = 694;
},
{
anchors = (
{
name = bottom;
position = "{399, 0}";
},
{
name = top;
position = "{394, 682}";
}
);
hints = (
{
origin = "{0, 3}";
scale = "{1.1, 1}";
type = Corner;
name = _corner.Serif;
options = 1;
},
{
origin = "{0, 0}";
scale = "{-1, 1}";
type = Corner;
name = _corner.Serif;
},
{
origin = "{0, 2}";
scale = "{-1.08, 1}";
type = Corner;
name = _corner.Serif;
}
);
layerId = "219068EA-2B9B-40DC-949E-B60449C01B8A";
paths = (
{
closed = 1;
nodes = (
"299 0 LINE",
"299 685 LINE",
"108 685 LINE",
"108 0 LINE"
);
},
{
closed = 1;
nodes = (
"712 -8 OFFCURVE",
"766 60 OFFCURVE",
"766 165 CURVE SMOOTH",
"766 276 LINE",
"660 276 LINE",
"660 145 LINE SMOOTH",
"660 120 OFFCURVE",
"651 105 OFFCURVE",
"627 105 CURVE SMOOTH",
"602 105 OFFCURVE",
"593 120 OFFCURVE",
"593 145 CURVE SMOOTH",
"593 166 LINE SMOOTH",
"593 263 OFFCURVE",
"555 319 OFFCURVE",
"449 319 CURVE SMOOTH",
"299 318 LINE",
"299 295 LINE",
"315 295 LINE SMOOTH",
"373 295 OFFCURVE",
"396 278 OFFCURVE",
"401 210 CURVE SMOOTH",
"405 168 LINE SMOOTH",
"413 60 OFFCURVE",
"465 -8 OFFCURVE",
"590 -8 CURVE SMOOTH"
);
},
{
closed = 1;
nodes = (
"412 295 LINE",
"436 316 LINE",
"500 316 LINE SMOOTH",
"645 316 OFFCURVE",
"741 379 OFFCURVE",
"741 502 CURVE SMOOTH",
"741 624 OFFCURVE",
"643 685 OFFCURVE",
"495 685 CURVE SMOOTH",
"299 685 LINE",
"299 585 LINE",
"431 585 LINE SMOOTH",
"502 585 OFFCURVE",
"545 555 OFFCURVE",
"545 490 CURVE SMOOTH",
"545 426 OFFCURVE",
"502 395 OFFCURVE",
"431 395 CURVE SMOOTH",
"299 395 LINE",
"299 295 LINE"
);
}
);
width = 801;
},
{
anchors = (
{
name = bottom;
position = "{380, 0}";
},
{
name = top;
position = "{369, 682}";
}
);
hints = (
{
origin = "{0, 3}";
scale = "{1.1, 1}";
type = Corner;
name = _corner.Serif;
options = 1;
},
{
origin = "{0, 0}";
scale = "{-0.96, 1}";
type = Corner;
name = _corner.Serif;
},
{
origin = "{0, 2}";
scale = "{-1.08, 0.98}";
type = Corner;
name = _corner.Serif;
}
);
layerId = "0C29AA02-E021-4BD1-A2C4-87F681D64C35";
paths = (
{
closed = 1;
nodes = (
"295 0 LINE",
"295 682 LINE",
"105 682 LINE",
"105 0 LINE"
);
},
{
closed = 1;
nodes = (
"684 -10 OFFCURVE",
"723 55 OFFCURVE",
"723 155 CURVE SMOOTH",
"723 305 LINE",
"630 305 LINE",
"630 153 LINE SMOOTH",
"630 125 OFFCURVE",
"618 113 OFFCURVE",
"598 113 CURVE SMOOTH",
"579 113 OFFCURVE",
"566 125 OFFCURVE",
"566 153 CURVE SMOOTH",
"566 162 LINE SMOOTH",
"566 286 OFFCURVE",
"507 327 OFFCURVE",
"387 327 CURVE SMOOTH",
"295 327 LINE",
"295 297 LINE",
"306 297 LINE SMOOTH",
"354 297 OFFCURVE",
"370 274 OFFCURVE",
"381 213 CURVE SMOOTH",
"389 168 LINE SMOOTH",
"408 60 OFFCURVE",
"452 -10 OFFCURVE",
"570 -10 CURVE SMOOTH"
);
},
{
closed = 1;
nodes = (
"344 297 LINE",
"372 327 LINE",
"469 327 LINE SMOOTH",
"614 327 OFFCURVE",
"710 384 OFFCURVE",
"710 501 CURVE SMOOTH",
"710 623 OFFCURVE",
"614 682 OFFCURVE",
"469 682 CURVE SMOOTH",
"295 682 LINE",
"295 591 LINE",
"400 591 LINE SMOOTH",
"471 591 OFFCURVE",
"515 558 OFFCURVE",
"515 490 CURVE SMOOTH",
"515 423 OFFCURVE",
"471 390 OFFCURVE",
"400 390 CURVE SMOOTH",
"295 390 LINE",
"295 297 LINE"
);
}
);
width = 759;
},
{
anchors = (
{
name = bottom;
position = "{366, 0}";
},
{
name = top;
position = "{365, 682}";
}
);
hints = (
{
origin = "{0, 3}";
scale = "{1.1, 1}";
type = Corner;
name = _corner.Serif;
options = 1;
},
{
origin = "{0, 0}";
scale = "{-1.386, 1}";
type = Corner;
name = _corner.Serif;
},
{
origin = "{0, 2}";
scale = "{-1.08, 1}";
type = Corner;
name = _corner.Serif;
}
);
layerId = "2B88661E-23DD-4EDA-82FC-C2AEA983F097";
paths = (
{
closed = 1;
nodes = (
"168 0 LINE",
"168 682 LINE",
"140 682 LINE",
"140 0 LINE"
);
},
{
closed = 1;
nodes = (
"644 -9 OFFCURVE",
"675 35 OFFCURVE",
"675 102 CURVE SMOOTH",
"675 246 LINE",
"652 246 LINE",
"652 101 LINE SMOOTH",
"652 53 OFFCURVE",
"630 15 OFFCURVE",
"577 15 CURVE SMOOTH",
"522 15 OFFCURVE",
"501 53 OFFCURVE",
"501 101 CURVE SMOOTH",
"501 154 LINE SMOOTH",
"501 269 OFFCURVE",
"450 327 OFFCURVE",
"333 327 CURVE SMOOTH",
"168 327 LINE",
"168 316 LINE",
"320 316 LINE SMOOTH",
"412 316 OFFCURVE",
"474 260 OFFCURVE",
"474 159 CURVE SMOOTH",
"474 102 LINE SMOOTH",
"474 35 OFFCURVE",
"506 -9 OFFCURVE",
"575 -9 CURVE SMOOTH"
);
},
{
closed = 1;
nodes = (
"381 316 LINE",
"384 319 LINE",
"442 319 LINE SMOOTH",
"572 319 OFFCURVE",
"662 379 OFFCURVE",
"662 500 CURVE SMOOTH",
"662 620 OFFCURVE",
"573 682 OFFCURVE",
"443 682 CURVE SMOOTH",
"168 682 LINE",
"168 659 LINE",
"436 659 LINE SMOOTH",
"558 659 OFFCURVE",
"634 605 OFFCURVE",
"634 499 CURVE SMOOTH",
"634 393 OFFCURVE",
"558 339 OFFCURVE",
"436 339 CURVE SMOOTH",
"168 339 LINE",
"168 316 LINE"
);
}
);
width = 733;
}
);
leftKerningGroup = I;
leftMetricsKey = H;
rightKerningGroup = R;
unicode = 0052;
},
{
color = 8;
glyphname = S;
lastChange = "2021-06-30 11:46:27 +0000";
layers = (
{
anchors = (
{
name = bottom;
position = "{360, 0}";
},
{
name = top;
position = "{325, 682}";
}
);
layerId = "1E61A082-F045-49A7-AB52-DD1B03FD9B54";
paths = (
{
closed = 1;
nodes = (
"514 -11 OFFCURVE",
"597 48 OFFCURVE",
"597 169 CURVE SMOOTH",
"597 290 OFFCURVE",
"509 329 OFFCURVE",
"389 351 CURVE SMOOTH",
"295 368 LINE SMOOTH",
"190 387 OFFCURVE",
"114 419 OFFCURVE",
"114 522 CURVE SMOOTH",
"114 623 OFFCURVE",
"183 676 OFFCURVE",
"302 676 CURVE SMOOTH",
"418 676 OFFCURVE",
"515 607 OFFCURVE",
"558 450 CURVE",
"573 450 LINE",
"538 625 OFFCURVE",
"425 693 OFFCURVE",
"302 693 CURVE SMOOTH",
"175 693 OFFCURVE",
"92 639 OFFCURVE",
"92 522 CURVE SMOOTH",
"92 405 OFFCURVE",
"179 370 OFFCURVE",
"291 349 CURVE SMOOTH",
"385 331 LINE SMOOTH",
"490 311 OFFCURVE",
"575 279 OFFCURVE",
"575 169 CURVE SMOOTH",
"575 65 OFFCURVE",
"505 6 OFFCURVE",
"385 6 CURVE SMOOTH",
"261 6 OFFCURVE",
"155 81 OFFCURVE",
"106 241 CURVE",
"91 241 LINE",
"134 63 OFFCURVE",
"252 -11 OFFCURVE",
"385 -11 CURVE SMOOTH"
);
},
{
closed = 1;
nodes = (
"104 0 LINE",
"104 211 LINE",
"91 241 LINE",
"86 241 LINE",
"86 0 LINE"
);
},
{
closed = 1;
nodes = (
"578 450 LINE",
"578 682 LINE",
"560 682 LINE",
"560 484 LINE",
"573 450 LINE"
);
}
);
width = 676;
},
{
anchors = (
{
name = bottom;
position = "{388, 0}";
},
{
name = top;
position = "{352, 682}";
}
);
layerId = "219068EA-2B9B-40DC-949E-B60449C01B8A";
paths = (
{
closed = 1;
nodes = (
"586 -12 OFFCURVE",
"692 60 OFFCURVE",
"692 206 CURVE SMOOTH",
"692 353 OFFCURVE",
"564 406 OFFCURVE",
"392 431 CURVE SMOOTH",
"328 440 LINE SMOOTH",
"273 448 OFFCURVE",
"225 466 OFFCURVE",
"225 517 CURVE SMOOTH",
"225 568 OFFCURVE",
"267 589 OFFCURVE",
"331 589 CURVE SMOOTH",
"425 589 OFFCURVE",
"508 551 OFFCURVE",
"544 473 CURVE",
"594 473 LINE",
"559 639 OFFCURVE",
"446 694 OFFCURVE",
"305 694 CURVE SMOOTH",
"161 694 OFFCURVE",
"47 631 OFFCURVE",
"47 488 CURVE SMOOTH",
"47 344 OFFCURVE",
"173 278 OFFCURVE",
"338 254 CURVE SMOOTH",
"402 245 LINE SMOOTH",
"460 237 OFFCURVE",
"513 220 OFFCURVE",
"513 168 CURVE SMOOTH",
"513 117 OFFCURVE",
"473 94 OFFCURVE",
"406 94 CURVE SMOOTH",
"301 94 OFFCURVE",
"211 134 OFFCURVE",
"174 218 CURVE",
"113 218 LINE",
"148 50 OFFCURVE",
"274 -12 OFFCURVE",
"431 -12 CURVE SMOOTH"
);
},
{
closed = 1;
nodes = (
"172 0 LINE",
"172 130 LINE",
"113 218 LINE",
"61 218 LINE",
"61 0 LINE"
);
},
{
closed = 1;
nodes = (
"656 473 LINE",
"656 682 LINE",
"545 682 LINE",
"545 580 LINE",
"594 473 LINE"
);
}
);
width = 734;
},
{
anchors = (
{
name = bottom;
position = "{370, 0}";
},
{
name = top;
position = "{317, 682}";
}
);
layerId = "0C29AA02-E021-4BD1-A2C4-87F681D64C35";
paths = (
{
closed = 1;
nodes = (
"550 -15 OFFCURVE",
"646 60 OFFCURVE",
"646 205 CURVE SMOOTH",
"646 352 OFFCURVE",
"527 409 OFFCURVE",
"366 434 CURVE SMOOTH",
"303 444 LINE SMOOTH",
"248 453 OFFCURVE",
"207 480 OFFCURVE",
"207 529 CURVE SMOOTH",
"207 578 OFFCURVE",
"244 606 OFFCURVE",
"306 606 CURVE SMOOTH",
"398 606 OFFCURVE",
"484 546 OFFCURVE",
"520 446 CURVE",
"559 446 LINE",
"532 627 OFFCURVE",
"415 696 OFFCURVE",
"279 696 CURVE SMOOTH",
"142 696 OFFCURVE",
"42 630 OFFCURVE",
"42 487 CURVE SMOOTH",
"42 343 OFFCURVE",
"159 275 OFFCURVE",
"313 251 CURVE SMOOTH",
"376 241 LINE SMOOTH",
"432 232 OFFCURVE",
"478 210 OFFCURVE",
"478 158 CURVE SMOOTH",
"478 106 OFFCURVE",
"443 77 OFFCURVE",
"380 77 CURVE SMOOTH",
"275 77 OFFCURVE",
"185 140 OFFCURVE",
"146 245 CURVE",
"107 245 LINE",
"127 57 OFFCURVE",
"254 -15 OFFCURVE",
"402 -15 CURVE SMOOTH"
);
},
{
closed = 1;
nodes = (
"155 0 LINE",
"155 176 LINE",
"107 245 LINE",
"56 245 LINE",
"56 0 LINE"
);
},
{
closed = 1;
nodes = (
"610 446 LINE",
"610 682 LINE",
"512 682 LINE",
"512 507 LINE",
"559 446 LINE"
);
}
);
width = 680;
},
{
anchors = (
{
name = bottom;
position = "{377, 0}";
},
{
name = top;
position = "{344, 682}";
}
);
layerId = "2B88661E-23DD-4EDA-82FC-C2AEA983F097";
paths = (
{
closed = 1;
nodes = (
"546 -11 OFFCURVE",
"633 50 OFFCURVE",
"633 172 CURVE SMOOTH",
"633 291 OFFCURVE",
"537 335 OFFCURVE",
"405 356 CURVE SMOOTH",
"309 371 LINE SMOOTH",
"197 388 OFFCURVE",
"114 421 OFFCURVE",
"114 522 CURVE SMOOTH",
"114 619 OFFCURVE",
"185 670 OFFCURVE",
"313 670 CURVE SMOOTH",
"437 670 OFFCURVE",
"543 611 OFFCURVE",
"589 477 CURVE",
"606 477 LINE",
"570 633 OFFCURVE",
"445 693 OFFCURVE",
"312 693 CURVE SMOOTH",
"175 693 OFFCURVE",
"87 639 OFFCURVE",
"87 521 CURVE SMOOTH",
"87 405 OFFCURVE",
"181 363 OFFCURVE",
"306 344 CURVE SMOOTH",
"402 329 LINE SMOOTH",
"515 311 OFFCURVE",
"606 278 OFFCURVE",
"606 171 CURVE SMOOTH",
"606 70 OFFCURVE",
"534 12 OFFCURVE",
"404 12 CURVE SMOOTH",
"273 12 OFFCURVE",
"157 76 OFFCURVE",
"106 214 CURVE",
"86 214 LINE",
"128 63 OFFCURVE",
"262 -11 OFFCURVE",
"405 -11 CURVE SMOOTH"
);
},
{
closed = 1;
nodes = (
"105 0 LINE",
"105 176 LINE",
"86 214 LINE",
"82 214 LINE",
"82 0 LINE"
);
},
{
closed = 1;
nodes = (
"613 477 LINE",
"613 682 LINE",
"590 682 LINE",
"590 513 LINE",
"606 477 LINE"
);
}
);
width = 703;
}
);
leftKerningGroup = S;
rightKerningGroup = S;
unicode = 0053;
},
{
color = 8;
glyphname = Germandbls;
lastChange = "2021-06-30 11:50:25 +0000";
layers = (
{
hints = (
{
origin = "{0, 32}";
scale = "{0.86, 1}";
type = Corner;
name = _corner.Serif;
}
);
layerId = "1E61A082-F045-49A7-AB52-DD1B03FD9B54";
paths = (
{
closed = 1;
nodes = (
"130 0 LINE",
"130 449 LINE SMOOTH",
"130 602 OFFCURVE",
"219 680 OFFCURVE",
"366 680 CURVE SMOOTH",
"450 680 OFFCURVE",
"521 654 OFFCURVE",
"556 630 CURVE",
"558 639 LINE",
"350 415 LINE",
"350 400 LINE",
"496 400 OFFCURVE",
"590 347 OFFCURVE",
"590 195 CURVE SMOOTH",
"590 91 OFFCURVE",
"535 8 OFFCURVE",
"426 8 CURVE",
"427 -9 LINE",
"547 -9 OFFCURVE",
"612 76 OFFCURVE",
"612 197 CURVE SMOOTH",
"612 356 OFFCURVE",
"506 417 OFFCURVE",
"360 417 CURVE",
"366 407 LINE",
"579 636 LINE",
"524 675 OFFCURVE",
"460 697 OFFCURVE",
"366 697 CURVE SMOOTH",
"207 697 OFFCURVE",
"108 615 OFFCURVE",
"108 449 CURVE SMOOTH",
"108 0 LINE"
);
},
{
closed = 1;
nodes = (
"426 8 LINE",
"336 8 OFFCURVE",
"272 63 OFFCURVE",
"267 169 CURVE",
"252 169 LINE",
"256 52 OFFCURVE",
"324 -9 OFFCURVE",
"427 -9 CURVE"
);
}
);
width = 691;
},
{
hints = (
{
origin = "{0, 32}";
scale = "{0.86, 1}";
type = Corner;
name = _corner.Serif;
}
);
layerId = "219068EA-2B9B-40DC-949E-B60449C01B8A";
paths = (
{
closed = 1;
nodes = (
"264 0 LINE",
"264 404 LINE SMOOTH",
"264 525 OFFCURVE",
"328 588 OFFCURVE",
"434 588 CURVE SMOOTH",
"492 588 OFFCURVE",
"540 573 OFFCURVE",
"579 551 CURVE",
"599 632 LINE",
"384 420 LINE",
"384 325 LINE",
"503 325 OFFCURVE",
"555 276 OFFCURVE",
"555 186 CURVE SMOOTH",
"555 138 OFFCURVE",
"539 110 OFFCURVE",
"505 110 CURVE",
"539 -9 LINE",
"658 -9 OFFCURVE",
"740 66 OFFCURVE",
"740 188 CURVE SMOOTH",
"740 343 OFFCURVE",
"629 420 OFFCURVE",
"459 420 CURVE",
"489 384 LINE",
"704 596 LINE",
"659 639 OFFCURVE",
"559 696 OFFCURVE",
"413 696 CURVE SMOOTH",
"209 696 OFFCURVE",
"84 593 OFFCURVE",
"84 385 CURVE SMOOTH",
"84 0 LINE"
);
},
{
closed = 1;
nodes = (
"505 110 LINE",
"477 110 OFFCURVE",
"460 130 OFFCURVE",
"459 160 CURVE",
"355 160 LINE",
"355 54 OFFCURVE",
"417 -9 OFFCURVE",
"539 -9 CURVE"
);
}
);
width = 782;
},
{
hints = (
{
origin = "{0, 32}";
scale = "{0.86, 1}";
type = Corner;
name = _corner.Serif;
}
);
layerId = "0C29AA02-E021-4BD1-A2C4-87F681D64C35";
paths = (
{
closed = 1;
nodes = (
"266 0 LINE",
"266 431 LINE SMOOTH",
"266 542 OFFCURVE",
"324 605 OFFCURVE",
"439 605 CURVE SMOOTH",
"484 605 OFFCURVE",
"523 590 OFFCURVE",
"554 571 CURVE",
"572 646 LINE",
"363 415 LINE",
"363 329 LINE",
"472 329 OFFCURVE",
"520 279 OFFCURVE",
"520 187 CURVE SMOOTH",
"520 137 OFFCURVE",
"504 108 OFFCURVE",
"468 108 CURVE",
"524 -6 LINE",
"631 -6 OFFCURVE",
"705 72 OFFCURVE",
"705 198 CURVE SMOOTH",
"705 343 OFFCURVE",
"585 415 OFFCURVE",
"455 415 CURVE",
"456 380 LINE",
"665 610 LINE",
"619 647 OFFCURVE",
"524 696 OFFCURVE",
"405 696 CURVE SMOOTH",
"210 696 OFFCURVE",
"86 604 OFFCURVE",
"86 417 CURVE SMOOTH",
"86 0 LINE"
);
},
{
closed = 1;
nodes = (
"468 108 LINE",
"434 108 OFFCURVE",
"415 140 OFFCURVE",
"415 185 CURVE",
"335 185 LINE",
"335 66 OFFCURVE",
"395 -6 OFFCURVE",
"524 -6 CURVE"
);
}
);
width = 739;
},
{
hints = (
{
origin = "{0, 32}";
scale = "{0.86, 1}";
type = Corner;
name = _corner.Serif;
}
);
layerId = "2B88661E-23DD-4EDA-82FC-C2AEA983F097";
paths = (
{
closed = 1;
nodes = (
"143 0 LINE",
"143 472 LINE SMOOTH",
"143 625 OFFCURVE",
"241 702 OFFCURVE",
"396 702 CURVE SMOOTH",
"483 702 OFFCURVE",
"556 674 OFFCURVE",
"592 647 CURVE",
"599 660 LINE",
"387 435 LINE",
"387 414 LINE",
"541 414 OFFCURVE",
"638 359 OFFCURVE",
"638 202 CURVE SMOOTH",
"638 97 OFFCURVE",
"583 15 OFFCURVE",
"461 15 CURVE",
"462 -9 LINE",
"597 -9 OFFCURVE",
"666 79 OFFCURVE",
"666 204 CURVE SMOOTH",
"666 374 OFFCURVE",
"548 435 OFFCURVE",
"401 435 CURVE",
"408 423 LINE",
"627 656 LINE",
"568 700 OFFCURVE",
"497 725 OFFCURVE",
"396 725 CURVE SMOOTH",
"226 725 OFFCURVE",
"115 641 OFFCURVE",
"115 472 CURVE SMOOTH",
"115 0 LINE"
);
},
{
closed = 1;
nodes = (
"461 15 LINE",
"363 15 OFFCURVE",
"292 67 OFFCURVE",
"286 169 CURVE",
"263 169 LINE",
"267 52 OFFCURVE",
"345 -9 OFFCURVE",
"462 -9 CURVE"
);
}
);
width = 736;
}
);
leftKerningGroup = I;
leftMetricsKey = I;
rightMetricsKey = S;
unicode = 1E9E;
},
{
color = 8;
glyphname = Schwa;
lastChange = "2021-06-30 11:45:59 +0000";
layers = (
{
layerId = "1E61A082-F045-49A7-AB52-DD1B03FD9B54";
paths = (
{
closed = 1;
nodes = (
"145 695 OFFCURVE",
"71 549 OFFCURVE",
"62 447 CURVE",
"80 447 LINE",
"89 540 OFFCURVE",
"159 678 OFFCURVE",
"332 678 CURVE SMOOTH",
"487 678 OFFCURVE",
"589 552 OFFCURVE",
"589 344 CURVE SMOOTH",
"589 136 OFFCURVE",
"485 7 OFFCURVE",
"327 7 CURVE",
"327 -10 LINE",
"496 -10 OFFCURVE",
"611 118 OFFCURVE",
"611 343 CURVE SMOOTH",
"611 567 OFFCURVE",
"498 695 OFFCURVE",
"333 695 CURVE SMOOTH"
);
},
{
closed = 1;
nodes = (
"54 310 LINE",
"54 305 LINE",
"74 293 LINE",
"595 293 LINE",
"595 310 LINE"
);
},
{
closed = 1;
nodes = (
"54 119 OFFCURVE",
"147 -10 OFFCURVE",
"327 -10 CURVE",
"327 7 LINE",
"161 7 OFFCURVE",
"77 130 OFFCURVE",
"74 293 CURVE",
"54 305 LINE"
);
}
);
width = 665;
},
{
layerId = "219068EA-2B9B-40DC-949E-B60449C01B8A";
paths = (
{
closed = 1;
nodes = (
"153 696 OFFCURVE",
"58 566 OFFCURVE",
"54 445 CURVE",
"163 445 LINE",
"176 498 OFFCURVE",
"222 550 OFFCURVE",
"311 550 CURVE SMOOTH",
"429 550 OFFCURVE",
"491 465 OFFCURVE",
"491 327 CURVE SMOOTH",
"491 163 OFFCURVE",
"440 92 OFFCURVE",
"351 92 CURVE",
"357 -14 LINE",
"547 -14 OFFCURVE",
"682 113 OFFCURVE",
"682 341 CURVE SMOOTH",
"682 570 OFFCURVE",
"549 696 OFFCURVE",
"353 696 CURVE SMOOTH"
);
},
{
closed = 1;
nodes = (
"37 350 LINE",
"37 311 LINE",
"229 250 LINE",
"596 250 LINE",
"596 350 LINE"
);
},
{
closed = 1;
nodes = (
"37 118 OFFCURVE",
"149 -14 OFFCURVE",
"357 -14 CURVE",
"351 92 LINE",
"271 92 OFFCURVE",
"232 164 OFFCURVE",
"229 250 CURVE",
"37 311 LINE"
);
}
);
width = 719;
},
{
layerId = "0C29AA02-E021-4BD1-A2C4-87F681D64C35";
paths = (
{
closed = 1;
nodes = (
"141 700 OFFCURVE",
"39 556 OFFCURVE",
"36 402 CURVE",
"122 402 LINE",
"133 483 OFFCURVE",
"184 565 OFFCURVE",
"297 565 CURVE SMOOTH",
"413 565 OFFCURVE",
"478 474 OFFCURVE",
"478 325 CURVE SMOOTH",
"478 142 OFFCURVE",
"425 72 OFFCURVE",
"342 72 CURVE",
"346 -15 LINE",
"541 -15 OFFCURVE",
"678 118 OFFCURVE",
"678 343 CURVE SMOOTH",
"678 568 OFFCURVE",
"541 700 OFFCURVE",
"346 700 CURVE SMOOTH"
);
},
{
closed = 1;
nodes = (
"34 339 LINE",
"34 306 LINE",
"224 248 LINE",
"582 248 LINE",
"582 339 LINE"
);
},
{
closed = 1;
nodes = (
"34 120 OFFCURVE",
"144 -15 OFFCURVE",
"346 -15 CURVE",
"342 72 LINE",
"266 72 OFFCURVE",
"226 144 OFFCURVE",
"224 248 CURVE",
"34 306 LINE"
);
}
);
width = 712;
},
{
layerId = "2B88661E-23DD-4EDA-82FC-C2AEA983F097";
paths = (
{
closed = 1;
nodes = (
"171 693 OFFCURVE",
"96 568 OFFCURVE",
"79 482 CURVE",
"107 482 LINE",
"123 553 OFFCURVE",
"188 670 OFFCURVE",
"369 670 CURVE SMOOTH",
"544 670 OFFCURVE",
"656 547 OFFCURVE",
"656 342 CURVE SMOOTH",
"656 136 OFFCURVE",
"539 13 OFFCURVE",
"363 13 CURVE",
"362 -10 LINE",
"556 -10 OFFCURVE",
"684 118 OFFCURVE",
"684 342 CURVE SMOOTH",
"684 565 OFFCURVE",
"560 693 OFFCURVE",
"368 693 CURVE SMOOTH"
);
},
{
closed = 1;
nodes = (
"62 315 LINE",
"62 304 LINE",
"88 292 LINE",
"665 292 LINE",
"665 315 LINE"
);
},
{
closed = 1;
nodes = (
"62 120 OFFCURVE",
"165 -10 OFFCURVE",
"362 -10 CURVE",
"363 13 LINE",
"182 13 OFFCURVE",
"94 135 OFFCURVE",
"88 292 CURVE",
"62 304 LINE"
);
}
);
width = 745;
}
);
leftMetricsKey = O;
rightMetricsKey = O;
unicode = 018F;
},
{
color = 8;
glyphname = T;
lastChange = "2021-06-30 11:48:03 +0000";
layers = (
{
anchors = (
{
name = bottom;
position = "{363, 0}";
},
{
name = center;
position = "{363, 332}";
},
{
name = top;
position = "{363, 682}";
}
);
hints = (
{
origin = "{0, 3}";
scale = "{1.6, 1}";
type = Corner;
name = _corner.Serif;
},
{
origin = "{0, 0}";
scale = "{-1.6, 1}";
type = Corner;
name = _corner.Serif;
options = 1;
}
);
layerId = "1E61A082-F045-49A7-AB52-DD1B03FD9B54";
paths = (
{
closed = 1;
nodes = (
"374 0 LINE",
"374 682 LINE",
"352 682 LINE",
"352 0 LINE"
);
},
{
closed = 1;
nodes = (
"70 445 LINE",
"70 605 LINE SMOOTH",
"70 653 OFFCURVE",
"82 665 OFFCURVE",
"127 665 CURVE",
"52 665 LINE",
"52 445 LINE"
);
},
{
closed = 1;
nodes = (
"674 665 LINE",
"674 682 LINE",
"52 682 LINE",
"52 665 LINE"
);
},
{
closed = 1;
nodes = (
"674 445 LINE",
"674 665 LINE",
"599 665 LINE",
"645 665 OFFCURVE",
"656 653 OFFCURVE",
"656 605 CURVE SMOOTH",
"656 445 LINE"
);
}
);
width = 725;
},
{
anchors = (
{
name = bottom;
position = "{406, 0}";
},
{
name = center;
position = "{406, 323}";
},
{
name = top;
position = "{406, 682}";
}
);
hints = (
{
origin = "{0, 3}";
scale = "{1.4, 1}";
type = Corner;
name = _corner.Serif;
},
{
origin = "{0, 0}";
scale = "{-1.4, 1}";
type = Corner;
name = _corner.Serif;
options = 1;
}
);
layerId = "219068EA-2B9B-40DC-949E-B60449C01B8A";
paths = (
{
closed = 1;
nodes = (
"502 0 LINE",
"502 682 LINE",
"311 682 LINE",
"311 0 LINE"
);
},
{
closed = 1;
nodes = (
"146 427 LINE",
"146 475 LINE SMOOTH",
"146 550 OFFCURVE",
"174 582 OFFCURVE",
"246 582 CURVE",
"41 582 LINE",
"41 427 LINE"
);
},
{
closed = 1;
nodes = (
"772 582 LINE",
"772 682 LINE",
"41 682 LINE",
"41 582 LINE"
);
},
{
closed = 1;
nodes = (
"772 427 LINE",
"772 582 LINE",
"566 582 LINE",
"639 582 OFFCURVE",
"666 550 OFFCURVE",
"666 475 CURVE SMOOTH",
"666 427 LINE"
);
}
);
width = 813;
},
{
anchors = (
{
name = bottom;
position = "{374, 0}";
},
{
name = center;
position = "{374, 323}";
},
{
name = top;
position = "{374, 682}";
}
);
hints = (
{
origin = "{0, 3}";
scale = "{1.8, 1}";
type = Corner;
name = _corner.Serif;
},
{
origin = "{0, 0}";
scale = "{-1.8, 1}";
type = Corner;
name = _corner.Serif;
options = 1;
}
);
layerId = "0C29AA02-E021-4BD1-A2C4-87F681D64C35";
paths = (
{
closed = 1;
nodes = (
"469 0 LINE",
"469 682 LINE",
"278 682 LINE",
"278 0 LINE"
);
},
{
closed = 1;
nodes = (
"127 418 LINE",
"127 483 LINE SMOOTH",
"127 560 OFFCURVE",
"155 591 OFFCURVE",
"227 591 CURVE",
"37 591 LINE",
"37 418 LINE"
);
},
{
closed = 1;
nodes = (
"710 591 LINE",
"710 682 LINE",
"37 682 LINE",
"37 591 LINE"
);
},
{
closed = 1;
nodes = (
"710 418 LINE",
"710 591 LINE",
"520 591 LINE",
"593 591 OFFCURVE",
"620 560 OFFCURVE",
"620 483 CURVE SMOOTH",
"620 418 LINE"
);
}
);
width = 747;
},
{
anchors = (
{
name = bottom;
position = "{386, 0}";
},
{
name = center;
position = "{386, 331}";
},
{
name = top;
position = "{386, 682}";
}
);
hints = (
{
origin = "{0, 3}";
scale = "{1.4, 1}";
type = Corner;
name = _corner.Serif;
},
{
origin = "{0, 0}";
scale = "{-1.4, 1}";
type = Corner;
name = _corner.Serif;
options = 1;
}
);
layerId = "2B88661E-23DD-4EDA-82FC-C2AEA983F097";
paths = (
{
closed = 1;
nodes = (
"400 0 LINE",
"400 682 LINE",
"372 682 LINE",
"372 0 LINE"
);
},
{
closed = 1;
nodes = (
"83 471 LINE",
"83 598 LINE SMOOTH",
"83 646 OFFCURVE",
"95 659 OFFCURVE",
"141 659 CURVE",
"60 659 LINE",
"60 471 LINE"
);
},
{
closed = 1;
nodes = (
"712 659 LINE",
"712 682 LINE",
"60 682 LINE",
"60 659 LINE"
);
},
{
closed = 1;
nodes = (
"712 471 LINE",
"712 659 LINE",
"631 659 LINE",
"677 659 OFFCURVE",
"689 646 OFFCURVE",
"689 598 CURVE SMOOTH",
"689 471 LINE"
);
}
);
width = 772;
}
);
leftKerningGroup = T;
rightKerningGroup = T;
unicode = 0054;
},
{
color = 8;
glyphname = U;
lastChange = "2021-06-30 11:50:25 +0000";
layers = (
{
anchors = (
{
name = bottom;
position = "{384, 0}";
},
{
name = ogonek;
position = "{522, 0}";
},
{
name = top;
position = "{387, 682}";
},
{
name = topright;
position = "{646, 682}";
}
);
hints = (
{
origin = "{0, 3}";
scale = "{1.08, 1}";
type = Corner;
name = _corner.Serif;
},
{
origin = "{0, 4}";
scale = "{-1.18, 1}";
type = Corner;
name = _corner.Serif;
options = 1;
},
{
origin = "{0, 12}";
scale = "{1.18, 1}";
type = Corner;
name = _corner.Serif;
options = 1;
},
{
origin = "{0, 13}";
scale = "{-1.08, 1}";
type = Corner;
name = _corner.Serif;
}
);
layerId = "1E61A082-F045-49A7-AB52-DD1B03FD9B54";
leftMetricsKey = "=H-12";
rightMetricsKey = "=H-12";
paths = (
{
closed = 1;
nodes = (
"558 -11 OFFCURVE",
"646 87 OFFCURVE",
"646 261 CURVE SMOOTH",
"646 682 LINE",
"628 682 LINE",
"628 261 LINE SMOOTH",
"628 105 OFFCURVE",
"551 7 OFFCURVE",
"386 7 CURVE SMOOTH",
"221 7 OFFCURVE",
"144 105 OFFCURVE",
"144 261 CURVE SMOOTH",
"144 682 LINE",
"122 682 LINE",
"122 261 LINE SMOOTH",
"122 87 OFFCURVE",
"210 -11 OFFCURVE",
"384 -11 CURVE SMOOTH"
);
}
);
width = 767;
},
{
anchors = (
{
name = bottom;
position = "{416, 0}";
},
{
name = ogonek;
position = "{573, 0}";
},
{
name = top;
position = "{442, 682}";
},
{
name = topright;
position = "{736, 682}";
}
);
hints = (
{
origin = "{0, 3}";
scale = "{1.08, 1}";
type = Corner;
name = _corner.Serif;
},
{
origin = "{0, 4}";
scale = "{-1.18, 1}";
type = Corner;
name = _corner.Serif;
options = 1;
},
{
origin = "{0, 12}";
scale = "{1.18, 1}";
type = Corner;
name = _corner.Serif;
options = 1;
},
{
origin = "{0, 13}";
scale = "{-1.08, 1}";
type = Corner;
name = _corner.Serif;
}
);
layerId = "219068EA-2B9B-40DC-949E-B60449C01B8A";
leftMetricsKey = "=H-10";
rightMetricsKey = "=H-10";
paths = (
{
closed = 1;
nodes = (
"627 -10 OFFCURVE",
"736 92 OFFCURVE",
"736 285 CURVE SMOOTH",
"736 682 LINE",
"590 682 LINE",
"590 272 LINE SMOOTH",
"590 170 OFFCURVE",
"545 110 OFFCURVE",
"440 110 CURVE SMOOTH",
"336 110 OFFCURVE",
"290 170 OFFCURVE",
"290 272 CURVE SMOOTH",
"290 682 LINE",
"96 682 LINE",
"96 285 LINE SMOOTH",
"96 92 OFFCURVE",
"209 -10 OFFCURVE",
"419 -10 CURVE SMOOTH"
);
}
);
width = 832;
},
{
anchors = (
{
name = bottom;
position = "{393, 0}";
},
{
name = ogonek;
position = "{546, 0}";
},
{
name = top;
position = "{423, 682}";
},
{
name = topright;
position = "{691, 682}";
}
);
hints = (
{
origin = "{0, 3}";
scale = "{1, 0.98}";
type = Corner;
name = _corner.Serif;
},
{
origin = "{0, 4}";
scale = "{-1.18, 0.98}";
type = Corner;
name = _corner.Serif;
options = 1;
},
{
origin = "{0, 12}";
scale = "{1.18, 0.98}";
type = Corner;
name = _corner.Serif;
options = 1;
},
{
origin = "{0, 13}";
scale = "{-1, 0.98}";
type = Corner;
name = _corner.Serif;
}
);
layerId = "0C29AA02-E021-4BD1-A2C4-87F681D64C35";
leftMetricsKey = "=H-6";
rightMetricsKey = "=H-6";
paths = (
{
closed = 1;
nodes = (
"592 -10 OFFCURVE",
"695 89 OFFCURVE",
"695 263 CURVE SMOOTH",
"695 682 LINE",
"572 682 LINE",
"572 240 LINE SMOOTH",
"572 150 OFFCURVE",
"526 96 OFFCURVE",
"429 96 CURVE SMOOTH",
"332 96 OFFCURVE",
"286 150 OFFCURVE",
"286 240 CURVE SMOOTH",
"286 682 LINE",
"92 682 LINE",
"92 263 LINE SMOOTH",
"92 89 OFFCURVE",
"195 -10 OFFCURVE",
"393 -10 CURVE SMOOTH"
);
}
);
width = 786;
},
{
anchors = (
{
name = bottom;
position = "{417, 0}";
},
{
name = ogonek;
position = "{560, 0}";
},
{
name = top;
position = "{423, 682}";
},
{
name = topright;
position = "{697, 682}";
}
);
hints = (
{
origin = "{0, 3}";
scale = "{1.08, 1}";
type = Corner;
name = _corner.Serif;
},
{
origin = "{0, 4}";
scale = "{-1.18, 1}";
type = Corner;
name = _corner.Serif;
options = 1;
},
{
origin = "{0, 12}";
scale = "{1.18, 1}";
type = Corner;
name = _corner.Serif;
options = 1;
},
{
origin = "{0, 13}";
scale = "{-1.08, 1}";
type = Corner;
name = _corner.Serif;
}
);
layerId = "2B88661E-23DD-4EDA-82FC-C2AEA983F097";
paths = (
{
closed = 1;
nodes = (
"603 -11 OFFCURVE",
"697 94 OFFCURVE",
"697 279 CURVE SMOOTH",
"697 682 LINE",
"672 682 LINE",
"672 279 LINE SMOOTH",
"672 115 OFFCURVE",
"591 13 OFFCURVE",
"419 13 CURVE SMOOTH",
"246 13 OFFCURVE",
"166 115 OFFCURVE",
"166 279 CURVE SMOOTH",
"166 682 LINE",
"138 682 LINE",
"138 279 LINE SMOOTH",
"138 94 OFFCURVE",
"232 -11 OFFCURVE",
"417 -11 CURVE SMOOTH"
);
}
);
width = 835;
}
);
leftKerningGroup = U;
leftMetricsKey = H;
rightKerningGroup = U;
rightMetricsKey = H;
unicode = 0055;
},
{
color = 8;
glyphname = V;
lastChange = "2021-06-30 11:41:57 +0000";
layers = (
{
anchors = (
{
name = bottom;
position = "{379, 0}";
},
{
name = top;
position = "{379, 682}";
}
);
hints = (
{
origin = "{0, 2}";
scale = "{-1.28, 1}";
type = Corner;
name = _corner.Serif;
options = 1;
},
{
origin = "{0, 5}";
scale = "{1.28, 1}";
type = Corner;
name = _corner.Serif;
},
{
origin = "{0, 6}";
scale = "{-0.74, 1}";
type = Corner;
name = _corner.Serif;
options = 1;
},
{
origin = "{0, 1}";
scale = "{0.74, 1}";
type = Corner;
name = _corner.Serif;
}
);
layerId = "1E61A082-F045-49A7-AB52-DD1B03FD9B54";
paths = (
{
closed = 1;
nodes = (
"387 -6 LINE",
"665 682 LINE",
"646 682 LINE",
"377 15 LINE",
"385 15 LINE",
"117 682 LINE",
"93 682 LINE",
"371 -6 LINE"
);
}
);
width = 758;
},
{
anchors = (
{
name = bottom;
position = "{424, 0}";
},
{
name = top;
position = "{424, 682}";
}
);
hints = (
{
origin = "{0, 2}";
scale = "{-1.7, 1}";
type = Corner;
name = _corner.Serif;
options = 1;
},
{
origin = "{0, 5}";
scale = "{1.7, 1}";
type = Corner;
name = _corner.Serif;
},
{
origin = "{0, 6}";
scale = "{-0.6, 1}";
type = Corner;
name = _corner.Serif;
options = 1;
},
{
origin = "{0, 1}";
scale = "{0.6, 1}";
type = Corner;
name = _corner.Serif;
}
);
layerId = "219068EA-2B9B-40DC-949E-B60449C01B8A";
paths = (
{
closed = 1;
nodes = (
"512 0 LINE",
"801 682 LINE",
"673 682 LINE",
"431 105 LINE",
"491 105 LINE",
"256 682 LINE",
"46 682 LINE",
"335 0 LINE"
);
}
);
width = 847;
},
{
anchors = (
{
name = bottom;
position = "{403, 0}";
},
{
name = top;
position = "{403, 682}";
}
);
hints = (
{
origin = "{0, 2}";
scale = "{-1.7, 0.98}";
type = Corner;
name = _corner.Serif;
options = 1;
},
{
origin = "{0, 5}";
scale = "{1.7, 0.98}";
type = Corner;
name = _corner.Serif;
},
{
origin = "{0, 6}";
scale = "{-0.6, 0.98}";
type = Corner;
name = _corner.Serif;
options = 1;
},
{
origin = "{0, 1}";
scale = "{0.6, 0.98}";
type = Corner;
name = _corner.Serif;
}
);
layerId = "0C29AA02-E021-4BD1-A2C4-87F681D64C35";
paths = (
{
closed = 1;
nodes = (
"482 -3 LINE",
"762 682 LINE",
"652 682 LINE",
"418 102 LINE",
"484 102 LINE",
"259 682 LINE",
"50 682 LINE",
"330 -3 LINE"
);
}
);
width = 812;
},
{
anchors = (
{
name = bottom;
position = "{393, 0}";
},
{
name = top;
position = "{393, 682}";
}
);
hints = (
{
origin = "{0, 2}";
scale = "{-1.3, 1}";
type = Corner;
name = _corner.Serif;
options = 1;
},
{
origin = "{0, 5}";
scale = "{1.3, 1}";
type = Corner;
name = _corner.Serif;
},
{
origin = "{0, 6}";
scale = "{-0.74, 1}";
type = Corner;
name = _corner.Serif;
options = 1;
},
{
origin = "{0, 1}";
scale = "{0.74, 1}";
type = Corner;
name = _corner.Serif;
}
);
layerId = "2B88661E-23DD-4EDA-82FC-C2AEA983F097";
paths = (
{
closed = 1;
nodes = (
"404 -8 LINE",
"696 682 LINE",
"669 682 LINE",
"388 16 LINE",
"400 16 LINE",
"120 682 LINE",
"90 682 LINE",
"381 -8 LINE"
);
}
);
width = 786;
}
);
leftKerningGroup = V;
leftMetricsKey = A;
rightKerningGroup = V;
rightMetricsKey = A;
unicode = 0056;
},
{
color = 8;
glyphname = W;
lastChange = "2021-06-30 11:43:07 +0000";
layers = (
{
anchors = (
{
name = bottom;
position = "{512, 0}";
},
{
name = top;
position = "{512, 682}";
}
);
hints = (
{
origin = "{0, 2}";
scale = "{-1.28, 1}";
type = Corner;
name = _corner.Serif;
options = 1;
},
{
origin = "{0, 5}";
scale = "{1.28, 1}";
type = Corner;
name = _corner.Serif;
},
{
origin = "{0, 6}";
scale = "{-0.74, 1}";
type = Corner;
name = _corner.Serif;
options = 1;
},
{
origin = "{0, 1}";
scale = "{0.74, 1}";
type = Corner;
name = _corner.Serif;
},
{
origin = "{1, 5}";
scale = "{1.28, 1}";
type = Corner;
name = _corner.Serif;
},
{
origin = "{1, 6}";
scale = "{-0.74, 1}";
type = Corner;
name = _corner.Serif;
options = 1;
}
);
layerId = "1E61A082-F045-49A7-AB52-DD1B03FD9B54";
paths = (
{
closed = 1;
nodes = (
"703 -6 LINE",
"930 682 LINE",
"911 682 LINE",
"692 15 LINE",
"701 15 LINE",
"482 682 LINE",
"459 682 LINE",
"686 -6 LINE"
);
},
{
closed = 1;
nodes = (
"338 -6 LINE",
"518 540 LINE",
"509 569 LINE",
"327 15 LINE",
"335 15 LINE",
"116 682 LINE",
"93 682 LINE",
"320 -6 LINE"
);
}
);
width = 1023;
},
{
anchors = (
{
name = bottom;
position = "{577, 0}";
},
{
name = top;
position = "{593, 682}";
}
);
hints = (
{
origin = "{0, 2}";
scale = "{-1.66, 1}";
type = Corner;
name = _corner.Serif;
options = 1;
},
{
origin = "{0, 5}";
scale = "{1.66, 1}";
type = Corner;
name = _corner.Serif;
},
{
origin = "{0, 6}";
scale = "{-0.64, 1}";
type = Corner;
name = _corner.Serif;
options = 1;
},
{
origin = "{0, 1}";
scale = "{0.63, 1}";
type = Corner;
name = _corner.Serif;
},
{
origin = "{1, 5}";
scale = "{1.26, 1}";
type = Corner;
name = _corner.Serif;
},
{
origin = "{1, 6}";
scale = "{-0.63, 1}";
type = Corner;
name = _corner.Serif;
options = 1;
}
);
layerId = "219068EA-2B9B-40DC-949E-B60449C01B8A";
paths = (
{
closed = 1;
nodes = (
"864 0 LINE",
"1113 682 LINE",
"990 682 LINE",
"781 105 LINE",
"845 105 LINE",
"643 682 LINE",
"454 682 LINE",
"703 0 LINE"
);
},
{
closed = 1;
nodes = (
"470 0 LINE",
"618 407 LINE",
"563 571 LINE",
"394 105 LINE",
"457 105 LINE",
"254 682 LINE",
"50 682 LINE",
"299 0 LINE"
);
}
);
width = 1163;
},
{
anchors = (
{
name = bottom;
position = "{559, 0}";
},
{
name = top;
position = "{582, 682}";
}
);
hints = (
{
origin = "{0, 2}";
scale = "{-1.62, 0.98}";
type = Corner;
name = _corner.Serif;
options = 1;
},
{
origin = "{0, 5}";
scale = "{1.62, 0.98}";
type = Corner;
name = _corner.Serif;
},
{
origin = "{0, 6}";
scale = "{-0.64, 0.98}";
type = Corner;
name = _corner.Serif;
options = 1;
},
{
origin = "{0, 1}";
scale = "{0.64, 0.98}";
type = Corner;
name = _corner.Serif;
},
{
origin = "{1, 5}";
scale = "{1.27, 0.98}";
type = Corner;
name = _corner.Serif;
},
{
origin = "{1, 6}";
scale = "{-0.64, 0.98}";
type = Corner;
name = _corner.Serif;
options = 1;
}
);
layerId = "0C29AA02-E021-4BD1-A2C4-87F681D64C35";
paths = (
{
closed = 1;
nodes = (
"812 0 LINE",
"1042 682 LINE",
"934 682 LINE",
"741 105 LINE",
"812 105 LINE",
"634 682 LINE",
"436 682 LINE",
"666 0 LINE"
);
},
{
closed = 1;
nodes = (
"429 0 LINE",
"556 378 LINE",
"507 518 LINE",
"369 105 LINE",
"435 105 LINE",
"257 682 LINE",
"55 682 LINE",
"285 0 LINE"
);
}
);
width = 1097;
},
{
anchors = (
{
name = bottom;
position = "{515, 0}";
},
{
name = top;
position = "{516, 682}";
}
);
hints = (
{
origin = "{0, 2}";
scale = "{-1.3, 1}";
type = Corner;
name = _corner.Serif;
options = 1;
},
{
origin = "{0, 5}";
scale = "{1.3, 1}";
type = Corner;
name = _corner.Serif;
},
{
origin = "{0, 6}";
scale = "{-0.72, 1}";
type = Corner;
name = _corner.Serif;
options = 1;
},
{
origin = "{0, 1}";
scale = "{0.74, 1}";
type = Corner;
name = _corner.Serif;
},
{
origin = "{1, 5}";
scale = "{1.24, 1}";
type = Corner;
name = _corner.Serif;
},
{
origin = "{1, 6}";
scale = "{-0.74, 1}";
type = Corner;
name = _corner.Serif;
options = 1;
}
);
layerId = "2B88661E-23DD-4EDA-82FC-C2AEA983F097";
paths = (
{
closed = 1;
nodes = (
"713 -8 LINE",
"940 682 LINE",
"914 682 LINE",
"696 16 LINE",
"707 16 LINE",
"488 682 LINE",
"460 682 LINE",
"688 -8 LINE"
);
},
{
closed = 1;
nodes = (
"345 -8 LINE",
"523 534 LINE",
"509 569 LINE",
"328 16 LINE",
"338 16 LINE",
"119 682 LINE",
"90 682 LINE",
"318 -8 LINE"
);
}
);
width = 1030;
}
);
leftKerningGroup = W;
leftMetricsKey = V;
rightKerningGroup = W;
rightMetricsKey = V;
unicode = 0057;
},
{
color = 8;
glyphname = X;
lastChange = "2021-06-30 11:44:08 +0000";
layers = (
{
anchors = (
{
name = bottom;
position = "{380, 0}";
},
{
name = top;
position = "{380, 682}";
}
);
hints = (
{
origin = "{1, 1}";
scale = "{0.64, 1}";
type = Corner;
name = _corner.Serif;
},
{
origin = "{1, 2}";
scale = "{-1.38, 1}";
type = Corner;
name = _corner.Serif;
options = 1;
},
{
origin = "{1, 5}";
scale = "{1.38, 1}";
type = Corner;
name = _corner.Serif;
},
{
origin = "{1, 6}";
scale = "{-0.64, 1}";
type = Corner;
name = _corner.Serif;
options = 1;
},
{
origin = "{0, 0}";
scale = "{-1.4, 1}";
type = Corner;
name = _corner.Serif;
options = 1;
},
{
origin = "{0, 3}";
scale = "{1.4, 1}";
type = Corner;
name = _corner.Serif;
},
{
origin = "{0, 4}";
scale = "{-0.66, 1}";
type = Corner;
name = _corner.Serif;
options = 1;
},
{
origin = "{0, 7}";
scale = "{0.66, 1}";
type = Corner;
name = _corner.Serif;
}
);
layerId = "1E61A082-F045-49A7-AB52-DD1B03FD9B54";
paths = (
{
closed = 1;
nodes = (
"117 0 LINE",
"386 343 LINE",
"373 343 LINE",
"639 0 LINE",
"667 0 LINE",
"385 361 LINE",
"378 361 LINE",
"94 0 LINE"
);
},
{
closed = 1;
nodes = (
"383 335 LINE",
"655 682 LINE",
"632 682 LINE",
"375 353 LINE",
"388 353 LINE",
"133 682 LINE",
"105 682 LINE",
"376 335 LINE"
);
}
);
width = 760;
},
{
anchors = (
{
name = bottom;
position = "{411, 0}";
},
{
name = top;
position = "{411, 682}";
}
);
hints = (
{
origin = "{1, 1}";
scale = "{0.28, 1}";
type = Corner;
name = _corner.Serif;
},
{
origin = "{1, 2}";
scale = "{-1.72, 1}";
type = Corner;
name = _corner.Serif;
options = 1;
},
{
origin = "{1, 5}";
scale = "{1.72, 1}";
type = Corner;
name = _corner.Serif;
},
{
origin = "{1, 6}";
scale = "{-0.28, 1}";
type = Corner;
name = _corner.Serif;
options = 1;
},
{
origin = "{0, 7}";
scale = "{0.3, 1}";
type = Corner;
name = _corner.Serif;
},
{
origin = "{0, 0}";
scale = "{-1.8, 1}";
type = Corner;
name = _corner.Serif;
options = 1;
},
{
origin = "{0, 3}";
scale = "{1.8, 1}";
type = Corner;
name = _corner.Serif;
},
{
origin = "{0, 4}";
scale = "{-0.3, 1}";
type = Corner;
name = _corner.Serif;
options = 1;
}
);
layerId = "219068EA-2B9B-40DC-949E-B60449C01B8A";
paths = (
{
closed = 1;
nodes = (
"170 0 LINE",
"408 286 LINE",
"344 286 LINE",
"567 0 LINE",
"810 0 LINE",
"499 388 LINE",
"342 388 LINE",
"19 0 LINE"
);
},
{
closed = 1;
nodes = (
"475 308 LINE",
"787 682 LINE",
"636 682 LINE",
"410 409 LINE",
"473 409 LINE",
"260 682 LINE",
"19 682 LINE",
"319 308 LINE"
);
}
);
width = 826;
},
{
anchors = (
{
name = bottom;
position = "{393, 0}";
},
{
name = top;
position = "{393, 682}";
}
);
hints = (
{
origin = "{1, 1}";
scale = "{0.28, 0.98}";
type = Corner;
name = _corner.Serif;
},
{
origin = "{1, 2}";
scale = "{-1.72, 0.98}";
type = Corner;
name = _corner.Serif;
options = 1;
},
{
origin = "{1, 5}";
scale = "{1.72, 0.98}";
type = Corner;
name = _corner.Serif;
},
{
origin = "{1, 6}";
scale = "{-0.28, 0.98}";
type = Corner;
name = _corner.Serif;
options = 1;
},
{
origin = "{0, 0}";
scale = "{-1.8, 1}";
type = Corner;
name = _corner.Serif;
options = 1;
},
{
origin = "{0, 3}";
scale = "{1.8, 1}";
type = Corner;
name = _corner.Serif;
},
{
origin = "{0, 4}";
scale = "{-0.3, 1}";
type = Corner;
name = _corner.Serif;
options = 1;
},
{
origin = "{0, 7}";
scale = "{0.3, 1}";
type = Corner;
name = _corner.Serif;
}
);
layerId = "0C29AA02-E021-4BD1-A2C4-87F681D64C35";
paths = (
{
closed = 1;
nodes = (
"150 0 LINE",
"384 286 LINE",
"323 286 LINE",
"528 0 LINE",
"766 0 LINE",
"475 388 LINE",
"340 388 LINE",
"19 0 LINE"
);
},
{
closed = 1;
nodes = (
"436 308 LINE",
"745 682 LINE",
"615 682 LINE",
"391 409 LINE",
"453 409 LINE",
"257 682 LINE",
"20 682 LINE",
"300 308 LINE"
);
}
);
width = 780;
},
{
anchors = (
{
name = bottom;
position = "{390, 0}";
},
{
name = top;
position = "{390, 682}";
}
);
hints = (
{
origin = "{1, 1}";
scale = "{0.62, 1}";
type = Corner;
name = _corner.Serif;
},
{
origin = "{1, 2}";
scale = "{-1.4, 1}";
type = Corner;
name = _corner.Serif;
options = 1;
},
{
origin = "{1, 5}";
scale = "{1.4, 1}";
type = Corner;
name = _corner.Serif;
},
{
origin = "{1, 6}";
scale = "{-0.62, 1}";
type = Corner;
name = _corner.Serif;
options = 1;
},
{
origin = "{0, 7}";
scale = "{0.65, 1}";
type = Corner;
name = _corner.Serif;
},
{
origin = "{0, 0}";
scale = "{-1.42, 1}";
type = Corner;
name = _corner.Serif;
options = 1;
},
{
origin = "{0, 3}";
scale = "{1.42, 1}";
type = Corner;
name = _corner.Serif;
},
{
origin = "{0, 4}";
scale = "{-0.65, 1}";
type = Corner;
name = _corner.Serif;
options = 1;
}
);
layerId = "2B88661E-23DD-4EDA-82FC-C2AEA983F097";
paths = (
{
closed = 1;
nodes = (
"118 0 LINE",
"398 342 LINE",
"381 342 LINE",
"659 0 LINE",
"695 0 LINE",
"399 362 LINE",
"384 362 LINE",
"86 0 LINE"
);
},
{
closed = 1;
nodes = (
"397 335 LINE",
"683 682 LINE",
"651 682 LINE",
"383 355 LINE",
"400 355 LINE",
"134 682 LINE",
"98 682 LINE",
"382 335 LINE"
);
}
);
width = 781;
}
);
leftKerningGroup = X;
rightKerningGroup = X;
unicode = 0058;
},
{
color = 8;
glyphname = Y;
lastChange = "2021-06-30 11:44:25 +0000";
layers = (
{
anchors = (
{
name = bottom;
position = "{376, 0}";
},
{
name = top;
position = "{376, 682}";
},
{
name = topleft;
position = "{14, 682}";
}
);
hints = (
{
origin = "{1, 3}";
scale = "{1.6, 1}";
type = Corner;
name = _corner.Serif;
},
{
origin = "{1, 0}";
scale = "{-1.6, 1}";
type = Corner;
name = _corner.Serif;
options = 1;
},
{
origin = "{0, 2}";
scale = "{-1.38, 1}";
type = Corner;
name = _corner.Serif;
options = 1;
},
{
origin = "{0, 5}";
scale = "{1.38, 1}";
type = Corner;
name = _corner.Serif;
},
{
origin = "{0, 6}";
scale = "{-0.64, 1}";
type = Corner;
name = _corner.Serif;
options = 1;
},
{
origin = "{0, 1}";
scale = "{0.64, 1}";
type = Corner;
name = _corner.Serif;
}
);
layerId = "1E61A082-F045-49A7-AB52-DD1B03FD9B54";
paths = (
{
closed = 1;
nodes = (
"385 276 LINE",
"672 682 LINE",
"650 682 LINE",
"375 292 LINE",
"380 292 LINE",
"107 682 LINE",
"80 682 LINE",
"366 276 LINE"
);
},
{
closed = 1;
nodes = (
"387 0 LINE",
"387 291 LINE",
"365 291 LINE",
"365 0 LINE"
);
}
);
width = 752;
},
{
anchors = (
{
name = bottom;
position = "{406, 0}";
},
{
name = top;
position = "{441, 682}";
},
{
name = topleft;
position = "{18, 682}";
}
);
hints = (
{
origin = "{1, 3}";
scale = "{1.4, 1}";
type = Corner;
name = _corner.Serif;
},
{
origin = "{1, 0}";
scale = "{-1.4, 1}";
type = Corner;
name = _corner.Serif;
options = 1;
},
{
origin = "{0, 2}";
scale = "{-1.7, 1}";
type = Corner;
name = _corner.Serif;
options = 1;
},
{
origin = "{0, 5}";
scale = "{1.7, 1}";
type = Corner;
name = _corner.Serif;
},
{
origin = "{0, 6}";
scale = "{-0.36, 1}";
type = Corner;
name = _corner.Serif;
options = 1;
},
{
origin = "{0, 1}";
scale = "{0.36, 1}";
type = Corner;
name = _corner.Serif;
}
);
layerId = "219068EA-2B9B-40DC-949E-B60449C01B8A";
paths = (
{
closed = 1;
nodes = (
"495 240 LINE",
"795 682 LINE",
"656 682 LINE",
"428 341 LINE",
"474 341 LINE",
"247 682 LINE",
"18 682 LINE",
"318 240 LINE"
);
},
{
closed = 1;
nodes = (
"502 0 LINE",
"502 351 LINE",
"311 351 LINE",
"311 0 LINE"
);
}
);
width = 813;
},
{
anchors = (
{
name = bottom;
position = "{387, 0}";
},
{
name = top;
position = "{428, 682}";
},
{
name = topleft;
position = "{18, 682}";
}
);
hints = (
{
origin = "{1, 3}";
scale = "{1.8, 1}";
type = Corner;
name = _corner.Serif;
},
{
origin = "{1, 0}";
scale = "{-1.8, 1}";
type = Corner;
name = _corner.Serif;
options = 1;
},
{
origin = "{0, 2}";
scale = "{-1.7, 0.98}";
type = Corner;
name = _corner.Serif;
options = 1;
},
{
origin = "{0, 5}";
scale = "{1.7, 0.98}";
type = Corner;
name = _corner.Serif;
},
{
origin = "{0, 6}";
scale = "{-0.36, 0.98}";
type = Corner;
name = _corner.Serif;
options = 1;
},
{
origin = "{0, 1}";
scale = "{0.36, 0.98}";
type = Corner;
name = _corner.Serif;
}
);
layerId = "0C29AA02-E021-4BD1-A2C4-87F681D64C35";
paths = (
{
closed = 1;
nodes = (
"475 249 LINE",
"748 682 LINE",
"628 682 LINE",
"420 346 LINE",
"450 346 LINE",
"250 682 LINE",
"25 682 LINE",
"298 249 LINE"
);
},
{
closed = 1;
nodes = (
"482 0 LINE",
"482 360 LINE",
"291 360 LINE",
"291 0 LINE"
);
}
);
width = 773;
},
{
anchors = (
{
name = bottom;
position = "{387, 0}";
},
{
name = top;
position = "{388, 682}";
},
{
name = topleft;
position = "{29, 682}";
}
);
hints = (
{
origin = "{1, 3}";
scale = "{1.4, 1}";
type = Corner;
name = _corner.Serif;
},
{
origin = "{1, 0}";
scale = "{-1.4, 1}";
type = Corner;
name = _corner.Serif;
options = 1;
},
{
origin = "{0, 2}";
scale = "{-1.3912, 1}";
type = Corner;
name = _corner.Serif;
options = 1;
},
{
origin = "{0, 5}";
scale = "{1.3912, 1}";
type = Corner;
name = _corner.Serif;
},
{
origin = "{0, 6}";
scale = "{-0.6302, 1}";
type = Corner;
name = _corner.Serif;
options = 1;
},
{
origin = "{0, 1}";
scale = "{0.6302, 1}";
type = Corner;
name = _corner.Serif;
}
);
layerId = "2B88661E-23DD-4EDA-82FC-C2AEA983F097";
paths = (
{
closed = 1;
nodes = (
"399 270 LINE",
"697 682 LINE",
"666 682 LINE",
"384 290 LINE",
"393 290 LINE",
"110 682 LINE",
"76 682 LINE",
"375 270 LINE"
);
},
{
closed = 1;
nodes = (
"401 0 LINE",
"401 289 LINE",
"373 289 LINE",
"373 0 LINE"
);
}
);
width = 773;
}
);
leftKerningGroup = Y;
leftMetricsKey = V;
rightKerningGroup = Y;
rightMetricsKey = V;
unicode = 0059;
},
{
color = 8;
glyphname = Z;
lastChange = "2021-06-30 11:44:57 +0000";
layers = (
{
anchors = (
{
name = bottom;
position = "{340, 0}";
},
{
name = center;
position = "{340, 341}";
},
{
name = top;
position = "{340, 682}";
}
);
layerId = "1E61A082-F045-49A7-AB52-DD1B03FD9B54";
paths = (
{
closed = 1;
nodes = (
"102 17 LINE",
"607 666 LINE",
"578 665 LINE",
"73 15 LINE"
);
},
{
closed = 1;
nodes = (
"602 0 LINE",
"602 17 LINE",
"102 17 LINE",
"73 15 LINE",
"73 0 LINE"
);
},
{
closed = 1;
nodes = (
"114 436 LINE",
"114 605 LINE SMOOTH",
"114 653 OFFCURVE",
"125 665 OFFCURVE",
"171 665 CURVE",
"96 665 LINE",
"96 436 LINE"
);
},
{
closed = 1;
nodes = (
"602 17 LINE",
"602 255 LINE",
"584 255 LINE",
"584 76 LINE SMOOTH",
"584 29 OFFCURVE",
"572 17 OFFCURVE",
"526 17 CURVE"
);
},
{
closed = 1;
nodes = (
"578 665 LINE",
"607 666 LINE",
"607 682 LINE",
"96 682 LINE",
"96 665 LINE"
);
}
);
width = 682;
},
{
anchors = (
{
name = bottom;
position = "{375, 0}";
},
{
name = center;
position = "{375, 341}";
},
{
name = top;
position = "{382, 682}";
}
);
layerId = "219068EA-2B9B-40DC-949E-B60449C01B8A";
paths = (
{
closed = 1;
nodes = (
"302 102 LINE",
"695 589 LINE",
"447 583 LINE",
"54 95 LINE"
);
},
{
closed = 1;
nodes = (
"690 0 LINE",
"690 102 LINE",
"302 102 LINE",
"54 95 LINE",
"54 0 LINE"
);
},
{
closed = 1;
nodes = (
"182 418 LINE",
"182 474 LINE SMOOTH",
"182 551 OFFCURVE",
"209 583 OFFCURVE",
"282 583 CURVE",
"76 583 LINE",
"76 418 LINE"
);
},
{
closed = 1;
nodes = (
"690 102 LINE",
"690 273 LINE",
"585 273 LINE",
"585 208 LINE SMOOTH",
"585 133 OFFCURVE",
"558 102 OFFCURVE",
"485 102 CURVE"
);
},
{
closed = 1;
nodes = (
"447 583 LINE",
"695 589 LINE",
"695 682 LINE",
"76 682 LINE",
"76 583 LINE"
);
}
);
width = 750;
},
{
anchors = (
{
name = bottom;
position = "{342, 0}";
},
{
name = center;
position = "{342, 341}";
},
{
name = top;
position = "{350, 682}";
}
);
layerId = "0C29AA02-E021-4BD1-A2C4-87F681D64C35";
paths = (
{
closed = 1;
nodes = (
"279 93 LINE",
"638 597 LINE",
"401 591 LINE",
"43 86 LINE"
);
},
{
closed = 1;
nodes = (
"633 0 LINE",
"633 93 LINE",
"279 93 LINE",
"43 86 LINE",
"43 0 LINE"
);
},
{
closed = 1;
nodes = (
"155 409 LINE",
"155 482 LINE SMOOTH",
"155 559 OFFCURVE",
"183 591 OFFCURVE",
"255 591 CURVE",
"65 591 LINE",
"65 409 LINE"
);
},
{
closed = 1;
nodes = (
"633 93 LINE",
"633 282 LINE",
"543 282 LINE",
"543 200 LINE SMOOTH",
"543 124 OFFCURVE",
"516 93 OFFCURVE",
"443 93 CURVE"
);
},
{
closed = 1;
nodes = (
"401 591 LINE",
"638 597 LINE",
"638 682 LINE",
"65 682 LINE",
"65 591 LINE"
);
}
);
width = 681;
},
{
anchors = (
{
name = bottom;
position = "{355, 0}";
},
{
name = center;
position = "{355, 341}";
},
{
name = top;
position = "{355, 682}";
}
);
layerId = "2B88661E-23DD-4EDA-82FC-C2AEA983F097";
paths = (
{
closed = 1;
nodes = (
"108 23 LINE",
"633 661 LINE",
"596 659 LINE",
"72 21 LINE"
);
},
{
closed = 1;
nodes = (
"629 0 LINE",
"629 23 LINE",
"108 23 LINE",
"72 21 LINE",
"72 0 LINE"
);
},
{
closed = 1;
nodes = (
"117 462 LINE",
"117 598 LINE SMOOTH",
"117 646 OFFCURVE",
"130 659 OFFCURVE",
"176 659 CURVE",
"94 659 LINE",
"94 462 LINE"
);
},
{
closed = 1;
nodes = (
"629 23 LINE",
"629 229 LINE",
"606 229 LINE",
"606 84 LINE SMOOTH",
"606 35 OFFCURVE",
"594 23 OFFCURVE",
"548 23 CURVE"
);
},
{
closed = 1;
nodes = (
"596 659 LINE",
"633 661 LINE",
"633 682 LINE",
"94 682 LINE",
"94 659 LINE"
);
}
);
width = 706;
}
);
leftKerningGroup = Z;
rightKerningGroup = Z;
unicode = 005A;
},
{
color = 8;
glyphname = a;
lastChange = "2021-06-30 15:45:06 +0000";
layers = (
{
anchors = (
{
name = bottom;
position = "{296, 0}";
},
{
name = ogonek;
position = "{535, 0}";
},
{
name = top;
position = "{262, 490}";
}
);
layerId = "1E61A082-F045-49A7-AB52-DD1B03FD9B54";
paths = (
{
closed = 1;
nodes = (
"139 322 OFFCURVE",
"149 332 OFFCURVE",
"149 347 CURVE SMOOTH",
"149 368 OFFCURVE",
"129 378 OFFCURVE",
"102 378 CURVE",
"106 369 LINE",
"105 452 OFFCURVE",
"182 483 OFFCURVE",
"262 483 CURVE SMOOTH",
"358 483 OFFCURVE",
"399 441 OFFCURVE",
"399 372 CURVE",
"420 364 LINE",
"420 459 OFFCURVE",
"364 500 OFFCURVE",
"263 500 CURVE SMOOTH",
"172 500 OFFCURVE",
"89 461 OFFCURVE",
"89 369 CURVE SMOOTH",
"89 340 OFFCURVE",
"102 322 OFFCURVE",
"123 322 CURVE SMOOTH"
);
},
{
closed = 1;
nodes = (
"523 -5 OFFCURVE",
"549 25 OFFCURVE",
"549 77 CURVE SMOOTH",
"549 300 LINE",
"532 300 LINE",
"532 77 LINE SMOOTH",
"532 39 OFFCURVE",
"513 12 OFFCURVE",
"476 12 CURVE SMOOTH",
"439 12 OFFCURVE",
"420 39 OFFCURVE",
"420 77 CURVE SMOOTH",
"420 364 LINE",
"399 372 LINE",
"399 346 LINE",
"395 321 LINE",
"399 321 LINE",
"399 173 LINE",
"401 173 LINE",
"401 77 LINE SMOOTH",
"401 25 OFFCURVE",
"429 -5 OFFCURVE",
"475 -5 CURVE SMOOTH"
);
},
{
closed = 1;
nodes = (
"328 -7 OFFCURVE",
"411 64 OFFCURVE",
"410 244 CURVE",
"399 244 LINE",
"399 74 OFFCURVE",
"312 10 OFFCURVE",
"208 10 CURVE SMOOTH",
"132 10 OFFCURVE",
"77 49 OFFCURVE",
"77 116 CURVE SMOOTH",
"77 189 OFFCURVE",
"125 220 OFFCURVE",
"211 240 CURVE SMOOTH",
"281 256 LINE SMOOTH",
"351 272 OFFCURVE",
"383 288 OFFCURVE",
"399 321 CURVE",
"404 321 LINE",
"399 368 LINE",
"399 303 OFFCURVE",
"349 289 OFFCURVE",
"277 273 CURVE SMOOTH",
"204 257 LINE SMOOTH",
"116 238 OFFCURVE",
"55 201 OFFCURVE",
"55 116 CURVE SMOOTH",
"55 39 OFFCURVE",
"116 -7 OFFCURVE",
"205 -7 CURVE SMOOTH"
);
}
);
width = 590;
},
{
anchors = (
{
name = bottom;
position = "{370, 0}";
},
{
name = ogonek;
position = "{668, 0}";
},
{
name = top;
position = "{325, 527}";
}
);
layerId = "219068EA-2B9B-40DC-949E-B60449C01B8A";
paths = (
{
closed = 1;
nodes = (
"243 335 OFFCURVE",
"275 365 OFFCURVE",
"276 406 CURVE SMOOTH",
"277 450 OFFCURVE",
"241 470 OFFCURVE",
"184 473 CURVE",
"180 390 LINE",
"190 440 OFFCURVE",
"240 455 OFFCURVE",
"290 455 CURVE SMOOTH",
"340 455 OFFCURVE",
"375 435 OFFCURVE",
"375 390 CURVE",
"544 370 LINE",
"545 482 OFFCURVE",
"469 538 OFFCURVE",
"330 538 CURVE SMOOTH",
"205 538 OFFCURVE",
"87 497 OFFCURVE",
"87 419 CURVE SMOOTH",
"87 361 OFFCURVE",
"135 335 OFFCURVE",
"189 335 CURVE SMOOTH"
);
},
{
closed = 1;
nodes = (
"675 -13 OFFCURVE",
"730 51 OFFCURVE",
"730 153 CURVE SMOOTH",
"730 281 LINE",
"616 281 LINE",
"616 139 LINE SMOOTH",
"616 115 OFFCURVE",
"604 98 OFFCURVE",
"580 98 CURVE SMOOTH",
"557 98 OFFCURVE",
"544 115 OFFCURVE",
"544 139 CURVE SMOOTH",
"544 370 LINE",
"375 390 LINE",
"375 342 LINE",
"368 286 LINE",
"373 286 LINE",
"373 172 LINE",
"393 172 LINE",
"393 156 LINE SMOOTH",
"393 49 OFFCURVE",
"451 -13 OFFCURVE",
"564 -13 CURVE SMOOTH"
);
},
{
closed = 1;
nodes = (
"321 -11 OFFCURVE",
"410 49 OFFCURVE",
"410 207 CURVE",
"373 210 LINE",
"373 140 OFFCURVE",
"331 117 OFFCURVE",
"292 117 CURVE SMOOTH",
"252 117 OFFCURVE",
"225 135 OFFCURVE",
"225 170 CURVE SMOOTH",
"225 207 OFFCURVE",
"252 220 OFFCURVE",
"297 237 CURVE SMOOTH",
"316 244 LINE SMOOTH",
"345 255 OFFCURVE",
"364 265 OFFCURVE",
"373 286 CURVE",
"377 286 LINE",
"375 390 LINE",
"375 350 OFFCURVE",
"349 330 OFFCURVE",
"295 316 CURVE SMOOTH",
"200 292 LINE SMOOTH",
"103 267 OFFCURVE",
"39 226 OFFCURVE",
"39 132 CURVE SMOOTH",
"39 44 OFFCURVE",
"112 -11 OFFCURVE",
"217 -11 CURVE SMOOTH"
);
}
);
width = 744;
},
{
anchors = (
{
name = bottom;
position = "{337, 0}";
},
{
name = ogonek;
position = "{606, 0}";
},
{
name = top;
position = "{300, 518}";
}
);
layerId = "0C29AA02-E021-4BD1-A2C4-87F681D64C35";
paths = (
{
closed = 1;
nodes = (
"220 312 OFFCURVE",
"252 339 OFFCURVE",
"252 383 CURVE SMOOTH",
"252 430 OFFCURVE",
"216 449 OFFCURVE",
"159 449 CURVE",
"150 400 LINE",
"168 435 OFFCURVE",
"206 457 OFFCURVE",
"259 457 CURVE SMOOTH",
"307 457 OFFCURVE",
"341 436 OFFCURVE",
"341 380 CURVE",
"510 361 LINE",
"511 474 OFFCURVE",
"436 530 OFFCURVE",
"302 530 CURVE SMOOTH",
"181 530 OFFCURVE",
"72 484 OFFCURVE",
"72 395 CURVE SMOOTH",
"72 339 OFFCURVE",
"116 312 OFFCURVE",
"166 312 CURVE SMOOTH"
);
},
{
closed = 1;
nodes = (
"614 -13 OFFCURVE",
"660 50 OFFCURVE",
"660 149 CURVE SMOOTH",
"660 336 LINE",
"570 336 LINE",
"570 140 LINE SMOOTH",
"570 119 OFFCURVE",
"559 105 OFFCURVE",
"539 105 CURVE SMOOTH",
"521 105 OFFCURVE",
"510 119 OFFCURVE",
"510 140 CURVE SMOOTH",
"510 361 LINE",
"341 380 LINE",
"341 332 LINE",
"335 287 LINE",
"339 287 LINE",
"339 162 LINE",
"360 162 LINE",
"360 147 LINE SMOOTH",
"360 45 OFFCURVE",
"405 -13 OFFCURVE",
"508 -13 CURVE SMOOTH"
);
},
{
closed = 1;
nodes = (
"304 -12 OFFCURVE",
"368 50 OFFCURVE",
"369 186 CURVE",
"339 197 LINE",
"339 135 OFFCURVE",
"305 110 OFFCURVE",
"266 110 CURVE SMOOTH",
"233 110 OFFCURVE",
"210 131 OFFCURVE",
"210 166 CURVE SMOOTH",
"210 200 OFFCURVE",
"232 220 OFFCURVE",
"270 235 CURVE SMOOTH",
"289 243 LINE SMOOTH",
"315 254 OFFCURVE",
"332 268 OFFCURVE",
"339 287 CURVE",
"344 287 LINE",
"341 381 LINE",
"341 338 OFFCURVE",
"316 319 OFFCURVE",
"267 305 CURVE SMOOTH",
"180 281 LINE SMOOTH",
"90 256 OFFCURVE",
"26 215 OFFCURVE",
"26 125 CURVE SMOOTH",
"26 45 OFFCURVE",
"88 -12 OFFCURVE",
"192 -12 CURVE SMOOTH"
);
}
);
width = 678;
},
{
anchors = (
{
name = bottom;
position = "{320, 0}";
},
{
name = ogonek;
position = "{594, 0}";
},
{
name = top;
position = "{285, 500}";
}
);
layerId = "2B88661E-23DD-4EDA-82FC-C2AEA983F097";
paths = (
{
closed = 1;
nodes = (
"151 340 OFFCURVE",
"162 350 OFFCURVE",
"162 366 CURVE SMOOTH",
"162 388 OFFCURVE",
"143 400 OFFCURVE",
"115 400 CURVE",
"120 387 LINE",
"119 454 OFFCURVE",
"200 484 OFFCURVE",
"286 484 CURVE SMOOTH",
"386 484 OFFCURVE",
"431 445 OFFCURVE",
"431 385 CURVE",
"458 376 LINE",
"458 465 OFFCURVE",
"396 507 OFFCURVE",
"289 507 CURVE SMOOTH",
"188 507 OFFCURVE",
"96 468 OFFCURVE",
"96 387 CURVE SMOOTH",
"96 356 OFFCURVE",
"114 340 OFFCURVE",
"134 340 CURVE SMOOTH"
);
},
{
closed = 1;
nodes = (
"579 -7 OFFCURVE",
"612 29 OFFCURVE",
"612 92 CURVE SMOOTH",
"612 264 LINE",
"589 264 LINE",
"589 92 LINE SMOOTH",
"589 47 OFFCURVE",
"567 16 OFFCURVE",
"524 16 CURVE SMOOTH",
"480 16 OFFCURVE",
"458 47 OFFCURVE",
"458 92 CURVE SMOOTH",
"458 376 LINE",
"431 385 LINE",
"431 353 LINE",
"426 319 LINE",
"431 319 LINE",
"431 151 LINE",
"434 151 LINE",
"434 92 LINE SMOOTH",
"434 29 OFFCURVE",
"468 -7 OFFCURVE",
"523 -7 CURVE SMOOTH"
);
},
{
closed = 1;
nodes = (
"357 -8 OFFCURVE",
"450 65 OFFCURVE",
"450 247 CURVE",
"431 247 LINE",
"431 79 OFFCURVE",
"341 15 OFFCURVE",
"235 15 CURVE SMOOTH",
"149 15 OFFCURVE",
"95 53 OFFCURVE",
"95 119 CURVE SMOOTH",
"95 199 OFFCURVE",
"156 224 OFFCURVE",
"233 240 CURVE SMOOTH",
"311 256 LINE SMOOTH",
"376 269 OFFCURVE",
"414 284 OFFCURVE",
"431 319 CURVE",
"435 319 LINE",
"431 381 LINE",
"431 311 OFFCURVE",
"380 293 OFFCURVE",
"306 278 CURVE SMOOTH",
"222 261 LINE SMOOTH",
"132 243 OFFCURVE",
"67 208 OFFCURVE",
"67 117 CURVE SMOOTH",
"67 39 OFFCURVE",
"133 -8 OFFCURVE",
"230 -8 CURVE SMOOTH"
);
}
);
width = 645;
}
);
leftKerningGroup = a;
rightKerningGroup = a;
unicode = 0061;
},
{
color = 8;
glyphname = ae;
lastChange = "2021-06-30 15:54:29 +0000";
layers = (
{
anchors = (
{
name = top;
position = "{425, 491}";
}
);
layerId = "1E61A082-F045-49A7-AB52-DD1B03FD9B54";
paths = (
{
closed = 1;
nodes = (
"133 323 OFFCURVE",
"142 332 OFFCURVE",
"142 348 CURVE SMOOTH",
"142 368 OFFCURVE",
"119 379 OFFCURVE",
"95 376 CURVE",
"103 369 LINE",
"100 451 OFFCURVE",
"173 480 OFFCURVE",
"255 480 CURVE SMOOTH",
"353 480 OFFCURVE",
"399 440 OFFCURVE",
"399 372 CURVE",
"420 364 LINE",
"420 457 OFFCURVE",
"358 497 OFFCURVE",
"255 497 CURVE SMOOTH",
"163 497 OFFCURVE",
"83 460 OFFCURVE",
"83 369 CURVE SMOOTH",
"83 340 OFFCURVE",
"98 323 OFFCURVE",
"118 323 CURVE SMOOTH"
);
},
{
closed = 1;
nodes = (
"420 364 LINE",
"399 372 LINE",
"399 346 LINE",
"395 320 LINE",
"399 320 LINE",
"399 187 LINE",
"407 190 LINE",
"420 190 LINE"
);
},
{
closed = 1;
nodes = (
"325 -7 OFFCURVE",
"413 64 OFFCURVE",
"414 225 CURVE",
"399 244 LINE",
"399 74 OFFCURVE",
"312 10 OFFCURVE",
"208 10 CURVE SMOOTH",
"132 10 OFFCURVE",
"77 49 OFFCURVE",
"77 116 CURVE SMOOTH",
"77 189 OFFCURVE",
"125 222 OFFCURVE",
"211 240 CURVE SMOOTH",
"281 255 LINE SMOOTH",
"351 270 OFFCURVE",
"382 285 OFFCURVE",
"399 320 CURVE",
"404 320 LINE",
"399 368 LINE",
"399 303 OFFCURVE",
"349 288 OFFCURVE",
"277 272 CURVE SMOOTH",
"204 256 LINE SMOOTH",
"116 237 OFFCURVE",
"55 201 OFFCURVE",
"55 116 CURVE SMOOTH",
"55 39 OFFCURVE",
"117 -7 OFFCURVE",
"206 -7 CURVE SMOOTH"
);
},
{
closed = 1;
nodes = (
"743 -7 OFFCURVE",
"796 97 OFFCURVE",
"802 173 CURVE",
"786 173 LINE",
"780 107 OFFCURVE",
"732 11 OFFCURVE",
"610 11 CURVE SMOOTH",
"497 11 OFFCURVE",
"421 99 OFFCURVE",
"421 245 CURVE SMOOTH",
"421 392 OFFCURVE",
"496 480 OFFCURVE",
"610 480 CURVE",
"610 497 LINE",
"485 497 OFFCURVE",
"401 406 OFFCURVE",
"401 245 CURVE SMOOTH",
"401 85 OFFCURVE",
"486 -7 OFFCURVE",
"610 -7 CURVE SMOOTH"
);
},
{
closed = 1;
nodes = (
"808 267 LINE",
"808 273 LINE",
"789 284 LINE",
"414 284 LINE",
"414 267 LINE"
);
},
{
closed = 1;
nodes = (
"808 405 OFFCURVE",
"739 497 OFFCURVE",
"610 497 CURVE",
"610 480 LINE",
"728 480 OFFCURVE",
"785 393 OFFCURVE",
"789 284 CURVE",
"808 273 LINE"
);
}
);
width = 859;
},
{
anchors = (
{
name = top;
position = "{457, 527}";
}
);
layerId = "219068EA-2B9B-40DC-949E-B60449C01B8A";
paths = (
{
closed = 1;
nodes = (
"224 330 OFFCURVE",
"256 360 OFFCURVE",
"257 402 CURVE SMOOTH",
"258 446 OFFCURVE",
"222 465 OFFCURVE",
"163 468 CURVE",
"159 385 LINE",
"180 427 OFFCURVE",
"223 457 OFFCURVE",
"277 457 CURVE SMOOTH",
"326 457 OFFCURVE",
"363 435 OFFCURVE",
"363 388 CURVE",
"500 345 LINE",
"501 474 OFFCURVE",
"428 539 OFFCURVE",
"288 539 CURVE SMOOTH",
"172 539 OFFCURVE",
"63 496 OFFCURVE",
"63 415 CURVE SMOOTH",
"63 357 OFFCURVE",
"113 330 OFFCURVE",
"168 330 CURVE SMOOTH"
);
},
{
closed = 1;
nodes = (
"500 345 LINE",
"363 388 LINE",
"363 342 LINE",
"356 296 LINE",
"361 296 LINE",
"361 172 LINE",
"390 172 LINE",
"500 151 LINE"
);
},
{
closed = 1;
nodes = (
"334 -12 OFFCURVE",
"405 50 OFFCURVE",
"410 160 CURVE",
"361 210 LINE",
"361 140 OFFCURVE",
"321 117 OFFCURVE",
"284 117 CURVE SMOOTH",
"251 117 OFFCURVE",
"225 136 OFFCURVE",
"225 171 CURVE SMOOTH",
"225 206 OFFCURVE",
"246 224 OFFCURVE",
"288 241 CURVE SMOOTH",
"305 248 LINE SMOOTH",
"333 260 OFFCURVE",
"351 275 OFFCURVE",
"361 296 CURVE",
"365 296 LINE",
"363 388 LINE",
"363 345 OFFCURVE",
"335 329 OFFCURVE",
"284 315 CURVE SMOOTH",
"196 291 LINE SMOOTH",
"102 265 OFFCURVE",
"39 225 OFFCURVE",
"39 132 CURVE SMOOTH",
"39 48 OFFCURVE",
"107 -12 OFFCURVE",
"219 -12 CURVE SMOOTH"
);
},
{
closed = 1;
nodes = (
"790 -12 OFFCURVE",
"865 93 OFFCURVE",
"871 200 CURVE",
"756 200 LINE",
"743 155 OFFCURVE",
"714 121 OFFCURVE",
"655 121 CURVE SMOOTH",
"584 121 OFFCURVE",
"539 181 OFFCURVE",
"539 277 CURVE SMOOTH",
"539 397 OFFCURVE",
"570 441 OFFCURVE",
"626 441 CURVE",
"630 539 LINE",
"484 539 OFFCURVE",
"379 441 OFFCURVE",
"379 264 CURVE SMOOTH",
"379 86 OFFCURVE",
"488 -12 OFFCURVE",
"641 -12 CURVE SMOOTH"
);
},
{
closed = 1;
nodes = (
"877 255 LINE",
"877 290 LINE",
"698 345 LINE",
"443 345 LINE",
"443 255 LINE"
);
},
{
closed = 1;
nodes = (
"877 438 OFFCURVE",
"786 539 OFFCURVE",
"630 539 CURVE",
"626 441 LINE",
"673 441 OFFCURVE",
"697 397 OFFCURVE",
"698 345 CURVE",
"877 290 LINE"
);
}
);
width = 926;
},
{
anchors = (
{
name = top;
position = "{417, 518}";
}
);
layerId = "0C29AA02-E021-4BD1-A2C4-87F681D64C35";
paths = (
{
closed = 1;
nodes = (
"213 310 OFFCURVE",
"248 341 OFFCURVE",
"248 385 CURVE SMOOTH",
"248 432 OFFCURVE",
"208 449 OFFCURVE",
"145 449 CURVE",
"145 393 LINE",
"165 430 OFFCURVE",
"200 457 OFFCURVE",
"252 457 CURVE SMOOTH",
"302 457 OFFCURVE",
"332 433 OFFCURVE",
"332 378 CURVE",
"469 345 LINE",
"470 468 OFFCURVE",
"405 530 OFFCURVE",
"273 530 CURVE SMOOTH",
"158 530 OFFCURVE",
"54 482 OFFCURVE",
"54 392 CURVE SMOOTH",
"54 336 OFFCURVE",
"101 310 OFFCURVE",
"154 310 CURVE SMOOTH"
);
},
{
closed = 1;
nodes = (
"469 345 LINE",
"332 378 LINE",
"332 332 LINE",
"325 287 LINE",
"330 287 LINE",
"330 164 LINE",
"372 166 LINE",
"469 145 LINE"
);
},
{
closed = 1;
nodes = (
"311 -12 OFFCURVE",
"374 68 OFFCURVE",
"372 166 CURVE",
"330 197 LINE",
"330 135 OFFCURVE",
"300 110 OFFCURVE",
"264 110 CURVE SMOOTH",
"233 110 OFFCURVE",
"210 131 OFFCURVE",
"210 166 CURVE SMOOTH",
"210 200 OFFCURVE",
"233 218 OFFCURVE",
"270 235 CURVE SMOOTH",
"284 242 LINE SMOOTH",
"308 253 OFFCURVE",
"323 268 OFFCURVE",
"330 287 CURVE",
"335 287 LINE",
"332 378 LINE",
"332 338 OFFCURVE",
"308 318 OFFCURVE",
"262 305 CURVE SMOOTH",
"180 281 LINE SMOOTH",
"91 255 OFFCURVE",
"26 213 OFFCURVE",
"26 126 CURVE SMOOTH",
"26 45 OFFCURVE",
"90 -12 OFFCURVE",
"196 -12 CURVE SMOOTH"
);
},
{
closed = 1;
nodes = (
"739 -12 OFFCURVE",
"817 95 OFFCURVE",
"820 223 CURVE",
"740 223 LINE",
"732 165 OFFCURVE",
"699 113 OFFCURVE",
"632 113 CURVE SMOOTH",
"554 113 OFFCURVE",
"511 175 OFFCURVE",
"511 285 CURVE SMOOTH",
"511 413 OFFCURVE",
"540 451 OFFCURVE",
"583 451 CURVE",
"589 530 LINE",
"446 530 OFFCURVE",
"344 427 OFFCURVE",
"344 254 CURVE SMOOTH",
"344 87 OFFCURVE",
"445 -12 OFFCURVE",
"590 -12 CURVE SMOOTH"
);
},
{
closed = 1;
nodes = (
"825 259 LINE",
"825 287 LINE",
"642 340 LINE",
"420 340 LINE",
"420 259 LINE"
);
},
{
closed = 1;
nodes = (
"825 428 OFFCURVE",
"742 530 OFFCURVE",
"589 530 CURVE",
"583 451 LINE",
"620 451 OFFCURVE",
"641 409 OFFCURVE",
"642 340 CURVE",
"825 287 LINE"
);
}
);
width = 856;
},
{
anchors = (
{
name = top;
position = "{456, 500}";
}
);
layerId = "2B88661E-23DD-4EDA-82FC-C2AEA983F097";
paths = (
{
closed = 1;
nodes = (
"151 340 OFFCURVE",
"162 350 OFFCURVE",
"162 366 CURVE SMOOTH",
"162 387 OFFCURVE",
"138 399 OFFCURVE",
"114 396 CURVE",
"121 387 LINE",
"120 454 OFFCURVE",
"200 484 OFFCURVE",
"286 484 CURVE SMOOTH",
"386 484 OFFCURVE",
"431 445 OFFCURVE",
"431 385 CURVE",
"456 377 LINE",
"456 466 OFFCURVE",
"396 507 OFFCURVE",
"289 507 CURVE SMOOTH",
"188 507 OFFCURVE",
"96 468 OFFCURVE",
"96 387 CURVE SMOOTH",
"96 357 OFFCURVE",
"113 340 OFFCURVE",
"134 340 CURVE SMOOTH"
);
},
{
closed = 1;
nodes = (
"456 377 LINE",
"431 385 LINE",
"431 353 LINE",
"426 319 LINE",
"431 319 LINE",
"431 199 LINE",
"440 200 LINE",
"456 199 LINE"
);
},
{
closed = 1;
nodes = (
"360 -8 OFFCURVE",
"451 65 OFFCURVE",
"450 247 CURVE",
"431 247 LINE",
"431 79 OFFCURVE",
"341 15 OFFCURVE",
"235 15 CURVE SMOOTH",
"149 15 OFFCURVE",
"95 53 OFFCURVE",
"95 119 CURVE SMOOTH",
"95 199 OFFCURVE",
"156 224 OFFCURVE",
"233 240 CURVE SMOOTH",
"311 256 LINE SMOOTH",
"376 269 OFFCURVE",
"414 284 OFFCURVE",
"431 319 CURVE",
"435 319 LINE",
"431 381 LINE",
"431 311 OFFCURVE",
"380 293 OFFCURVE",
"306 278 CURVE SMOOTH",
"222 261 LINE SMOOTH",
"132 243 OFFCURVE",
"67 208 OFFCURVE",
"67 117 CURVE SMOOTH",
"67 39 OFFCURVE",
"133 -8 OFFCURVE",
"230 -8 CURVE SMOOTH"
);
},
{
closed = 1;
nodes = (
"789 -7 OFFCURVE",
"841 85 OFFCURVE",
"853 149 CURVE",
"830 149 LINE",
"818 97 OFFCURVE",
"773 17 OFFCURVE",
"654 17 CURVE SMOOTH",
"533 17 OFFCURVE",
"458 104 OFFCURVE",
"458 250 CURVE SMOOTH",
"458 397 OFFCURVE",
"533 484 OFFCURVE",
"654 484 CURVE",
"654 507 LINE",
"520 507 OFFCURVE",
"433 414 OFFCURVE",
"433 250 CURVE SMOOTH",
"433 86 OFFCURVE",
"519 -7 OFFCURVE",
"653 -7 CURVE SMOOTH"
);
},
{
closed = 1;
nodes = (
"862 267 LINE",
"862 278 LINE",
"838 290 LINE",
"447 290 LINE",
"447 267 LINE"
);
},
{
closed = 1;
nodes = (
"862 413 OFFCURVE",
"788 507 OFFCURVE",
"654 507 CURVE",
"654 484 LINE",
"775 484 OFFCURVE",
"833 398 OFFCURVE",
"838 290 CURVE",
"862 278 LINE"
);
}
);
width = 922;
}
);
leftKerningGroup = a;
leftMetricsKey = a;
rightKerningGroup = o;
rightMetricsKey = e;
unicode = 00E6;
},
{
color = 8;
glyphname = b;
lastChange = "2021-06-30 15:54:23 +0000";
layers = (
{
anchors = (
{
name = bottom;
position = "{296, 0}";
},
{
name = top;
position = "{296, 682}";
}
);
hints = (
{
origin = "{2, 5}";
scale = "{-0.9, 1}";
type = Corner;
name = _corner.Serif;
}
);
layerId = "1E61A082-F045-49A7-AB52-DD1B03FD9B54";
paths = (
{
closed = 1;
nodes = (
"446 -10 OFFCURVE",
"534 85 OFFCURVE",
"534 245 CURVE SMOOTH",
"534 406 OFFCURVE",
"446 500 OFFCURVE",
"320 500 CURVE SMOOTH",
"190 500 OFFCURVE",
"112 406 OFFCURVE",
"112 246 CURVE",
"112 244 LINE",
"112 84 OFFCURVE",
"190 -10 OFFCURVE",
"320 -10 CURVE SMOOTH"
);
},
{
closed = 1;
nodes = (
"205 7 OFFCURVE",
"123 97 OFFCURVE",
"123 245 CURVE SMOOTH",
"123 395 OFFCURVE",
"205 483 OFFCURVE",
"320 483 CURVE SMOOTH",
"432 483 OFFCURVE",
"512 395 OFFCURVE",
"512 245 CURVE SMOOTH",
"512 97 OFFCURVE",
"432 7 OFFCURVE",
"320 7 CURVE SMOOTH"
);
},
{
closed = 1;
nodes = (
"123 0 LINE",
"123 174 LINE",
"116 245 LINE",
"125 335 LINE",
"125 682 LINE",
"103 682 LINE",
"103 0 LINE"
);
}
);
width = 583;
},
{
anchors = (
{
name = bottom;
position = "{353, 0}";
},
{
name = top;
position = "{353, 718}";
}
);
hints = (
{
origin = "{2, 5}";
scale = "{-0.9, 0.96933}";
type = Corner;
name = _corner.Serif;
}
);
layerId = "219068EA-2B9B-40DC-949E-B60449C01B8A";
paths = (
{
closed = 1;
nodes = (
"568 -10 OFFCURVE",
"667 88 OFFCURVE",
"667 264 CURVE SMOOTH",
"667 439 OFFCURVE",
"568 537 OFFCURVE",
"427 537 CURVE SMOOTH",
"279 537 OFFCURVE",
"232 435 OFFCURVE",
"232 265 CURVE",
"219 263 LINE",
"219 97 OFFCURVE",
"279 -10 OFFCURVE",
"425 -10 CURVE SMOOTH"
);
},
{
closed = 1;
nodes = (
"290 105 OFFCURVE",
"250 159 OFFCURVE",
"250 264 CURVE SMOOTH",
"250 368 OFFCURVE",
"290 423 OFFCURVE",
"360 423 CURVE SMOOTH",
"430 423 OFFCURVE",
"470 368 OFFCURVE",
"470 264 CURVE SMOOTH",
"470 159 OFFCURVE",
"430 105 OFFCURVE",
"360 105 CURVE SMOOTH"
);
},
{
closed = 1;
nodes = (
"245 0 LINE",
"245 119 LINE",
"235 264 LINE",
"259 381 LINE",
"259 718 LINE",
"77 718 LINE",
"77 0 LINE"
);
}
);
width = 712;
},
{
anchors = (
{
name = bottom;
position = "{322, 0}";
},
{
name = top;
position = "{322, 682}";
}
);
hints = (
{
origin = "{2, 5}";
scale = "{-0.9, 0.96933}";
type = Corner;
name = _corner.Serif;
}
);
layerId = "0C29AA02-E021-4BD1-A2C4-87F681D64C35";
paths = (
{
closed = 1;
nodes = (
"533 -10 OFFCURVE",
"622 82 OFFCURVE",
"622 259 CURVE SMOOTH",
"622 436 OFFCURVE",
"533 528 OFFCURVE",
"401 528 CURVE SMOOTH",
"254 528 OFFCURVE",
"211 418 OFFCURVE",
"211 260 CURVE",
"201 258 LINE",
"200 105 OFFCURVE",
"254 -10 OFFCURVE",
"400 -10 CURVE SMOOTH"
);
},
{
closed = 1;
nodes = (
"270 90 OFFCURVE",
"236 148 OFFCURVE",
"236 259 CURVE SMOOTH",
"236 370 OFFCURVE",
"270 428 OFFCURVE",
"331 428 CURVE SMOOTH",
"391 428 OFFCURVE",
"425 370 OFFCURVE",
"425 259 CURVE SMOOTH",
"425 148 OFFCURVE",
"391 90 OFFCURVE",
"331 90 CURVE SMOOTH"
);
},
{
closed = 1;
nodes = (
"232 0 LINE",
"232 119 LINE",
"218 264 LINE",
"245 381 LINE",
"245 682 LINE",
"64 682 LINE",
"64 0 LINE"
);
}
);
width = 659;
},
{
anchors = (
{
name = bottom;
position = "{325, 0}";
},
{
name = top;
position = "{325, 710}";
}
);
hints = (
{
origin = "{2, 5}";
scale = "{-0.9, 1}";
type = Corner;
name = _corner.Serif;
}
);
layerId = "2B88661E-23DD-4EDA-82FC-C2AEA983F097";
paths = (
{
closed = 1;
nodes = (
"495 -8 OFFCURVE",
"592 90 OFFCURVE",
"592 250 CURVE SMOOTH",
"592 410 OFFCURVE",
"495 508 OFFCURVE",
"360 508 CURVE SMOOTH",
"215 508 OFFCURVE",
"129 410 OFFCURVE",
"129 251 CURVE",
"129 249 LINE",
"129 90 OFFCURVE",
"215 -8 OFFCURVE",
"360 -8 CURVE SMOOTH"
);
},
{
closed = 1;
nodes = (
"235 15 OFFCURVE",
"147 103 OFFCURVE",
"147 250 CURVE SMOOTH",
"147 397 OFFCURVE",
"235 485 OFFCURVE",
"357 485 CURVE SMOOTH",
"479 485 OFFCURVE",
"564 397 OFFCURVE",
"564 250 CURVE SMOOTH",
"564 103 OFFCURVE",
"479 15 OFFCURVE",
"357 15 CURVE SMOOTH"
);
},
{
closed = 1;
nodes = (
"146 0 LINE",
"146 150 LINE",
"135 250 LINE",
"149 340 LINE",
"149 710 LINE",
"121 710 LINE",
"121 0 LINE"
);
}
);
width = 652;
}
);
leftKerningGroup = b;
rightKerningGroup = o;
rightMetricsKey = p;
unicode = 0062;
},
{
color = 8;
glyphname = c;
lastChange = "2021-06-30 15:46:30 +0000";
layers = (
{
anchors = (
{
name = bottom;
position = "{262, 0}";
},
{
name = top;
position = "{279, 490}";
}
);
layerId = "1E61A082-F045-49A7-AB52-DD1B03FD9B54";
rightMetricsKey = "=o-14";
paths = (
{
closed = 1;
nodes = (
"410 -9 OFFCURVE",
"469 88 OFFCURVE",
"476 185 CURVE",
"460 185 LINE",
"454 103 OFFCURVE",
"400 9 OFFCURVE",
"275 9 CURVE SMOOTH",
"157 9 OFFCURVE",
"79 98 OFFCURVE",
"79 245 CURVE SMOOTH",
"79 394 OFFCURVE",
"161 483 OFFCURVE",
"282 483 CURVE",
"282 500 LINE",
"149 500 OFFCURVE",
"57 408 OFFCURVE",
"57 245 CURVE SMOOTH",
"57 83 OFFCURVE",
"146 -9 OFFCURVE",
"275 -9 CURVE SMOOTH"
);
},
{
closed = 1;
nodes = (
"456 307 OFFCURVE",
"468 320 OFFCURVE",
"468 350 CURVE SMOOTH",
"468 425 OFFCURVE",
"409 500 OFFCURVE",
"282 500 CURVE",
"282 483 LINE",
"401 483 OFFCURVE",
"450 414 OFFCURVE",
"448 348 CURVE",
"456 358 LINE",
"434 361 OFFCURVE",
"412 352 OFFCURVE",
"412 331 CURVE SMOOTH",
"412 316 OFFCURVE",
"421 307 OFFCURVE",
"436 307 CURVE SMOOTH"
);
}
);
width = 519;
},
{
anchors = (
{
name = bottom;
position = "{301, 0}";
},
{
name = top;
position = "{320, 527}";
}
);
layerId = "219068EA-2B9B-40DC-949E-B60449C01B8A";
rightMetricsKey = "=o+8";
paths = (
{
closed = 1;
nodes = (
"473 -12 OFFCURVE",
"566 84 OFFCURVE",
"569 212 CURVE",
"465 212 LINE",
"455 164 OFFCURVE",
"417 125 OFFCURVE",
"356 125 CURVE SMOOTH",
"266 125 OFFCURVE",
"216 194 OFFCURVE",
"216 290 CURVE SMOOTH",
"216 385 OFFCURVE",
"267 448 OFFCURVE",
"350 448 CURVE",
"326 538 LINE",
"156 538 OFFCURVE",
"35 445 OFFCURVE",
"35 264 CURVE SMOOTH",
"35 83 OFFCURVE",
"153 -12 OFFCURVE",
"318 -12 CURVE SMOOTH"
);
},
{
closed = 1;
nodes = (
"517 310 OFFCURVE",
"561 342 OFFCURVE",
"561 397 CURVE SMOOTH",
"561 478 OFFCURVE",
"468 538 OFFCURVE",
"326 538 CURVE",
"350 448 LINE",
"402 448 OFFCURVE",
"429 430 OFFCURVE",
"464 392 CURVE",
"461 455 LINE",
"400 455 OFFCURVE",
"363 430 OFFCURVE",
"363 385 CURVE SMOOTH",
"363 341 OFFCURVE",
"398 310 OFFCURVE",
"457 310 CURVE SMOOTH"
);
}
);
width = 612;
},
{
anchors = (
{
name = bottom;
position = "{279, 0}";
},
{
name = top;
position = "{293, 518}";
}
);
layerId = "0C29AA02-E021-4BD1-A2C4-87F681D64C35";
rightMetricsKey = "=o+10";
paths = (
{
closed = 1;
nodes = (
"447 -14 OFFCURVE",
"529 83 OFFCURVE",
"532 222 CURVE",
"452 222 LINE",
"443 168 OFFCURVE",
"404 122 OFFCURVE",
"335 122 CURVE SMOOTH",
"250 122 OFFCURVE",
"202 190 OFFCURVE",
"202 286 CURVE SMOOTH",
"202 384 OFFCURVE",
"244 456 OFFCURVE",
"336 456 CURVE",
"300 529 LINE",
"134 529 OFFCURVE",
"24 434 OFFCURVE",
"24 260 CURVE SMOOTH",
"24 83 OFFCURVE",
"134 -14 OFFCURVE",
"292 -14 CURVE SMOOTH"
);
},
{
closed = 1;
nodes = (
"487 280 OFFCURVE",
"527 317 OFFCURVE",
"527 375 CURVE SMOOTH",
"527 459 OFFCURVE",
"430 529 OFFCURVE",
"300 529 CURVE",
"336 456 LINE",
"397 456 OFFCURVE",
"432 427 OFFCURVE",
"450 387 CURVE",
"428 435 LINE",
"368 435 OFFCURVE",
"330 408 OFFCURVE",
"330 358 CURVE SMOOTH",
"330 311 OFFCURVE",
"368 280 OFFCURVE",
"425 280 CURVE SMOOTH"
);
}
);
width = 565;
},
{
anchors = (
{
name = bottom;
position = "{283, 0}";
},
{
name = top;
position = "{308, 500}";
}
);
layerId = "2B88661E-23DD-4EDA-82FC-C2AEA983F097";
paths = (
{
closed = 1;
nodes = (
"446 -9 OFFCURVE",
"506 95 OFFCURVE",
"511 166 CURVE",
"488 166 LINE",
"483 110 OFFCURVE",
"429 16 OFFCURVE",
"300 16 CURVE SMOOTH",
"174 16 OFFCURVE",
"88 105 OFFCURVE",
"88 251 CURVE SMOOTH",
"88 399 OFFCURVE",
"178 489 OFFCURVE",
"310 489 CURVE",
"309 512 LINE",
"163 512 OFFCURVE",
"60 416 OFFCURVE",
"60 250 CURVE SMOOTH",
"60 85 OFFCURVE",
"159 -9 OFFCURVE",
"299 -9 CURVE SMOOTH"
);
},
{
closed = 1;
nodes = (
"491 314 OFFCURVE",
"505 333 OFFCURVE",
"505 363 CURVE SMOOTH",
"505 432 OFFCURVE",
"441 512 OFFCURVE",
"309 512 CURVE",
"310 489 LINE",
"430 489 OFFCURVE",
"481 419 OFFCURVE",
"481 361 CURVE",
"490 376 LINE",
"465 376 OFFCURVE",
"441 366 OFFCURVE",
"441 341 CURVE SMOOTH",
"441 325 OFFCURVE",
"452 314 OFFCURVE",
"469 314 CURVE SMOOTH"
);
}
);
width = 573;
}
);
leftKerningGroup = o;
leftMetricsKey = o;
rightKerningGroup = c;
rightMetricsKey = o;
unicode = 0063;
},
{
color = 8;
glyphname = d;
lastChange = "2021-06-30 15:54:11 +0000";
layers = (
{
anchors = (
{
name = bottom;
position = "{291, 0}";
},
{
name = center;
position = "{291, 245}";
},
{
name = top;
position = "{291, 682}";
},
{
name = topright;
position = "{480, 682}";
}
);
hints = (
{
origin = "{2, 0}";
scale = "{-0.9, 1}";
type = Corner;
name = _corner.Serif;
},
{
origin = "{2, 2}";
scale = "{-0.9, 1}";
type = Corner;
name = _corner.Serif;
}
);
layerId = "1E61A082-F045-49A7-AB52-DD1B03FD9B54";
paths = (
{
closed = 1;
nodes = (
"393 -10 OFFCURVE",
"471 84 OFFCURVE",
"471 244 CURVE",
"471 246 LINE",
"471 406 OFFCURVE",
"393 500 OFFCURVE",
"263 500 CURVE SMOOTH",
"137 500 OFFCURVE",
"49 406 OFFCURVE",
"49 245 CURVE SMOOTH",
"49 85 OFFCURVE",
"137 -10 OFFCURVE",
"263 -10 CURVE SMOOTH"
);
},
{
closed = 1;
nodes = (
"150 7 OFFCURVE",
"71 97 OFFCURVE",
"71 245 CURVE SMOOTH",
"71 394 OFFCURVE",
"150 483 OFFCURVE",
"263 483 CURVE SMOOTH",
"378 483 OFFCURVE",
"460 394 OFFCURVE",
"460 245 CURVE SMOOTH",
"460 97 OFFCURVE",
"378 7 OFFCURVE",
"263 7 CURVE SMOOTH"
);
},
{
closed = 1;
nodes = (
"480 0 LINE",
"480 682 LINE",
"458 682 LINE",
"458 335 LINE",
"465 245 LINE",
"460 168 LINE",
"460 0 LINE"
);
}
);
width = 594;
},
{
anchors = (
{
name = bottom;
position = "{365, 0}";
},
{
name = center;
position = "{365, 264}";
},
{
name = top;
position = "{365, 718}";
},
{
name = topright;
position = "{635, 718}";
}
);
hints = (
{
origin = "{2, 2}";
scale = "{-0.92, 0.98}";
type = Corner;
name = _corner.Serif;
},
{
origin = "{2, 0}";
scale = "{-0.92, 0.98}";
type = Corner;
name = _corner.Serif;
}
);
layerId = "219068EA-2B9B-40DC-949E-B60449C01B8A";
paths = (
{
closed = 1;
nodes = (
"433 -10 OFFCURVE",
"493 97 OFFCURVE",
"493 263 CURVE",
"480 265 LINE",
"480 435 OFFCURVE",
"433 537 OFFCURVE",
"285 537 CURVE SMOOTH",
"144 537 OFFCURVE",
"45 439 OFFCURVE",
"45 264 CURVE SMOOTH",
"45 88 OFFCURVE",
"144 -10 OFFCURVE",
"286 -10 CURVE SMOOTH"
);
},
{
closed = 1;
nodes = (
"282 105 OFFCURVE",
"241 159 OFFCURVE",
"241 264 CURVE SMOOTH",
"241 368 OFFCURVE",
"282 423 OFFCURVE",
"351 423 CURVE SMOOTH",
"421 423 OFFCURVE",
"462 368 OFFCURVE",
"462 264 CURVE SMOOTH",
"462 159 OFFCURVE",
"421 105 OFFCURVE",
"351 105 CURVE SMOOTH"
);
},
{
closed = 1;
nodes = (
"635 0 LINE",
"635 718 LINE",
"453 718 LINE",
"453 381 LINE",
"477 264 LINE",
"467 127 LINE",
"467 0 LINE"
);
}
);
width = 730;
},
{
anchors = (
{
name = bottom;
position = "{345, 0}";
},
{
name = center;
position = "{345, 259}";
},
{
name = top;
position = "{345, 682}";
},
{
name = topright;
position = "{596, 682}";
}
);
hints = (
{
origin = "{2, 2}";
scale = "{-0.96, 0.98}";
type = Corner;
name = _corner.Serif;
},
{
origin = "{2, 0}";
scale = "{-0.92, 0.98}";
type = Corner;
name = _corner.Serif;
}
);
layerId = "0C29AA02-E021-4BD1-A2C4-87F681D64C35";
paths = (
{
closed = 1;
nodes = (
"406 -10 OFFCURVE",
"459 105 OFFCURVE",
"458 258 CURVE",
"448 260 LINE",
"448 418 OFFCURVE",
"406 528 OFFCURVE",
"258 528 CURVE SMOOTH",
"127 528 OFFCURVE",
"38 436 OFFCURVE",
"38 259 CURVE SMOOTH",
"38 82 OFFCURVE",
"127 -10 OFFCURVE",
"260 -10 CURVE SMOOTH"
);
},
{
closed = 1;
nodes = (
"269 90 OFFCURVE",
"235 148 OFFCURVE",
"235 259 CURVE SMOOTH",
"235 370 OFFCURVE",
"269 428 OFFCURVE",
"329 428 CURVE SMOOTH",
"390 428 OFFCURVE",
"423 370 OFFCURVE",
"423 259 CURVE SMOOTH",
"423 148 OFFCURVE",
"390 90 OFFCURVE",
"329 90 CURVE SMOOTH"
);
},
{
closed = 1;
nodes = (
"596 0 LINE",
"596 682 LINE",
"414 682 LINE",
"414 381 LINE",
"443 264 LINE",
"428 127 LINE",
"428 0 LINE"
);
}
);
width = 678;
},
{
anchors = (
{
name = bottom;
position = "{329, 0}";
},
{
name = center;
position = "{329, 250}";
},
{
name = top;
position = "{329, 710}";
},
{
name = topright;
position = "{531, 710}";
}
);
hints = (
{
origin = "{2, 2}";
scale = "{-0.9, 1}";
type = Corner;
name = _corner.Serif;
},
{
origin = "{2, 0}";
scale = "{-0.9, 1}";
type = Corner;
name = _corner.Serif;
}
);
layerId = "2B88661E-23DD-4EDA-82FC-C2AEA983F097";
paths = (
{
closed = 1;
nodes = (
"436 -8 OFFCURVE",
"523 90 OFFCURVE",
"523 249 CURVE",
"523 251 LINE",
"523 410 OFFCURVE",
"436 508 OFFCURVE",
"292 508 CURVE SMOOTH",
"157 508 OFFCURVE",
"60 410 OFFCURVE",
"60 250 CURVE SMOOTH",
"60 90 OFFCURVE",
"157 -8 OFFCURVE",
"292 -8 CURVE SMOOTH"
);
},
{
closed = 1;
nodes = (
"173 15 OFFCURVE",
"88 103 OFFCURVE",
"88 250 CURVE SMOOTH",
"88 397 OFFCURVE",
"173 485 OFFCURVE",
"295 485 CURVE SMOOTH",
"418 485 OFFCURVE",
"505 397 OFFCURVE",
"505 250 CURVE SMOOTH",
"505 103 OFFCURVE",
"418 15 OFFCURVE",
"295 15 CURVE SMOOTH"
);
},
{
closed = 1;
nodes = (
"531 0 LINE",
"531 710 LINE",
"503 710 LINE",
"503 340 LINE",
"517 250 LINE",
"506 151 LINE",
"506 0 LINE"
);
}
);
width = 653;
}
);
leftKerningGroup = o;
leftMetricsKey = q;
rightKerningGroup = l;
rightMetricsKey = l;
unicode = 0064;
},
{
color = 8;
glyphname = eth;
lastChange = "2021-06-30 15:48:03 +0000";
layers = (
{
layerId = "1E61A082-F045-49A7-AB52-DD1B03FD9B54";
paths = (
{
closed = 1;
nodes = (
"415 -8 OFFCURVE",
"508 85 OFFCURVE",
"508 255 CURVE SMOOTH",
"508 461 OFFCURVE",
"415 619 OFFCURVE",
"233 725 CURVE",
"222 709 LINE",
"374 620 OFFCURVE",
"489 480 OFFCURVE",
"489 245 CURVE",
"486 245 LINE",
"486 99 OFFCURVE",
"404 9 OFFCURVE",
"283 9 CURVE SMOOTH",
"162 9 OFFCURVE",
"79 99 OFFCURVE",
"79 245 CURVE SMOOTH",
"79 392 OFFCURVE",
"162 481 OFFCURVE",
"283 481 CURVE SMOOTH",
"404 481 OFFCURVE",
"486 392 OFFCURVE",
"486 245 CURVE",
"498 245 LINE",
"498 416 OFFCURVE",
"410 498 OFFCURVE",
"283 498 CURVE SMOOTH",
"150 498 OFFCURVE",
"57 406 OFFCURVE",
"57 245 CURVE SMOOTH",
"57 85 OFFCURVE",
"150 -8 OFFCURVE",
"283 -8 CURVE SMOOTH"
);
},
{
closed = 1;
nodes = (
"514 635 LINE",
"514 654 LINE",
"196 581 LINE",
"196 563 LINE"
);
}
);
width = 571;
},
{
layerId = "219068EA-2B9B-40DC-949E-B60449C01B8A";
paths = (
{
closed = 1;
nodes = (
"528 -12 OFFCURVE",
"628 103 OFFCURVE",
"628 300 CURVE SMOOTH",
"628 526 OFFCURVE",
"490 705 OFFCURVE",
"292 791 CURVE",
"240 715 LINE",
"375 618 OFFCURVE",
"450 494 OFFCURVE",
"443 248 CURVE",
"435 248 LINE",
"435 146 OFFCURVE",
"395 88 OFFCURVE",
"331 88 CURVE SMOOTH",
"267 88 OFFCURVE",
"228 143 OFFCURVE",
"228 241 CURVE SMOOTH",
"228 337 OFFCURVE",
"267 394 OFFCURVE",
"331 394 CURVE SMOOTH",
"396 394 OFFCURVE",
"435 346 OFFCURVE",
"435 248 CURVE",
"459 248 LINE",
"459 438 OFFCURVE",
"387 503 OFFCURVE",
"271 503 CURVE SMOOTH",
"129 503 OFFCURVE",
"35 411 OFFCURVE",
"35 253 CURVE SMOOTH",
"35 83 OFFCURVE",
"147 -12 OFFCURVE",
"331 -12 CURVE SMOOTH"
);
},
{
closed = 1;
nodes = (
"602 601 LINE",
"602 693 LINE",
"180 630 LINE",
"180 538 LINE"
);
}
);
width = 663;
},
{
layerId = "0C29AA02-E021-4BD1-A2C4-87F681D64C35";
rightMetricsKey = "=o+12";
paths = (
{
closed = 1;
nodes = (
"494 -12 OFFCURVE",
"585 110 OFFCURVE",
"585 300 CURVE SMOOTH",
"585 524 OFFCURVE",
"447 675 OFFCURVE",
"244 779 CURVE",
"197 716 LINE",
"347 588 OFFCURVE",
"405 470 OFFCURVE",
"403 257 CURVE",
"396 251 LINE",
"396 127 OFFCURVE",
"361 67 OFFCURVE",
"307 67 CURVE SMOOTH",
"252 67 OFFCURVE",
"217 123 OFFCURVE",
"217 244 CURVE SMOOTH",
"217 367 OFFCURVE",
"252 420 OFFCURVE",
"307 420 CURVE SMOOTH",
"361 420 OFFCURVE",
"396 372 OFFCURVE",
"396 251 CURVE",
"412 250 LINE",
"412 448 OFFCURVE",
"365 507 OFFCURVE",
"237 507 CURVE SMOOTH",
"108 507 OFFCURVE",
"24 410 OFFCURVE",
"24 257 CURVE SMOOTH",
"24 93 OFFCURVE",
"121 -12 OFFCURVE",
"302 -12 CURVE SMOOTH"
);
},
{
closed = 1;
nodes = (
"548 603 LINE",
"548 688 LINE",
"150 632 LINE",
"150 546 LINE"
);
}
);
width = 620;
},
{
layerId = "2B88661E-23DD-4EDA-82FC-C2AEA983F097";
paths = (
{
closed = 1;
nodes = (
"437 -7 OFFCURVE",
"533 87 OFFCURVE",
"533 260 CURVE SMOOTH",
"533 468 OFFCURVE",
"435 626 OFFCURVE",
"247 732 CURVE",
"235 712 LINE",
"391 623 OFFCURVE",
"510 483 OFFCURVE",
"510 250 CURVE",
"505 250 LINE",
"505 105 OFFCURVE",
"421 16 OFFCURVE",
"297 16 CURVE SMOOTH",
"173 16 OFFCURVE",
"88 104 OFFCURVE",
"88 250 CURVE SMOOTH",
"88 395 OFFCURVE",
"173 484 OFFCURVE",
"297 484 CURVE SMOOTH",
"421 484 OFFCURVE",
"505 396 OFFCURVE",
"505 250 CURVE",
"521 250 LINE",
"521 424 OFFCURVE",
"429 507 OFFCURVE",
"295 507 CURVE SMOOTH",
"159 507 OFFCURVE",
"60 414 OFFCURVE",
"60 250 CURVE SMOOTH",
"60 90 OFFCURVE",
"157 -7 OFFCURVE",
"297 -7 CURVE SMOOTH"
);
},
{
closed = 1;
nodes = (
"529 638 LINE",
"529 661 LINE",
"208 589 LINE",
"208 566 LINE"
);
}
);
width = 594;
}
);
leftKerningGroup = o;
leftMetricsKey = o;
rightMetricsKey = o;
unicode = 00F0;
},
{
color = 8;
glyphname = dcroat;
lastChange = "2021-06-30 15:54:14 +0000";
layers = (
{
anchors = (
{
name = bottom;
position = "{296, 0}";
}
);
hints = (
{
origin = "{2, 0}";
scale = "{-0.9, 1}";
type = Corner;
name = _corner.Serif;
}
);
layerId = "1E61A082-F045-49A7-AB52-DD1B03FD9B54";
paths = (
{
closed = 1;
nodes = (
"397 -10 OFFCURVE",
"471 86 OFFCURVE",
"471 244 CURVE",
"471 246 LINE",
"471 404 OFFCURVE",
"396 500 OFFCURVE",
"263 500 CURVE SMOOTH",
"137 500 OFFCURVE",
"49 406 OFFCURVE",
"49 245 CURVE SMOOTH",
"49 85 OFFCURVE",
"137 -10 OFFCURVE",
"263 -10 CURVE SMOOTH"
);
},
{
closed = 1;
nodes = (
"150 7 OFFCURVE",
"71 97 OFFCURVE",
"71 245 CURVE SMOOTH",
"71 394 OFFCURVE",
"150 483 OFFCURVE",
"263 483 CURVE SMOOTH",
"378 483 OFFCURVE",
"460 394 OFFCURVE",
"460 245 CURVE SMOOTH",
"460 97 OFFCURVE",
"378 7 OFFCURVE",
"263 7 CURVE SMOOTH"
);
},
{
closed = 1;
nodes = (
"480 0 LINE",
"480 682 LINE",
"458 682 LINE",
"458 335 LINE",
"465 245 LINE",
"460 178 LINE",
"460 0 LINE"
);
},
{
closed = 1;
nodes = (
"574 585 LINE",
"574 601 LINE",
"305 601 LINE",
"305 585 LINE"
);
}
);
width = 594;
},
{
anchors = (
{
name = bottom;
position = "{387, 0}";
}
);
hints = (
{
origin = "{2, 0}";
scale = "{-0.92, 0.98}";
type = Corner;
name = _corner.Serif;
}
);
layerId = "219068EA-2B9B-40DC-949E-B60449C01B8A";
paths = (
{
closed = 1;
nodes = (
"433 -10 OFFCURVE",
"493 95 OFFCURVE",
"493 258 CURVE",
"480 260 LINE",
"480 427 OFFCURVE",
"433 528 OFFCURVE",
"285 528 CURVE SMOOTH",
"144 528 OFFCURVE",
"45 432 OFFCURVE",
"45 259 CURVE SMOOTH",
"45 86 OFFCURVE",
"144 -10 OFFCURVE",
"286 -10 CURVE SMOOTH"
);
},
{
closed = 1;
nodes = (
"282 105 OFFCURVE",
"241 158 OFFCURVE",
"241 259 CURVE SMOOTH",
"241 360 OFFCURVE",
"282 414 OFFCURVE",
"351 414 CURVE SMOOTH",
"421 414 OFFCURVE",
"462 360 OFFCURVE",
"462 259 CURVE SMOOTH",
"462 158 OFFCURVE",
"421 105 OFFCURVE",
"351 105 CURVE SMOOTH"
);
},
{
closed = 1;
nodes = (
"635 0 LINE",
"635 718 LINE",
"453 718 LINE",
"453 381 LINE",
"477 264 LINE",
"467 127 LINE",
"467 0 LINE"
);
},
{
closed = 1;
nodes = (
"698 578 LINE",
"698 659 LINE",
"331 659 LINE",
"331 578 LINE"
);
}
);
width = 730;
},
{
anchors = (
{
name = bottom;
position = "{368, 0}";
}
);
hints = (
{
origin = "{2, 0}";
scale = "{-0.92, 0.98}";
type = Corner;
name = _corner.Serif;
}
);
layerId = "0C29AA02-E021-4BD1-A2C4-87F681D64C35";
paths = (
{
closed = 1;
nodes = (
"406 -10 OFFCURVE",
"459 103 OFFCURVE",
"458 254 CURVE",
"448 256 LINE",
"448 411 OFFCURVE",
"406 519 OFFCURVE",
"258 519 CURVE SMOOTH",
"127 519 OFFCURVE",
"38 429 OFFCURVE",
"38 255 CURVE SMOOTH",
"38 80 OFFCURVE",
"127 -10 OFFCURVE",
"260 -10 CURVE SMOOTH"
);
},
{
closed = 1;
nodes = (
"269 90 OFFCURVE",
"235 147 OFFCURVE",
"235 255 CURVE SMOOTH",
"235 362 OFFCURVE",
"269 419 OFFCURVE",
"329 419 CURVE SMOOTH",
"390 419 OFFCURVE",
"423 362 OFFCURVE",
"423 255 CURVE SMOOTH",
"423 147 OFFCURVE",
"390 90 OFFCURVE",
"329 90 CURVE SMOOTH"
);
},
{
closed = 1;
nodes = (
"596 0 LINE",
"596 682 LINE",
"414 682 LINE",
"414 381 LINE",
"443 264 LINE",
"428 127 LINE",
"428 0 LINE"
);
},
{
closed = 1;
nodes = (
"663 560 LINE",
"663 636 LINE",
"323 636 LINE",
"323 560 LINE"
);
}
);
width = 678;
},
{
anchors = (
{
name = bottom;
position = "{336, 0}";
}
);
hints = (
{
origin = "{2, 0}";
scale = "{-0.9, 1}";
type = Corner;
name = _corner.Serif;
}
);
layerId = "2B88661E-23DD-4EDA-82FC-C2AEA983F097";
paths = (
{
closed = 1;
nodes = (
"436 -8 OFFCURVE",
"523 90 OFFCURVE",
"523 249 CURVE",
"523 251 LINE",
"523 410 OFFCURVE",
"436 508 OFFCURVE",
"292 508 CURVE SMOOTH",
"157 508 OFFCURVE",
"60 410 OFFCURVE",
"60 250 CURVE SMOOTH",
"60 90 OFFCURVE",
"157 -8 OFFCURVE",
"292 -8 CURVE SMOOTH"
);
},
{
closed = 1;
nodes = (
"173 15 OFFCURVE",
"88 103 OFFCURVE",
"88 250 CURVE SMOOTH",
"88 397 OFFCURVE",
"173 485 OFFCURVE",
"295 485 CURVE SMOOTH",
"418 485 OFFCURVE",
"505 397 OFFCURVE",
"505 250 CURVE SMOOTH",
"505 103 OFFCURVE",
"418 15 OFFCURVE",
"295 15 CURVE SMOOTH"
);
},
{
closed = 1;
nodes = (
"531 0 LINE",
"531 710 LINE",
"503 710 LINE",
"503 340 LINE",
"517 250 LINE",
"506 151 LINE",
"506 0 LINE"
);
},
{
closed = 1;
nodes = (
"618 596 LINE",
"618 618 LINE",
"337 618 LINE",
"337 596 LINE"
);
}
);
width = 654;
}
);
leftKerningGroup = o;
leftMetricsKey = d;
rightKerningGroup = l;
rightMetricsKey = d;
unicode = 0111;
},
{
color = 8;
glyphname = e;
lastChange = "2021-06-30 15:45:42 +0000";
layers = (
{
anchors = (
{
name = bottom;
position = "{270, 0}";
},
{
name = ogonek;
position = "{385, 0}";
},
{
name = top;
position = "{270, 490}";
}
);
layerId = "1E61A082-F045-49A7-AB52-DD1B03FD9B54";
rightMetricsKey = "=o-6";
paths = (
{
closed = 1;
nodes = (
"417 -7 OFFCURVE",
"473 97 OFFCURVE",
"480 173 CURVE",
"464 173 LINE",
"458 106 OFFCURVE",
"406 11 OFFCURVE",
"277 11 CURVE SMOOTH",
"159 11 OFFCURVE",
"79 98 OFFCURVE",
"79 245 CURVE SMOOTH",
"79 392 OFFCURVE",
"158 480 OFFCURVE",
"277 480 CURVE",
"277 497 LINE",
"146 497 OFFCURVE",
"57 406 OFFCURVE",
"57 245 CURVE SMOOTH",
"57 85 OFFCURVE",
"146 -7 OFFCURVE",
"277 -7 CURVE SMOOTH"
);
},
{
closed = 1;
nodes = (
"484 267 LINE",
"484 273 LINE",
"465 284 LINE",
"73 284 LINE",
"73 267 LINE"
);
},
{
closed = 1;
nodes = (
"484 405 OFFCURVE",
"413 497 OFFCURVE",
"277 497 CURVE",
"277 480 LINE",
"400 480 OFFCURVE",
"460 393 OFFCURVE",
"465 284 CURVE",
"484 273 LINE"
);
}
);
width = 535;
},
{
anchors = (
{
name = bottom;
position = "{306, 0}";
},
{
name = ogonek;
position = "{454, 0}";
},
{
name = top;
position = "{306, 527}";
}
);
layerId = "219068EA-2B9B-40DC-949E-B60449C01B8A";
rightMetricsKey = "=o+14";
paths = (
{
closed = 1;
nodes = (
"483 -12 OFFCURVE",
"566 94 OFFCURVE",
"576 200 CURVE",
"462 200 LINE",
"446 155 OFFCURVE",
"412 121 OFFCURVE",
"345 121 CURVE SMOOTH",
"264 121 OFFCURVE",
"213 181 OFFCURVE",
"213 277 CURVE SMOOTH",
"213 397 OFFCURVE",
"249 441 OFFCURVE",
"313 441 CURVE",
"308 539 LINE",
"149 539 OFFCURVE",
"35 441 OFFCURVE",
"35 264 CURVE SMOOTH",
"35 86 OFFCURVE",
"150 -12 OFFCURVE",
"315 -12 CURVE SMOOTH"
);
},
{
closed = 1;
nodes = (
"578 255 LINE",
"578 299 LINE",
"399 342 LINE",
"116 342 LINE",
"116 255 LINE"
);
},
{
closed = 1;
nodes = (
"578 442 OFFCURVE",
"483 539 OFFCURVE",
"308 539 CURVE",
"313 441 LINE",
"369 441 OFFCURVE",
"397 395 OFFCURVE",
"399 342 CURVE",
"578 299 LINE"
);
}
);
width = 627;
},
{
anchors = (
{
name = bottom;
position = "{287, 0}";
},
{
name = ogonek;
position = "{426, 0}";
},
{
name = top;
position = "{287, 518}";
}
);
layerId = "0C29AA02-E021-4BD1-A2C4-87F681D64C35";
rightMetricsKey = "=o+8";
paths = (
{
closed = 1;
nodes = (
"459 -12 OFFCURVE",
"544 96 OFFCURVE",
"545 224 CURVE",
"465 224 LINE",
"456 165 OFFCURVE",
"420 113 OFFCURVE",
"344 113 CURVE SMOOTH",
"255 113 OFFCURVE",
"207 176 OFFCURVE",
"207 276 CURVE SMOOTH",
"207 410 OFFCURVE",
"243 451 OFFCURVE",
"297 451 CURVE",
"293 530 LINE",
"135 530 OFFCURVE",
"24 429 OFFCURVE",
"24 259 CURVE SMOOTH",
"24 89 OFFCURVE",
"135 -12 OFFCURVE",
"293 -12 CURVE SMOOTH"
);
},
{
closed = 1;
nodes = (
"546 261 LINE",
"546 287 LINE",
"365 340 LINE",
"114 340 LINE",
"114 261 LINE"
);
},
{
closed = 1;
nodes = (
"546 428 OFFCURVE",
"456 530 OFFCURVE",
"293 530 CURVE",
"297 451 LINE",
"340 451 OFFCURVE",
"365 409 OFFCURVE",
"365 340 CURVE",
"546 287 LINE"
);
}
);
width = 577;
},
{
anchors = (
{
name = bottom;
position = "{287, 0}";
},
{
name = ogonek;
position = "{409, 0}";
},
{
name = top;
position = "{287, 500}";
}
);
layerId = "2B88661E-23DD-4EDA-82FC-C2AEA983F097";
paths = (
{
closed = 1;
nodes = (
"439 -7 OFFCURVE",
"493 85 OFFCURVE",
"505 149 CURVE",
"482 149 LINE",
"470 98 OFFCURVE",
"422 17 OFFCURVE",
"295 17 CURVE SMOOTH",
"168 17 OFFCURVE",
"87 105 OFFCURVE",
"87 250 CURVE SMOOTH",
"87 397 OFFCURVE",
"168 484 OFFCURVE",
"295 484 CURVE",
"295 507 LINE",
"153 507 OFFCURVE",
"60 414 OFFCURVE",
"60 250 CURVE SMOOTH",
"60 86 OFFCURVE",
"152 -7 OFFCURVE",
"294 -7 CURVE SMOOTH"
);
},
{
closed = 1;
nodes = (
"515 267 LINE",
"515 278 LINE",
"490 290 LINE",
"77 290 LINE",
"77 267 LINE"
);
},
{
closed = 1;
nodes = (
"515 413 OFFCURVE",
"439 507 OFFCURVE",
"295 507 CURVE",
"295 484 LINE",
"423 484 OFFCURVE",
"485 398 OFFCURVE",
"490 290 CURVE",
"515 278 LINE"
);
}
);
width = 575;
}
);
leftKerningGroup = o;
leftMetricsKey = o;
rightKerningGroup = o;
rightMetricsKey = o;
unicode = 0065;
},
{
color = 8;
glyphname = f;
lastChange = "2021-06-30 15:50:14 +0000";
layers = (
{
anchors = (
{
name = bottom;
position = "{195, 0}";
},
{
name = top;
position = "{195, 682}";
}
);
hints = (
{
origin = "{0, 3}";
type = Corner;
name = _corner.Serif;
},
{
origin = "{0, 0}";
scale = "{-1.6, 1}";
type = Corner;
name = _corner.Serif;
options = 1;
}
);
layerId = "1E61A082-F045-49A7-AB52-DD1B03FD9B54";
paths = (
{
closed = 1;
nodes = (
"178 0 LINE",
"178 511 LINE",
"156 510 LINE",
"156 0 LINE"
);
},
{
closed = 1;
nodes = (
"360 473 LINE",
"360 490 LINE",
"20 490 LINE",
"20 473 LINE"
);
},
{
closed = 1;
nodes = (
"178 511 LINE",
"178 628 OFFCURVE",
"223 680 OFFCURVE",
"315 680 CURVE",
"315 697 LINE",
"209 697 OFFCURVE",
"156 638 OFFCURVE",
"156 510 CURVE"
);
},
{
closed = 1;
nodes = (
"406 587 OFFCURVE",
"417 605 OFFCURVE",
"417 626 CURVE SMOOTH",
"417 672 OFFCURVE",
"371 697 OFFCURVE",
"315 697 CURVE",
"315 680 LINE",
"362 680 OFFCURVE",
"395 666 OFFCURVE",
"401 632 CURVE",
"404 643 LINE",
"375 643 OFFCURVE",
"358 632 OFFCURVE",
"358 612 CURVE SMOOTH",
"358 597 OFFCURVE",
"370 587 OFFCURVE",
"384 587 CURVE SMOOTH"
);
}
);
width = 394;
},
{
anchors = (
{
name = bottom;
position = "{232, 0}";
},
{
name = top;
position = "{232, 718}";
}
);
hints = (
{
origin = "{0, 3}";
scale = "{1, 0.98}";
type = Corner;
name = _corner.Serif;
},
{
origin = "{0, 0}";
scale = "{-1.5, 0.98}";
type = Corner;
name = _corner.Serif;
options = 1;
}
);
layerId = "219068EA-2B9B-40DC-949E-B60449C01B8A";
paths = (
{
closed = 1;
nodes = (
"302 0 LINE",
"302 580 LINE",
"121 553 LINE",
"121 0 LINE"
);
},
{
closed = 1;
nodes = (
"459 425 LINE",
"459 527 LINE",
"17 527 LINE",
"17 425 LINE"
);
},
{
closed = 1;
nodes = (
"302 580 LINE",
"302 644 OFFCURVE",
"329 669 OFFCURVE",
"375 669 CURVE",
"366 746 LINE",
"235 746 OFFCURVE",
"121 695 OFFCURVE",
"121 553 CURVE"
);
},
{
closed = 1;
nodes = (
"517 577 OFFCURVE",
"551 607 OFFCURVE",
"551 645 CURVE SMOOTH",
"551 706 OFFCURVE",
"476 746 OFFCURVE",
"366 746 CURVE",
"375 669 LINE",
"404 669 OFFCURVE",
"425 662 OFFCURVE",
"440 653 CURVE",
"455 682 LINE",
"407 682 OFFCURVE",
"370 671 OFFCURVE",
"370 633 CURVE SMOOTH",
"370 595 OFFCURVE",
"409 577 OFFCURVE",
"455 577 CURVE SMOOTH"
);
}
);
width = 496;
},
{
anchors = (
{
name = bottom;
position = "{204, 0}";
},
{
name = top;
position = "{204, 682}";
}
);
hints = (
{
origin = "{0, 3}";
scale = "{1, 0.98}";
type = Corner;
name = _corner.Serif;
},
{
origin = "{0, 0}";
scale = "{-1.7, 0.98}";
type = Corner;
name = _corner.Serif;
options = 1;
}
);
layerId = "0C29AA02-E021-4BD1-A2C4-87F681D64C35";
paths = (
{
closed = 1;
nodes = (
"284 0 LINE",
"284 582 LINE",
"103 536 LINE",
"103 0 LINE"
);
},
{
closed = 1;
nodes = (
"427 427 LINE",
"427 518 LINE",
"-1 518 LINE",
"-1 427 LINE"
);
},
{
closed = 1;
nodes = (
"284 582 LINE",
"284 641 OFFCURVE",
"315 665 OFFCURVE",
"361 665 CURVE",
"347 730 LINE",
"201 730 OFFCURVE",
"103 673 OFFCURVE",
"103 536 CURVE"
);
},
{
closed = 1;
nodes = (
"486 559 OFFCURVE",
"520 586 OFFCURVE",
"520 629 CURVE SMOOTH",
"520 688 OFFCURVE",
"446 730 OFFCURVE",
"347 730 CURVE",
"361 665 LINE",
"393 665 OFFCURVE",
"415 659 OFFCURVE",
"429 650 CURVE",
"436 675 LINE",
"394 675 OFFCURVE",
"361 658 OFFCURVE",
"361 620 CURVE SMOOTH",
"361 580 OFFCURVE",
"392 559 OFFCURVE",
"435 559 CURVE SMOOTH"
);
}
);
width = 451;
},
{
anchors = (
{
name = bottom;
position = "{215, 0}";
},
{
name = top;
position = "{215, 710}";
}
);
hints = (
{
origin = "{0, 3}";
type = Corner;
name = _corner.Serif;
},
{
origin = "{0, 0}";
scale = "{-1.2, 1}";
type = Corner;
name = _corner.Serif;
options = 1;
}
);
layerId = "2B88661E-23DD-4EDA-82FC-C2AEA983F097";
paths = (
{
closed = 1;
nodes = (
"204 0 LINE",
"204 531 LINE",
"176 528 LINE",
"176 0 LINE"
);
},
{
closed = 1;
nodes = (
"376 477 LINE",
"376 500 LINE",
"41 500 LINE",
"41 477 LINE"
);
},
{
closed = 1;
nodes = (
"204 531 LINE",
"204 645 OFFCURVE",
"253 695 OFFCURVE",
"354 695 CURVE",
"353 717 LINE",
"235 717 OFFCURVE",
"176 657 OFFCURVE",
"176 528 CURVE"
);
},
{
closed = 1;
nodes = (
"449 615 OFFCURVE",
"461 631 OFFCURVE",
"461 651 CURVE SMOOTH",
"461 692 OFFCURVE",
"411 717 OFFCURVE",
"353 717 CURVE",
"354 695 LINE",
"399 695 OFFCURVE",
"429 682 OFFCURVE",
"437 658 CURVE",
"444 676 LINE",
"421 676 OFFCURVE",
"399 665 OFFCURVE",
"399 642 CURVE SMOOTH",
"399 626 OFFCURVE",
"411 615 OFFCURVE",
"428 615 CURVE SMOOTH"
);
}
);
width = 432;
}
);
leftKerningGroup = f;
rightKerningGroup = f;
unicode = 0066;
},
{
color = 8;
glyphname = g;
lastChange = "2021-06-30 15:48:54 +0000";
layers = (
{
anchors = (
{
name = bottom;
position = "{285, -190}";
},
{
name = top;
position = "{285, 490}";
}
);
layerId = "1E61A082-F045-49A7-AB52-DD1B03FD9B54";
paths = (
{
closed = 1;
nodes = (
"345 -182 LINE SMOOTH",
"472 -182 OFFCURVE",
"519 -120 OFFCURVE",
"519 -49 CURVE SMOOTH",
"519 16 OFFCURVE",
"481 53 OFFCURVE",
"405 53 CURVE SMOOTH",
"151 53 LINE SMOOTH",
"90 53 OFFCURVE",
"58 87 OFFCURVE",
"58 133 CURVE SMOOTH",
"58 183 OFFCURVE",
"95 207 OFFCURVE",
"143 212 CURVE",
"141 225 LINE",
"90 223 OFFCURVE",
"37 196 OFFCURVE",
"37 131 CURVE SMOOTH",
"37 72 OFFCURVE",
"82 35 OFFCURVE",
"149 35 CURVE SMOOTH",
"403 35 LINE SMOOTH",
"467 35 OFFCURVE",
"497 5 OFFCURVE",
"497 -50 CURVE SMOOTH",
"497 -110 OFFCURVE",
"456 -165 OFFCURVE",
"343 -165 CURVE SMOOTH",
"236 -165 LINE SMOOTH",
"144 -165 OFFCURVE",
"91 -128 OFFCURVE",
"91 -61 CURVE SMOOTH",
"91 -2 OFFCURVE",
"140 27 OFFCURVE",
"168 36 CURVE",
"165 45 LINE",
"124 36 OFFCURVE",
"70 6 OFFCURVE",
"70 -64 CURVE SMOOTH",
"70 -141 OFFCURVE",
"131 -182 OFFCURVE",
"235 -182 CURVE SMOOTH"
);
},
{
closed = 1;
nodes = (
"380 164 OFFCURVE",
"453 227 OFFCURVE",
"453 330 CURVE SMOOTH",
"453 418 OFFCURVE",
"400 463 OFFCURVE",
"343 477 CURVE",
"277 494 LINE",
"163 494 OFFCURVE",
"91 431 OFFCURVE",
"91 329 CURVE SMOOTH",
"91 227 OFFCURVE",
"163 164 OFFCURVE",
"272 164 CURVE SMOOTH"
);
},
{
closed = 1;
nodes = (
"177 181 OFFCURVE",
"113 239 OFFCURVE",
"113 329 CURVE SMOOTH",
"113 419 OFFCURVE",
"177 477 OFFCURVE",
"272 477 CURVE SMOOTH",
"367 477 OFFCURVE",
"431 419 OFFCURVE",
"431 329 CURVE SMOOTH",
"431 239 OFFCURVE",
"367 181 OFFCURVE",
"272 181 CURVE SMOOTH"
);
},
{
closed = 1;
nodes = (
"533 477 LINE",
"533 494 LINE",
"277 494 LINE",
"343 477 LINE"
);
}
);
width = 569;
},
{
anchors = (
{
name = bottom;
position = "{332, -200}";
},
{
name = top;
position = "{332, 527}";
}
);
layerId = "219068EA-2B9B-40DC-949E-B60449C01B8A";
paths = (
{
closed = 1;
nodes = (
"390 -191 LINE SMOOTH",
"545 -191 OFFCURVE",
"625 -120 OFFCURVE",
"625 0 CURVE SMOOTH",
"625 80 OFFCURVE",
"563 132 OFFCURVE",
"449 132 CURVE SMOOTH",
"208 132 LINE SMOOTH",
"178 132 OFFCURVE",
"160 142 OFFCURVE",
"160 166 CURVE SMOOTH",
"160 189 OFFCURVE",
"179 203 OFFCURVE",
"210 203 CURVE",
"207 239 LINE",
"102 239 OFFCURVE",
"33 195 OFFCURVE",
"33 108 CURVE SMOOTH",
"33 30 OFFCURVE",
"100 -18 OFFCURVE",
"202 -18 CURVE SMOOTH",
"421 -18 LINE SMOOTH",
"452 -18 OFFCURVE",
"471 -30 OFFCURVE",
"471 -57 CURVE SMOOTH",
"471 -87 OFFCURVE",
"450 -106 OFFCURVE",
"407 -106 CURVE SMOOTH",
"271 -106 LINE SMOOTH",
"226 -106 OFFCURVE",
"201 -90 OFFCURVE",
"201 -55 CURVE SMOOTH",
"201 -39 OFFCURVE",
"210 -25 OFFCURVE",
"225 -12 CURVE",
"223 -4 LINE",
"148 -4 OFFCURVE",
"72 -32 OFFCURVE",
"72 -97 CURVE SMOOTH",
"72 -163 OFFCURVE",
"137 -191 OFFCURVE",
"240 -191 CURVE SMOOTH"
);
},
{
closed = 1;
nodes = (
"478 183 OFFCURVE",
"562 248 OFFCURVE",
"562 336 CURVE SMOOTH",
"562 392 OFFCURVE",
"526 425 OFFCURVE",
"491 436 CURVE",
"326 532 LINE",
"174 532 OFFCURVE",
"77 468 OFFCURVE",
"77 357 CURVE SMOOTH",
"77 246 OFFCURVE",
"174 183 OFFCURVE",
"326 183 CURVE SMOOTH"
);
},
{
closed = 1;
nodes = (
"284 266 OFFCURVE",
"259 302 OFFCURVE",
"259 358 CURVE SMOOTH",
"259 413 OFFCURVE",
"284 450 OFFCURVE",
"326 450 CURVE SMOOTH",
"369 450 OFFCURVE",
"394 413 OFFCURVE",
"394 358 CURVE SMOOTH",
"394 302 OFFCURVE",
"369 266 OFFCURVE",
"326 266 CURVE SMOOTH"
);
},
{
closed = 1;
nodes = (
"615 436 LINE",
"615 532 LINE",
"326 532 LINE",
"491 436 LINE"
);
}
);
width = 667;
},
{
anchors = (
{
name = bottom;
position = "{314, -200}";
},
{
name = top;
position = "{314, 518}";
}
);
layerId = "0C29AA02-E021-4BD1-A2C4-87F681D64C35";
paths = (
{
closed = 1;
nodes = (
"378 -191 LINE SMOOTH",
"530 -191 OFFCURVE",
"609 -121 OFFCURVE",
"609 -6 CURVE SMOOTH",
"609 75 OFFCURVE",
"548 128 OFFCURVE",
"437 128 CURVE SMOOTH",
"200 128 LINE SMOOTH",
"168 128 OFFCURVE",
"150 140 OFFCURVE",
"150 166 CURVE SMOOTH",
"150 193 OFFCURVE",
"168 205 OFFCURVE",
"200 205 CURVE",
"191 238 LINE",
"90 239 OFFCURVE",
"22 189 OFFCURVE",
"22 106 CURVE SMOOTH",
"22 30 OFFCURVE",
"90 -22 OFFCURVE",
"191 -22 CURVE SMOOTH",
"393 -22 LINE SMOOTH",
"428 -22 OFFCURVE",
"451 -34 OFFCURVE",
"451 -62 CURVE SMOOTH",
"451 -93 OFFCURVE",
"427 -114 OFFCURVE",
"379 -114 CURVE SMOOTH",
"263 -114 LINE SMOOTH",
"215 -114 OFFCURVE",
"190 -97 OFFCURVE",
"190 -59 CURVE SMOOTH",
"190 -40 OFFCURVE",
"200 -25 OFFCURVE",
"217 -12 CURVE",
"210 -5 LINE",
"127 -5 OFFCURVE",
"61 -32 OFFCURVE",
"61 -94 CURVE SMOOTH",
"61 -162 OFFCURVE",
"126 -191 OFFCURVE",
"229 -191 CURVE SMOOTH"
);
},
{
closed = 1;
nodes = (
"459 177 OFFCURVE",
"545 238 OFFCURVE",
"545 331 CURVE SMOOTH",
"545 388 OFFCURVE",
"509 422 OFFCURVE",
"469 435 CURVE",
"311 523 LINE",
"159 523 OFFCURVE",
"63 460 OFFCURVE",
"63 350 CURVE SMOOTH",
"63 240 OFFCURVE",
"159 177 OFFCURVE",
"311 177 CURVE SMOOTH"
);
},
{
closed = 1;
nodes = (
"271 247 OFFCURVE",
"248 288 OFFCURVE",
"248 350 CURVE SMOOTH",
"248 410 OFFCURVE",
"271 453 OFFCURVE",
"311 453 CURVE SMOOTH",
"351 453 OFFCURVE",
"374 410 OFFCURVE",
"374 350 CURVE SMOOTH",
"374 288 OFFCURVE",
"351 247 OFFCURVE",
"311 247 CURVE SMOOTH"
);
},
{
closed = 1;
nodes = (
"604 435 LINE",
"604 523 LINE",
"311 523 LINE",
"469 435 LINE"
);
}
);
width = 627;
},
{
anchors = (
{
name = bottom;
position = "{298, -200}";
},
{
name = top;
position = "{298, 501}";
}
);
layerId = "2B88661E-23DD-4EDA-82FC-C2AEA983F097";
paths = (
{
closed = 1;
nodes = (
"376 -182 LINE SMOOTH",
"497 -182 OFFCURVE",
"545 -115 OFFCURVE",
"545 -47 CURVE SMOOTH",
"545 19 OFFCURVE",
"507 57 OFFCURVE",
"430 57 CURVE SMOOTH",
"179 57 LINE SMOOTH",
"120 57 OFFCURVE",
"84 91 OFFCURVE",
"84 136 CURVE SMOOTH",
"84 187 OFFCURVE",
"120 212 OFFCURVE",
"167 217 CURVE",
"165 236 LINE",
"111 234 OFFCURVE",
"58 200 OFFCURVE",
"58 135 CURVE SMOOTH",
"58 74 OFFCURVE",
"106 34 OFFCURVE",
"177 34 CURVE SMOOTH",
"428 34 LINE SMOOTH",
"490 34 OFFCURVE",
"517 4 OFFCURVE",
"517 -50 CURVE SMOOTH",
"517 -105 OFFCURVE",
"480 -160 OFFCURVE",
"377 -160 CURVE SMOOTH",
"246 -160 LINE SMOOTH",
"155 -160 OFFCURVE",
"115 -121 OFFCURVE",
"115 -61 CURVE SMOOTH",
"115 -7 OFFCURVE",
"162 23 OFFCURVE",
"189 35 CURVE",
"185 45 LINE",
"142 38 OFFCURVE",
"89 4 OFFCURVE",
"89 -62 CURVE SMOOTH",
"89 -137 OFFCURVE",
"140 -182 OFFCURVE",
"245 -182 CURVE SMOOTH"
);
},
{
closed = 1;
nodes = (
"407 168 OFFCURVE",
"481 234 OFFCURVE",
"481 336 CURVE SMOOTH",
"481 416 OFFCURVE",
"438 465 OFFCURVE",
"380 483 CURVE",
"300 505 LINE",
"185 505 OFFCURVE",
"109 438 OFFCURVE",
"109 336 CURVE SMOOTH",
"109 234 OFFCURVE",
"186 168 OFFCURVE",
"295 168 CURVE SMOOTH"
);
},
{
closed = 1;
nodes = (
"201 191 OFFCURVE",
"137 248 OFFCURVE",
"137 336 CURVE SMOOTH",
"137 424 OFFCURVE",
"202 482 OFFCURVE",
"295 482 CURVE SMOOTH",
"391 482 OFFCURVE",
"453 424 OFFCURVE",
"453 336 CURVE SMOOTH",
"453 248 OFFCURVE",
"390 191 OFFCURVE",
"295 191 CURVE SMOOTH"
);
},
{
closed = 1;
nodes = (
"551 483 LINE",
"551 505 LINE",
"300 505 LINE",
"380 483 LINE"
);
}
);
width = 598;
}
);
leftKerningGroup = g;
rightKerningGroup = g;
unicode = 0067;
},
